<?xml version="1.0" encoding="UTF-8"?>
<svg xmlns="http://www.w3.org/2000/svg" xmlns:xlink="http://www.w3.org/1999/xlink" version="1.2" >
<font id="MultipleSans-Alt-II-Regular">
<font-face  font-family="MultipleSans Alt II" units-per-em="1000" ascent="1000" descent="-300" font-style="normal" font-weight="400" font-stretch="normal" cap-height="700" x-height="480" underline-position="-75" underline-thickness="50" />
<missing-glyph  horiz-adv-x="617" d="" />
<glyph glyph-name="NULL" d="" />
<glyph glyph-name="CR" unicode="&#xd;" horiz-adv-x="250" d="" />
<glyph glyph-name="space" unicode="&#x20;" horiz-adv-x="245" d="" />
<glyph glyph-name="exclam" unicode="&#x21;" horiz-adv-x="261" d="M98 195 L162 195 C166 271 175 525 175 710 L86 710 C86 545 94 271 98 195 L98 195 Z M130 -11 C165 -11 191 18 191 52 C191 87 165 113 130 113 C96 113 67 87 67 52 C67 18 96 -11 130 -11 L130 -11 Z " />
<glyph glyph-name="quotedbl" unicode="&#x22;" horiz-adv-x="329" d="M114 498 C121 528 145 627 145 668 C145 698 125 720 99 720 C73 720 53 698 53 668 C53 633 77 528 83 498 L114 498 Z M246 498 C252 528 277 627 277 668 C277 698 256 720 230 720 C205 720 184 698 184 668 C184 633 208 528 214 498 L246 498 Z " />
<glyph glyph-name="numbersign" unicode="&#x23;" horiz-adv-x="795" d="M747 400 L766 477 L632 477 L687 700 L607 700 L552 477 L332 477 L387 700 L307 700 L252 477 L121 477 L102 400 L232 400 L179 186 L49 186 L29 109 L160 109 L103 -120 L183 -120 L240 109 L460 109 L403 -120 L483 -120 L540 109 L674 109 L694 186 L559 186 L612 400 L747 400 Z M479 186 L259 186 L312 400 L532 400 L479 186 Z " />
<glyph glyph-name="dollar" unicode="&#x24;" horiz-adv-x="610" d="M532 199 C532 324 451 376 328 411 C230 438 176 461 176 534 C176 597 224 642 327 642 C395 642 450 627 499 603 L499 684 C459 702 415 712 353 715 L353 792 L278 792 L278 712 C158 697 91 626 91 528 C91 414 173 360 289 332 C385 307 447 273 447 188 C447 99 380 60 273 60 C201 60 142 76 84 107 L84 26 C128 3 184 -11 258 -13 L258 -90 L333 -90 L333 -10 C464 7 532 85 532 199 L532 199 Z " />
<glyph glyph-name="percent" unicode="&#x25;" horiz-adv-x="867" d="M174 0 L263 0 L698 700 L610 700 L174 0 Z M210 316 C315 316 382 390 382 501 C382 618 315 690 210 690 C102 690 36 612 36 495 C36 384 102 316 210 316 L210 316 Z M211 380 C147 380 111 428 111 499 C111 575 147 626 211 626 C271 626 307 575 307 499 C307 428 271 380 211 380 L211 380 Z M659 4 C765 4 831 79 831 190 C831 307 765 379 659 379 C552 379 485 301 485 184 C485 73 552 4 659 4 L659 4 Z M660 69 C596 69 560 117 560 187 C560 263 596 315 660 315 C720 315 756 263 756 187 C756 117 720 69 660 69 L660 69 Z " />
<glyph glyph-name="ampersand" unicode="&#x26;" horiz-adv-x="657" d="M661 0 L531 151 C556 207 570 279 570 368 L500 367 C499 305 493 253 480 211 L314 403 C398 445 453 493 453 575 C453 660 388 715 293 715 C214 715 126 671 126 570 C126 506 156 464 208 405 C126 360 43 294 43 181 C43 52 138 -13 268 -13 C358 -13 436 17 491 85 L566 0 L661 0 Z M294 645 C349 645 376 610 376 566 C376 523 353 492 273 452 L271 454 C240 488 207 523 207 568 C207 619 243 645 294 645 L294 645 Z M277 58 C193 58 129 104 129 192 C129 270 182 318 253 355 L446 136 C409 83 353 58 277 58 L277 58 Z " />
<glyph glyph-name="quotesingle" unicode="&#x27;" horiz-adv-x="198" d="M114 498 C121 528 145 627 145 668 C145 698 125 720 99 720 C73 720 53 698 53 668 C53 633 77 528 83 498 L114 498 Z " />
<glyph glyph-name="parenleft" unicode="&#x28;" horiz-adv-x="267" d="M160 -122 L228 -122 C169 19 140 171 140 293 C140 415 169 567 228 708 L160 708 C85 583 54 435 54 293 C54 151 85 3 160 -122 L160 -122 Z " />
<glyph glyph-name="parenright" unicode="&#x29;" horiz-adv-x="267" d="M108 708 L39 708 C98 566 127 414 127 293 C127 171 98 19 39 -122 L108 -122 C182 3 214 150 214 293 C214 435 182 582 108 708 L108 708 Z " />
<glyph glyph-name="asterisk" unicode="&#x2a;" horiz-adv-x="418" d="M366 614 L329 682 L228 616 L216 737 L139 723 L170 607 L53 632 L42 556 L162 548 L101 445 L171 411 L215 521 L295 433 L350 489 L257 566 L366 614 Z " />
<glyph glyph-name="plus" unicode="&#x2b;" horiz-adv-x="610" d="M545 281 L346 281 L346 480 L264 480 L264 281 L65 281 L65 201 L264 201 L264 0 L346 0 L346 201 L545 201 L545 281 Z " />
<glyph glyph-name="comma" unicode="&#x2c;" horiz-adv-x="239" d="M61 -105 L92 -138 C151 -99 181 -36 181 27 C181 89 150 111 117 111 C83 111 61 90 61 58 C61 16 100 14 100 -37 C100 -68 82 -90 61 -105 L61 -105 Z " />
<glyph glyph-name="hyphen" unicode="&#x2d;" horiz-adv-x="438" d="M68 297 L68 215 L371 215 L371 297 L68 297 Z " />
<glyph glyph-name="period" unicode="&#x2e;" horiz-adv-x="238" d="M119 -11 C154 -11 181 18 181 52 C181 87 154 113 119 113 C85 113 57 87 57 52 C57 18 85 -11 119 -11 L119 -11 Z " />
<glyph glyph-name="slash" unicode="&#x2f;" horiz-adv-x="361" d="M36 -120 L122 -120 L326 700 L240 700 L36 -120 Z " />
<glyph glyph-name="zero" unicode="0" horiz-adv-x="610" d="M303 -13 C461 -13 566 106 566 352 C566 600 466 715 307 715 C149 715 44 596 44 352 C44 103 144 -13 303 -13 L303 -13 Z M305 70 C200 70 137 152 137 352 C137 547 198 632 305 632 C411 632 474 547 474 352 C474 152 412 70 305 70 L305 70 Z " />
<glyph glyph-name="one" unicode="1" horiz-adv-x="610" d="M378 73 L378 700 L300 700 L101 591 L141 514 L291 593 L289 567 L289 73 L136 73 L136 0 L523 0 L523 73 L378 73 Z " />
<glyph glyph-name="two" unicode="2" horiz-adv-x="610" d="M244 83 L206 81 C441 247 508 353 508 489 C508 628 426 715 263 715 C192 715 130 701 75 669 L75 587 C121 615 180 632 251 632 C355 632 417 580 417 476 C417 348 312 249 76 72 L76 0 L544 0 L544 83 L244 83 Z " />
<glyph glyph-name="three" unicode="3" horiz-adv-x="610" d="M389 394 C459 422 490 477 490 542 C490 641 424 715 277 715 C204 715 145 702 90 670 L90 587 C138 616 193 633 270 633 C355 633 400 593 400 528 C400 457 344 413 220 413 L220 338 C353 338 442 317 442 206 C442 109 372 67 259 67 C189 67 125 88 80 120 L80 29 C127 3 186 -13 267 -13 C446 -13 528 78 528 207 C528 311 477 367 389 394 L389 394 Z " />
<glyph glyph-name="four" unicode="4" horiz-adv-x="610" d="M564 247 L471 247 L471 700 L388 700 C267 561 137 394 34 247 L34 167 L384 168 L384 0 L471 0 L471 168 L564 168 L564 247 Z M128 247 C205 357 295 474 384 581 L384 247 L128 247 Z " />
<glyph glyph-name="five" unicode="5" horiz-adv-x="610" d="M299 439 C254 439 215 433 178 420 L192 618 L500 618 L500 700 L112 700 L93 370 L138 332 C180 350 232 360 291 360 C389 360 454 320 454 221 C454 110 383 65 265 65 C195 65 128 88 83 121 L83 29 C129 3 192 -13 267 -13 C458 -13 540 82 540 226 C540 376 447 439 299 439 L299 439 Z " />
<glyph glyph-name="six" unicode="6" horiz-adv-x="610" d="M352 435 C279 435 208 408 157 358 C164 568 250 633 366 633 C412 633 463 626 509 596 L509 682 C465 707 411 715 366 715 C194 715 64 607 64 325 C64 91 162 -13 318 -13 C473 -13 560 87 560 222 C560 370 468 435 352 435 L352 435 Z M320 67 C228 67 167 126 157 282 C216 333 276 354 333 354 C409 354 470 316 470 216 C470 129 422 67 320 67 L320 67 Z " />
<glyph glyph-name="seven" unicode="7" horiz-adv-x="610" d="M69 700 L69 616 L449 616 L146 0 L240 0 L542 631 L542 700 L69 700 Z " />
<glyph glyph-name="eight" unicode="8" horiz-adv-x="610" d="M397 386 C468 416 518 464 518 548 C518 651 439 715 308 715 C180 715 92 646 92 540 C92 461 137 409 209 372 C124 334 65 271 65 176 C65 59 148 -13 304 -13 C460 -13 545 76 545 191 C545 292 486 348 397 386 L397 386 Z M179 540 C179 600 224 641 305 641 C387 641 432 598 432 539 C432 478 395 444 309 418 C223 449 179 478 179 540 L179 540 Z M304 61 C215 61 152 100 152 184 C152 264 212 306 294 339 C296 338 298 338 300 337 C405 303 461 267 461 185 C461 99 393 61 304 61 L304 61 Z " />
<glyph glyph-name="nine" unicode="9" horiz-adv-x="610" d="M287 715 C135 715 48 615 48 479 C48 331 145 263 262 263 C336 263 406 290 457 344 C453 137 379 69 254 69 C199 69 150 79 99 109 L99 23 C144 -3 199 -13 260 -13 C431 -13 549 84 549 365 C549 601 449 715 287 715 L287 715 Z M279 342 C199 342 138 385 138 484 C138 571 189 633 284 633 C382 633 443 569 455 419 C396 364 337 342 279 342 L279 342 Z " />
<glyph glyph-name="colon" unicode="&#x3a;" horiz-adv-x="258" d="M130 353 C165 353 191 381 191 415 C191 450 165 477 130 477 C96 477 67 450 67 415 C67 381 96 353 130 353 L130 353 Z M130 -11 C165 -11 191 18 191 52 C191 87 165 113 130 113 C96 113 67 87 67 52 C67 18 96 -11 130 -11 L130 -11 Z " />
<glyph glyph-name="semicolon" unicode="&#x3b;" horiz-adv-x="263" d="M128 353 C163 353 190 381 190 415 C190 450 163 477 128 477 C94 477 66 450 66 415 C66 381 94 353 128 353 L128 353 Z M69 -105 L100 -138 C159 -99 189 -36 189 27 C189 89 158 111 125 111 C91 111 69 90 69 58 C69 16 108 14 108 -37 C108 -68 90 -90 69 -105 L69 -105 Z " />
<glyph glyph-name="less" unicode="&#x3c;" horiz-adv-x="610" d="M523 398 L490 473 L79 278 L79 189 L486 -9 L522 68 L167 234 L523 398 Z " />
<glyph glyph-name="equal" unicode="&#x3d;" horiz-adv-x="610" d="M65 301 L545 301 L545 377 L65 377 L65 301 Z M65 91 L545 91 L545 167 L65 167 L65 91 Z " />
<glyph glyph-name="greater" unicode="&#x3e;" horiz-adv-x="610" d="M123 476 L87 399 L444 232 L86 69 L120 -7 L530 189 L530 277 L123 476 Z " />
<glyph glyph-name="question" unicode="&#x3f;" horiz-adv-x="441" d="M138 209 L223 209 C223 388 404 353 404 545 C404 651 330 715 191 715 C126 715 67 699 34 678 L34 600 C75 620 129 633 187 633 C273 633 311 591 311 536 C311 406 138 419 138 209 L138 209 Z M181 -11 C217 -11 244 18 244 53 C244 89 217 116 181 116 C146 116 117 89 117 53 C117 18 146 -11 181 -11 L181 -11 Z " />
<glyph glyph-name="at" unicode="&#x40;" horiz-adv-x="967" d="M496 666 C236 666 50 497 50 223 C50 -59 226 -214 489 -214 C539 -214 583 -206 622 -194 L602 -122 C570 -132 533 -138 490 -138 C279 -138 138 -15 138 223 C138 455 280 591 495 591 C692 591 825 466 825 259 C825 133 798 69 737 69 C692 69 681 107 681 145 L681 406 C645 433 580 456 505 456 C363 456 264 371 264 219 C264 86 341 12 449 12 C523 12 573 45 603 94 C612 39 649 -7 731 -7 C862 -7 913 104 913 259 C913 509 743 666 496 666 L496 666 Z M468 87 C395 87 354 141 354 226 C354 326 417 382 503 382 C541 382 569 376 597 363 L597 235 C597 145 545 87 468 87 L468 87 Z " />
<glyph glyph-name="A" unicode="A" horiz-adv-x="643" d="M532 0 L628 0 L371 700 L272 700 L15 0 L109 0 L178 200 L464 200 L532 0 Z M203 273 L321 617 L439 273 L203 273 Z " />
<glyph glyph-name="B" unicode="B" horiz-adv-x="603" d="M422 377 C484 407 518 460 518 524 C518 630 456 700 292 700 L96 700 L96 0 L304 0 C468 0 552 80 552 198 C552 298 504 354 422 377 L422 377 Z M293 628 C397 628 434 583 434 517 C434 450 386 398 291 398 L186 398 L186 628 L293 628 Z M305 72 L186 72 L186 325 L303 325 C426 325 465 272 465 195 C466 121 417 71 305 72 L305 72 Z " />
<glyph glyph-name="C" unicode="C" horiz-adv-x="605" d="M401 -13 C468 -13 522 -4 568 13 L568 94 C523 74 471 66 408 66 C246 66 148 147 148 352 C148 536 241 639 411 639 C472 639 516 632 560 616 L560 697 C516 709 470 715 403 715 C194 715 54 587 54 349 C54 103 182 -13 401 -13 L401 -13 Z " />
<glyph glyph-name="D" unicode="D" horiz-adv-x="726" d="M313 700 L96 700 L96 0 L318 0 C536 0 672 122 672 352 C672 583 536 700 313 700 L313 700 Z M318 76 L186 76 L183 624 L311 624 C480 624 579 532 579 352 C579 166 484 76 318 76 L318 76 Z " />
<glyph glyph-name="E" unicode="E" horiz-adv-x="565" d="M185 78 L185 321 L481 321 L481 400 L185 400 L185 623 L503 623 L503 700 L96 700 L96 0 L513 0 L513 78 L185 78 Z " />
<glyph glyph-name="F" unicode="F" horiz-adv-x="539" d="M504 623 L504 700 L96 700 L96 0 L185 0 L185 301 L478 301 L478 379 L185 379 L185 623 L504 623 Z " />
<glyph glyph-name="G" unicode="G" horiz-adv-x="687" d="M380 363 L380 285 L540 285 L540 76 C500 68 457 63 406 63 C242 63 146 160 146 351 C146 535 250 639 429 639 C508 639 553 631 605 614 L605 696 C550 709 502 715 434 715 C203 715 53 580 53 345 C53 105 195 -13 397 -13 C492 -13 559 -1 623 19 L623 363 L380 363 Z " />
<glyph glyph-name="H" unicode="H" horiz-adv-x="737" d="M551 700 L551 393 L186 393 L186 700 L96 700 L96 0 L186 0 L186 314 L551 314 L551 0 L641 0 L641 700 L551 700 Z " />
<glyph glyph-name="I" unicode="I" horiz-adv-x="281" d="M96 0 L185 0 L185 700 L96 700 L96 0 Z " />
<glyph glyph-name="J" unicode="J" horiz-adv-x="347" d="M21 -13 C156 -13 258 35 258 211 L258 700 L169 700 L169 211 C169 102 113 65 21 65 L21 -13 Z " />
<glyph glyph-name="K" unicode="K" horiz-adv-x="643" d="M96 0 L185 0 L185 700 L96 700 L96 0 Z M304 361 L625 700 L520 700 L194 354 L525 0 L637 0 L304 361 Z " />
<glyph glyph-name="L" unicode="L" horiz-adv-x="517" d="M185 78 L185 700 L96 700 L96 0 L503 0 L503 78 L185 78 Z " />
<glyph glyph-name="M" unicode="M" horiz-adv-x="867" d="M755 700 L662 700 L462 211 L437 136 L413 211 L212 700 L109 700 L84 0 L170 0 L183 459 L183 570 L396 41 L474 41 L682 560 L682 456 L700 0 L785 0 L755 700 Z " />
<glyph glyph-name="N" unicode="N" horiz-adv-x="726" d="M548 700 L548 191 L550 147 L170 700 L96 700 L96 0 L178 0 L178 509 L176 552 L557 0 L630 0 L630 700 L548 700 Z " />
<glyph glyph-name="O" unicode="O" horiz-adv-x="766" d="M382 -13 C577 -13 713 116 713 352 C713 590 583 715 385 715 C189 715 54 586 54 352 C54 113 183 -13 382 -13 L382 -13 Z M383 62 C239 62 147 157 147 352 C147 542 237 640 383 640 C527 640 619 542 619 352 C619 157 528 62 383 62 L383 62 Z " />
<glyph glyph-name="P" unicode="P" horiz-adv-x="576" d="M289 700 L96 700 L96 0 L185 0 L185 270 L285 270 C461 270 544 359 544 485 C544 618 465 700 289 700 L289 700 Z M288 347 L185 347 L185 623 L289 623 C410 623 456 566 456 485 C456 404 409 347 288 347 L288 347 Z " />
<glyph glyph-name="Q" unicode="Q" horiz-adv-x="766" d="M1023 -118 C731 -118 572 -65 473 -3 C618 32 713 155 713 352 C713 590 583 715 385 715 C189 715 54 586 54 352 C54 126 169 1 350 -12 C476 -107 675 -193 973 -200 L1023 -118 Z M147 352 C147 542 237 640 383 640 C527 640 619 542 619 352 C619 157 528 62 383 62 C239 62 147 157 147 352 L147 352 Z " />
<glyph glyph-name="R" unicode="R" horiz-adv-x="602" d="M569 0 L393 299 C482 329 535 400 535 495 C535 620 458 700 285 700 L96 700 L96 0 L185 0 L185 283 L287 283 L304 283 L469 0 L569 0 Z M286 358 L185 358 L185 624 L288 624 C398 624 444 571 444 492 C444 414 397 358 286 358 L286 358 Z " />
<glyph glyph-name="S" unicode="S" horiz-adv-x="551" d="M249 -13 C426 -13 506 80 506 201 C506 333 413 381 298 411 C197 437 146 461 146 534 C146 593 190 639 297 639 C362 639 425 623 473 597 L473 680 C427 702 371 715 296 715 C135 715 57 632 57 526 C57 407 150 358 258 332 C359 307 418 273 418 191 C418 104 349 63 245 63 C175 63 105 84 54 116 L54 29 C102 2 162 -13 249 -13 L249 -13 Z " />
<glyph glyph-name="T" unicode="T" horiz-adv-x="564" d="M549 700 L15 700 L15 620 L237 620 L237 0 L326 0 L326 620 L549 620 L549 700 Z " />
<glyph glyph-name="U" unicode="U" horiz-adv-x="713" d="M539 700 L539 266 C539 121 465 66 358 66 C250 66 178 128 178 266 L178 700 L88 700 L88 266 C88 70 200 -13 358 -13 C510 -13 625 68 625 266 L625 700 L539 700 Z " />
<glyph glyph-name="V" unicode="V" horiz-adv-x="634" d="M528 700 L345 178 L320 93 L295 178 L114 700 L16 700 L268 0 L365 0 L618 700 L528 700 Z " />
<glyph glyph-name="W" unicode="W" horiz-adv-x="917" d="M806 700 L652 144 L641 89 L630 144 L478 700 L389 700 L424 578 L300 144 L289 87 L278 144 L116 700 L18 700 L240 0 L334 0 L462 445 L590 0 L684 0 L899 700 L806 700 Z " />
<glyph glyph-name="X" unicode="X" horiz-adv-x="612" d="M602 0 L363 361 L584 700 L488 700 L311 422 L128 700 L28 700 L253 363 L10 0 L107 0 L305 299 L503 0 L602 0 Z " />
<glyph glyph-name="Y" unicode="Y" horiz-adv-x="617" d="M601 700 L500 700 L311 379 L122 700 L16 700 L265 298 L265 0 L354 0 L354 304 L601 700 Z " />
<glyph glyph-name="Z" unicode="Z" horiz-adv-x="609" d="M143 76 L557 631 L557 700 L46 700 L46 624 L454 624 L40 70 L40 0 L574 0 L574 76 L143 76 Z " />
<glyph glyph-name="bracketleft" unicode="&#x5b;" horiz-adv-x="288" d="M242 632 L242 708 L90 708 L90 -122 L241 -122 L241 -46 L170 -46 L170 632 L242 632 Z " />
<glyph glyph-name="backslash" unicode="&#x5c;" horiz-adv-x="361" d="M325 -120 L121 700 L35 700 L239 -120 L325 -120 Z " />
<glyph glyph-name="bracketright" unicode="&#x5d;" horiz-adv-x="288" d="M198 708 L46 708 L46 632 L118 632 L118 -46 L47 -46 L47 -122 L198 -122 L198 708 Z " />
<glyph glyph-name="asciicircum" unicode="&#x5e;" horiz-adv-x="408" d="M366 418 L204 679 L42 418 L112 375 L203 532 L297 374 L366 418 Z " />
<glyph glyph-name="underscore" unicode="&#x5f;" horiz-adv-x="426" d="M20 -111 L406 -111 L406 -41 L20 -41 L20 -111 Z " />
<glyph glyph-name="grave" unicode="&#x60;" horiz-adv-x="271" d="M212 543 L258 588 L88 740 L17 673 L212 543 Z " />
<glyph glyph-name="a" unicode="a" horiz-adv-x="509" d="M452 68 C437 68 426 76 426 98 L427 302 C427 431 361 491 233 491 C170 491 113 476 72 454 L72 380 C114 404 164 417 218 417 C303 417 340 377 340 302 L340 266 C308 272 275 274 240 274 C105 274 40 215 40 125 C40 40 98 -12 186 -12 C260 -12 315 19 348 71 C349 22 374 -3 429 -3 C449 -3 466 1 484 7 L484 74 C473 70 461 68 452 68 L452 68 Z M207 55 C159 55 124 79 124 130 C124 184 165 214 245 214 C276 214 308 212 340 208 L340 176 C338 125 290 55 207 55 L207 55 Z " />
<glyph glyph-name="b" unicode="b" horiz-adv-x="555" d="M312 491 C242 491 195 463 164 421 L164 720 L77 720 L77 0 L144 0 L153 31 C182 6 225 -11 284 -11 C417 -11 506 79 506 249 C506 406 432 491 312 491 L312 491 Z M274 61 C226 61 189 78 165 105 L165 284 C171 363 220 415 292 415 C377 415 417 349 417 241 C417 122 367 61 274 61 L274 61 Z " />
<glyph glyph-name="c" unicode="c" horiz-adv-x="454" d="M275 -12 C335 -12 376 0 414 23 L414 102 C378 77 343 64 291 64 C197 64 137 120 137 235 C137 359 205 416 295 416 C341 416 367 409 404 391 L404 470 C375 485 333 491 289 491 C150 491 47 403 47 232 C47 72 137 -12 275 -12 L275 -12 Z " />
<glyph glyph-name="d" unicode="d" horiz-adv-x="553" d="M388 720 L388 474 C361 484 328 491 289 491 C150 491 48 400 48 222 C48 67 129 -11 241 -11 C315 -11 363 19 392 67 L399 0 L476 0 L476 720 L388 720 Z M261 64 C180 64 138 126 138 231 C138 358 202 418 290 418 C330 418 359 411 388 396 L388 211 C388 118 338 64 261 64 L261 64 Z " />
<glyph glyph-name="e" unicode="e" horiz-adv-x="507" d="M463 290 C463 418 390 491 269 491 C139 491 48 397 48 231 C48 67 136 -12 291 -12 C347 -12 405 1 446 23 L446 95 C395 70 354 61 299 61 C207 61 151 103 139 194 L461 259 C462 270 463 284 463 290 L463 290 Z M269 422 C340 422 374 378 379 308 L137 259 C142 369 190 422 269 422 L269 422 Z " />
<glyph glyph-name="f" unicode="f" horiz-adv-x="329" d="M285 652 C310 652 325 650 346 644 L346 716 C328 724 302 728 273 728 C189 728 105 689 105 536 L105 479 L28 479 L28 408 L105 408 L105 0 L193 0 L193 408 L309 408 L309 480 L193 480 L193 545 C193 630 232 652 285 652 L285 652 Z " />
<glyph glyph-name="g" unicode="g" horiz-adv-x="519" d="M328 92 L194 92 C155 92 135 104 135 128 C135 152 160 167 210 167 L251 167 C368 167 444 226 444 327 C444 371 427 403 400 428 L484 427 L484 502 L327 481 C306 488 279 491 251 491 C137 491 59 430 59 329 C59 266 85 222 129 196 C83 182 56 156 56 112 C56 70 80 45 117 32 C70 13 38 -22 38 -72 C38 -155 110 -191 247 -191 C400 -191 491 -135 491 -35 C491 54 433 92 328 92 L328 92 Z M251 425 C318 425 359 389 359 329 C359 268 318 232 251 232 C184 232 143 268 143 329 C143 389 184 425 251 425 L251 425 Z M253 -127 C161 -127 119 -107 119 -55 C119 -9 159 19 230 19 L325 19 C381 19 408 -4 408 -44 C408 -94 366 -127 253 -127 L253 -127 Z " />
<glyph glyph-name="h" unicode="h" horiz-adv-x="558" d="M322 491 C250 491 196 457 164 410 L165 436 L165 720 L77 720 L77 0 L165 0 L165 265 C165 352 222 413 299 413 C363 413 399 377 399 297 L399 0 L486 0 L486 309 C486 432 429 491 322 491 L322 491 Z " />
<glyph glyph-name="i" unicode="i" horiz-adv-x="244" d="M122 585 C158 585 184 611 184 646 C184 680 158 705 122 705 C85 705 59 680 59 646 C59 611 85 585 122 585 L122 585 Z M78 0 L166 0 L166 480 L78 480 L78 0 Z " />
<glyph glyph-name="j" unicode="j" horiz-adv-x="251" d="M130 585 C166 585 192 611 192 646 C192 680 166 705 130 705 C93 705 67 680 67 646 C67 611 93 585 130 585 L130 585 Z M41 -185 C109 -185 173 -157 173 -33 L173 480 L85 480 L85 -31 C85 -98 60 -112 22 -112 C3 -112 -11 -109 -31 -100 L-31 -171 C-8 -182 9 -185 41 -185 L41 -185 Z " />
<glyph glyph-name="k" unicode="k" horiz-adv-x="503" d="M77 0 L165 0 L165 720 L77 720 L77 0 Z M384 0 L495 0 L279 255 L474 480 L370 480 L176 247 L384 0 Z " />
<glyph glyph-name="l" unicode="l" horiz-adv-x="244" d="M78 0 L166 0 L166 720 L78 720 L78 0 Z " />
<glyph glyph-name="m" unicode="m" horiz-adv-x="860" d="M629 491 C551 491 495 449 465 394 C444 459 394 491 317 491 C246 491 193 456 161 408 L154 480 L77 480 L77 0 L165 0 L165 265 C165 352 220 413 295 413 C356 413 389 380 389 298 L389 0 L476 0 L476 265 C476 352 532 413 607 413 C667 413 700 379 700 297 L700 0 L788 0 L788 310 C788 433 732 491 629 491 L629 491 Z " />
<glyph glyph-name="n" unicode="n" horiz-adv-x="558" d="M323 491 C248 491 194 455 161 406 L154 480 L77 480 L77 0 L165 0 L165 269 C165 350 222 413 301 413 C361 413 399 380 399 298 L399 0 L486 0 L486 310 C486 431 430 491 323 491 L323 491 Z " />
<glyph glyph-name="o" unicode="o" horiz-adv-x="552" d="M276 -13 C412 -13 505 77 505 242 C505 411 413 491 276 491 C140 491 48 400 48 236 C48 67 139 -13 276 -13 L276 -13 Z M277 58 C190 58 138 119 138 239 C138 357 188 421 276 421 C361 421 415 358 415 239 C415 119 363 58 277 58 L277 58 Z " />
<glyph glyph-name="p" unicode="p" horiz-adv-x="554" d="M314 491 C244 491 192 463 160 413 L154 480 L77 480 L77 -180 L165 -180 L165 12 C195 -3 234 -12 283 -12 C411 -12 506 74 506 261 C506 409 430 491 314 491 L314 491 Z M273 61 C223 61 190 73 165 91 L165 269 C165 353 210 415 291 415 C375 415 416 356 416 249 C416 120 363 61 273 61 L273 61 Z " />
<glyph glyph-name="q" unicode="q" horiz-adv-x="554" d="M410 480 L401 450 C373 475 331 491 275 491 C138 491 48 393 48 222 C48 67 126 -11 247 -11 C314 -11 360 15 389 55 L389 -180 L477 -180 L477 480 L410 480 Z M264 65 C179 65 137 124 137 231 C137 350 195 419 285 419 C330 419 366 402 389 375 L389 191 C382 116 333 65 264 65 L264 65 Z " />
<glyph glyph-name="r" unicode="r" horiz-adv-x="365" d="M313 491 C245 491 192 458 161 404 L154 480 L77 480 L77 0 L165 0 L165 233 C165 346 225 407 305 407 C322 407 336 405 348 402 L348 487 C338 490 326 491 313 491 L313 491 Z " />
<glyph glyph-name="s" unicode="s" horiz-adv-x="448" d="M206 -12 C342 -12 405 47 405 137 C405 225 351 264 252 284 C150 306 130 316 130 357 C130 399 167 421 239 421 C287 421 337 411 381 387 L381 463 C341 481 295 491 233 491 C113 491 51 434 51 353 C51 267 105 234 205 215 C297 197 325 177 325 130 C325 82 284 58 203 58 C149 58 93 73 49 96 L49 18 C90 -2 142 -12 206 -12 L206 -12 Z " />
<glyph glyph-name="t" unicode="t" horiz-adv-x="389" d="M296 64 C248 64 211 82 211 155 L211 408 L357 408 L357 480 L211 480 L211 599 L126 599 L126 480 L19 480 L19 408 L124 408 L124 143 C124 23 202 -9 285 -9 C320 -9 346 -5 364 4 L364 75 C340 66 325 64 296 64 L296 64 Z " />
<glyph glyph-name="u" unicode="u" horiz-adv-x="555" d="M391 480 L391 215 C391 128 334 67 258 67 C195 67 160 100 160 182 L160 480 L72 480 L72 169 C72 48 130 -11 235 -11 C308 -11 363 26 394 75 L401 0 L478 0 L478 480 L391 480 Z " />
<glyph glyph-name="v" unicode="v" horiz-adv-x="497" d="M386 480 L263 125 L252 88 L242 124 L118 480 L20 480 L201 0 L296 0 L478 480 L386 480 Z " />
<glyph glyph-name="w" unicode="w" horiz-adv-x="742" d="M632 480 L528 105 L523 78 L517 105 L418 480 L332 480 L229 106 L224 79 L218 106 L117 480 L20 480 L174 0 L273 0 L355 281 L374 364 L393 281 L473 0 L569 0 L722 480 L632 480 Z " />
<glyph glyph-name="x" unicode="x" horiz-adv-x="482" d="M468 0 L294 252 L449 480 L356 480 L244 307 L131 480 L31 480 L187 246 L17 0 L111 0 L238 193 L368 0 L468 0 Z " />
<glyph glyph-name="y" unicode="y" horiz-adv-x="490" d="M380 480 L250 89 L116 480 L20 480 L199 0 L220 0 L203 -51 C187 -101 156 -117 117 -117 C92 -117 80 -114 71 -111 L71 -185 C80 -187 93 -190 122 -190 C188 -190 242 -163 269 -85 L470 480 L380 480 Z " />
<glyph glyph-name="z" unicode="z" horiz-adv-x="476" d="M147 71 L424 420 L424 480 L45 480 L45 409 L317 409 L41 59 L41 0 L438 0 L438 71 L147 71 Z " />
<glyph glyph-name="braceleft" unicode="&#x7b;" horiz-adv-x="305" d="M189 -122 L258 -122 L258 -46 L220 -46 C198 -46 186 -34 186 -13 L186 235 C186 261 176 281 158 293 C176 305 186 325 186 351 L186 599 C186 620 198 632 220 632 L258 632 L258 708 L189 708 C146 708 107 678 107 623 L107 364 C107 343 97 331 75 331 L37 331 L37 255 L75 255 C97 255 107 243 107 222 L107 -38 C107 -92 146 -122 189 -122 L189 -122 Z " />
<glyph glyph-name="bar" unicode="&#x7c;" horiz-adv-x="263" d="M90 -200 L173 -200 L173 750 L90 750 L90 -200 Z " />
<glyph glyph-name="braceright" unicode="&#x7d;" horiz-adv-x="305" d="M116 708 L47 708 L47 632 L85 632 C107 632 118 620 118 599 L118 351 C118 324 128 305 147 293 C128 280 118 261 118 234 L118 -13 C118 -34 107 -46 85 -46 L47 -46 L47 -122 L116 -122 C159 -122 198 -92 198 -38 L198 221 C198 243 208 255 230 255 L268 255 L268 330 L230 330 C208 330 198 343 198 364 L198 623 C198 678 159 708 116 708 L116 708 Z " />
<glyph glyph-name="asciitilde" unicode="&#x7e;" horiz-adv-x="610" d="M397 171 C464 171 510 205 516 275 L448 290 C444 257 421 249 399 249 C346 249 271 289 209 289 C144 289 100 250 94 187 L157 171 C161 199 179 211 206 211 C268 211 344 171 397 171 L397 171 Z " />
<glyph glyph-name="exclamdown" unicode="&#xa1;" horiz-adv-x="248" d="M124 527 C89 527 63 498 63 464 C63 429 89 403 124 403 C159 403 187 429 187 464 C187 498 159 527 124 527 L124 527 Z M156 321 L92 321 C88 245 79 -9 79 -194 L168 -194 C168 -29 160 245 156 321 L156 321 Z " />
<glyph glyph-name="cent" unicode="&#xa2;" horiz-adv-x="610" d="M492 181 C455 157 415 144 362 144 C267 144 206 201 206 315 C206 440 272 495 368 495 C419 495 449 486 484 469 L484 546 C456 561 421 568 381 569 L381 638 L306 638 L306 566 C197 546 117 462 117 312 C117 163 196 86 306 71 L306 0 L381 0 L381 69 C422 73 458 83 492 104 L492 181 Z " />
<glyph glyph-name="sterling" unicode="&#xa3;" horiz-adv-x="610" d="M219 79 L202 77 C231 115 249 161 249 224 C249 253 245 281 239 307 L462 307 L462 382 L219 382 C208 421 198 460 198 502 C198 584 257 637 365 637 C431 637 485 625 528 599 L528 680 C489 702 433 715 360 715 C207 715 111 631 111 504 C111 459 121 420 132 382 L69 382 L69 307 L154 307 C161 280 166 252 166 221 C166 154 143 108 104 69 L104 0 L544 0 L544 79 L219 79 Z " />
<glyph glyph-name="currency" unicode="&#xa4;" horiz-adv-x="610" d="M522 339 C522 386 508 428 484 463 L543 522 L490 575 L431 517 C396 541 354 555 308 555 C260 555 216 540 180 515 L119 575 L66 522 L127 461 C104 426 91 385 91 339 C91 292 105 249 129 214 L67 152 L120 100 L182 162 C217 138 260 124 308 124 C353 124 394 137 428 160 L489 100 L542 152 L482 212 C507 247 522 291 522 339 L522 339 Z M307 203 C225 203 174 261 174 339 C174 418 225 475 307 475 C388 475 438 418 438 339 C438 261 388 203 307 203 L307 203 Z " />
<glyph glyph-name="yen" unicode="&#xa5;" horiz-adv-x="610" d="M566 700 L471 700 L306 373 L143 700 L44 700 L242 337 L112 337 L112 276 L260 276 L260 179 L112 179 L112 117 L260 117 L260 0 L348 0 L348 117 L498 117 L498 179 L348 179 L348 276 L498 276 L498 337 L364 337 L566 700 Z " />
<glyph glyph-name="brokenbar" unicode="&#xa6;" horiz-adv-x="263" d="M90 399 L173 399 L173 750 L90 750 L90 399 Z M173 151 L90 151 L90 -200 L173 -200 L173 151 Z " />
<glyph glyph-name="section" unicode="&#xa7;" horiz-adv-x="507" d="M225 160 C245 160 259 164 272 175 L174 364 C141 429 127 467 127 519 C127 588 170 645 270 645 C329 645 379 631 415 610 L415 688 C382 707 333 718 270 718 C124 718 46 633 46 513 C46 444 70 387 115 296 L164 197 C176 173 198 160 225 160 L225 160 Z M236 -41 C382 -41 461 45 461 159 C461 228 438 290 392 382 L342 480 C330 504 311 517 280 517 C264 517 248 513 235 503 L333 315 C366 250 381 211 381 158 C381 90 338 32 236 32 C176 32 127 46 91 67 L91 -12 C124 -30 174 -41 236 -41 L236 -41 Z " />
<glyph glyph-name="dieresis" unicode="&#xa8;" horiz-adv-x="356" d="M75 590 C110 590 133 613 133 646 C133 679 110 702 75 702 C40 702 16 679 16 646 C16 613 40 590 75 590 L75 590 Z M286 590 C320 590 344 613 344 646 C344 679 320 702 286 702 C250 702 227 679 227 646 C227 613 250 590 286 590 L286 590 Z " />
<glyph glyph-name="copyright" unicode="&#xa9;" horiz-adv-x="865" d="M434 -63 C655 -63 816 100 816 325 C816 548 655 712 434 712 C211 712 50 548 50 325 C50 100 211 -63 434 -63 L434 -63 Z M434 6 C254 6 124 140 124 326 C124 510 254 643 434 643 C612 643 741 510 741 326 C741 140 612 6 434 6 L434 6 Z M447 101 C493 101 535 110 578 131 L578 198 C542 177 503 167 456 167 C356 167 301 225 301 327 C301 434 362 485 451 485 C506 485 535 475 577 454 L577 522 C543 542 506 551 446 551 C313 551 222 464 222 324 C222 176 309 101 447 101 L447 101 Z " />
<glyph glyph-name="ordfeminine" unicode="&#xaa;" horiz-adv-x="433" d="M363 460 C352 460 343 466 343 480 L344 617 C344 720 293 759 195 759 C150 759 105 748 73 731 L73 671 C105 686 145 695 184 695 C244 695 268 675 268 616 L268 599 L201 599 C96 599 49 557 49 491 C49 428 91 391 159 391 C212 391 249 412 273 447 C275 412 299 396 338 396 C356 396 370 398 386 403 L386 464 C377 461 371 460 363 460 L363 460 Z M178 450 C144 450 124 467 124 497 C124 529 146 550 200 550 L268 550 L268 530 C268 485 226 450 178 450 L178 450 Z " />
<glyph glyph-name="guillemotleft" unicode="&#xab;" horiz-adv-x="488" d="M182 72 L244 119 L135 260 L243 398 L184 445 L39 257 L182 72 Z M371 72 L432 119 L323 260 L431 398 L372 445 L227 257 L371 72 Z " />
<glyph glyph-name="uni00AD" unicode="&#xad;" horiz-adv-x="438" d="M68 297 L68 215 L371 215 L371 297 L68 297 Z " />
<glyph glyph-name="registered" unicode="&#xae;" horiz-adv-x="550" d="M276 282 C406 282 503 380 503 512 C503 644 406 742 276 742 C143 742 48 644 48 512 C48 380 143 282 276 282 L276 282 Z M276 333 C173 333 101 408 101 512 C101 616 173 691 276 691 C376 691 449 616 449 512 C449 408 376 333 276 333 L276 333 Z M179 376 L232 376 L232 479 L267 479 L322 376 L381 376 L318 486 C356 499 376 528 376 567 C376 617 342 653 271 653 L179 653 L179 376 Z M232 519 L232 609 L269 609 C306 609 321 589 321 565 C321 536 302 519 266 519 L232 519 Z " />
<glyph glyph-name="macron" unicode="&#xaf;" horiz-adv-x="318" d="M18 596 L305 596 L305 673 L18 673 L18 596 Z " />
<glyph glyph-name="degree" unicode="&#xb0;" horiz-adv-x="384" d="M192 442 C276 442 337 503 337 588 C337 672 276 735 192 735 C107 735 46 672 46 588 C46 503 107 442 192 442 L192 442 Z M192 506 C145 506 113 541 113 588 C113 636 145 671 192 671 C237 671 270 636 270 588 C270 541 237 506 192 506 L192 506 Z " />
<glyph glyph-name="plusminus" unicode="&#xb1;" horiz-adv-x="610" d="M545 236 L545 317 L346 317 L346 480 L264 480 L264 317 L65 317 L65 236 L264 236 L264 81 L65 81 L65 0 L545 0 L545 81 L346 81 L346 236 L545 236 Z " />
<glyph glyph-name="uni00B2" unicode="&#xb2;" horiz-adv-x="453" d="M65 254 L395 254 L395 335 L235 335 L197 332 C327 403 374 465 374 557 C374 647 318 707 194 707 C143 707 102 698 64 682 L64 605 C93 620 133 630 180 630 C241 630 286 606 286 542 C286 456 196 398 65 323 L65 254 Z " />
<glyph glyph-name="uni00B3" unicode="&#xb3;" horiz-adv-x="429" d="M194 245 C322 245 377 307 377 385 C377 448 347 483 289 502 C334 522 354 556 354 592 C354 651 313 707 196 707 C147 707 106 699 68 682 L68 604 C99 620 135 631 188 631 C244 631 269 612 269 576 C269 538 232 521 158 521 L158 451 C245 451 299 444 299 386 C299 343 260 319 187 319 C134 319 92 333 60 354 L60 271 C96 253 136 245 194 245 L194 245 Z " />
<glyph glyph-name="acute" unicode="&#xb4;" horiz-adv-x="271" d="M63 543 L258 673 L187 740 L18 588 L63 543 Z " />
<glyph glyph-name="paragraph" unicode="&#xb6;" horiz-adv-x="481" d="M434 700 L219 700 C116 700 37 634 37 526 C37 418 116 352 219 352 L219 636 L288 636 L288 192 C288 106 257 65 185 65 C161 65 139 67 115 74 L115 4 C137 -5 168 -7 193 -7 C300 -7 368 51 368 184 L368 636 L434 636 L434 700 Z " />
<glyph glyph-name="periodcentered" unicode="&#xb7;" horiz-adv-x="246" d="M123 294 C158 294 184 322 184 356 C184 391 158 418 123 418 C90 418 61 391 61 356 C61 322 90 294 123 294 L123 294 Z " />
<glyph glyph-name="cedilla" unicode="&#xb8;" horiz-adv-x="190" d="M30 -85 C90 -85 104 -98 104 -125 C104 -155 79 -165 12 -165 L24 -219 C126 -219 181 -189 181 -121 C181 -68 151 -45 94 -42 L98 0 L45 0 L30 -85 Z " />
<glyph glyph-name="uni00B9" unicode="&#xb9;" horiz-adv-x="308" d="M150 259 L234 259 L234 700 L159 700 L18 627 L56 556 L151 603 L150 582 L150 259 Z " />
<glyph glyph-name="ordmasculine" unicode="&#xba;" horiz-adv-x="445" d="M222 391 C325 391 398 457 398 577 C398 701 330 759 224 759 C120 759 47 692 47 572 C47 448 116 391 222 391 L222 391 Z M223 455 C163 455 128 495 128 574 C128 652 162 695 223 695 C282 695 318 654 318 575 C318 496 282 455 223 455 L223 455 Z " />
<glyph glyph-name="guillemotright" unicode="&#xbb;" horiz-adv-x="489" d="M118 445 L56 397 L165 256 L57 118 L116 72 L261 259 L118 445 Z M306 445 L245 397 L354 256 L245 118 L305 72 L450 259 L306 445 Z " />
<glyph glyph-name="onequarter" unicode="&#xbc;" horiz-adv-x="944" d="M158 259 L242 259 L242 700 L168 700 L26 627 L64 556 L159 603 L158 582 L158 259 Z M190 0 L286 0 L721 700 L625 700 L190 0 Z M760 0 L842 0 L842 89 L904 89 L904 158 L842 158 L842 441 L766 441 C685 360 598 250 527 157 L527 88 L760 89 L760 0 Z M613 158 C656 214 713 283 760 336 L760 158 L613 158 Z " />
<glyph glyph-name="onehalf" unicode="&#xbd;" horiz-adv-x="940" d="M159 259 L243 259 L243 700 L168 700 L26 627 L65 556 L160 603 L159 582 L159 259 Z M163 0 L259 0 L695 700 L599 700 L163 0 Z M568 0 L898 0 L898 81 L738 81 L700 79 C829 150 876 211 876 303 C876 394 820 454 697 454 C646 454 604 444 566 428 L566 351 C595 367 636 376 683 376 C743 376 789 352 789 289 C789 202 699 144 568 69 L568 0 Z " />
<glyph glyph-name="threequarters" unicode="&#xbe;" horiz-adv-x="929" d="M182 245 C310 245 365 307 365 385 C365 448 335 483 277 502 C322 522 342 556 342 592 C342 651 301 707 184 707 C135 707 94 699 56 682 L56 604 C87 620 123 631 176 631 C232 631 257 612 257 576 C257 538 220 521 146 521 L146 451 C233 451 287 444 287 386 C287 343 248 319 175 319 C122 319 80 333 48 354 L48 271 C84 253 124 245 182 245 L182 245 Z M232 0 L328 0 L763 700 L667 700 L232 0 Z M752 0 L834 0 L834 89 L896 89 L896 158 L834 158 L834 441 L758 441 C676 360 589 250 518 157 L518 88 L752 89 L752 0 Z M604 158 C647 214 705 283 752 336 L752 158 L604 158 Z " />
<glyph glyph-name="questiondown" unicode="&#xbf;" horiz-adv-x="435" d="M257 535 C221 535 194 506 194 471 C194 435 221 408 257 408 C292 408 321 435 321 471 C321 506 292 535 257 535 L257 535 Z M300 315 L215 315 C215 136 34 171 34 -21 C34 -127 108 -191 247 -191 C312 -191 371 -175 404 -154 L404 -76 C363 -96 309 -109 251 -109 C165 -109 127 -68 127 -12 C127 118 300 105 300 315 L300 315 Z " />
<glyph glyph-name="Agrave" unicode="&#xc0;" horiz-adv-x="643" d="M441 804 L248 909 L194 830 L408 754 L441 804 Z M532 0 L628 0 L371 700 L272 700 L15 0 L109 0 L178 200 L464 200 L532 0 Z M203 273 L321 617 L439 273 L203 273 Z " />
<glyph glyph-name="Aacute" unicode="&#xc1;" horiz-adv-x="643" d="M441 830 L386 909 L194 804 L227 754 L441 830 Z M532 0 L628 0 L371 700 L272 700 L15 0 L109 0 L178 200 L464 200 L532 0 Z M203 273 L321 617 L439 273 L203 273 Z " />
<glyph glyph-name="Acircumflex" unicode="&#xc2;" horiz-adv-x="643" d="M322 825 L425 738 L474 774 L322 930 L171 774 L219 738 L322 825 Z M532 0 L628 0 L371 700 L272 700 L15 0 L109 0 L178 200 L464 200 L532 0 Z M203 273 L321 617 L439 273 L203 273 Z " />
<glyph glyph-name="Atilde" unicode="&#xc3;" horiz-adv-x="643" d="M259 829 C300 829 337 785 389 785 C443 785 480 819 490 887 L430 904 C425 869 411 856 389 856 C349 856 312 901 256 901 C203 901 164 863 154 800 L215 783 C220 815 237 829 259 829 L259 829 Z M532 0 L628 0 L371 700 L272 700 L15 0 L109 0 L178 200 L464 200 L532 0 Z M203 273 L321 617 L439 273 L203 273 Z " />
<glyph glyph-name="Adieresis" unicode="&#xc4;" horiz-adv-x="643" d="M217 790 C250 790 274 813 274 845 C274 877 250 900 217 900 C182 900 159 877 159 845 C159 813 182 790 217 790 L217 790 Z M428 790 C462 790 485 813 485 845 C485 877 462 900 428 900 C394 900 371 877 371 845 C371 813 394 790 428 790 L428 790 Z M532 0 L628 0 L371 700 L272 700 L15 0 L109 0 L178 200 L464 200 L532 0 Z M203 273 L321 617 L439 273 L203 273 Z " />
<glyph glyph-name="Aring" unicode="&#xc5;" horiz-adv-x="643" d="M323 734 C380 734 427 776 427 837 C427 897 380 939 323 939 C264 939 217 897 217 837 C217 776 264 734 323 734 L323 734 Z M323 885 C348 885 367 866 367 836 C367 806 348 787 323 787 C297 787 278 806 278 836 C278 866 297 885 323 885 L323 885 Z M532 0 L628 0 L371 700 L272 700 L15 0 L109 0 L178 200 L464 200 L532 0 Z M203 273 L321 617 L439 273 L203 273 Z " />
<glyph glyph-name="AE" unicode="&#xc6;" horiz-adv-x="856" d="M515 78 L493 321 L759 321 L759 400 L486 400 L465 623 L764 623 L764 700 L370 700 L-10 0 L83 0 L177 182 L418 182 L435 0 L830 0 L830 78 L515 78 Z M215 255 L382 577 L412 255 L215 255 Z " />
<glyph glyph-name="Ccedilla" unicode="&#xc7;" horiz-adv-x="605" d="M568 13 L568 94 C523 74 471 66 408 66 C246 66 148 147 148 352 C148 536 241 639 411 639 C472 639 516 632 560 616 L560 697 C516 709 470 715 403 715 C194 715 54 587 54 349 C54 120 165 3 358 -11 L344 -85 C405 -85 419 -98 419 -125 C419 -155 393 -165 327 -165 L338 -219 C440 -219 496 -189 496 -121 C496 -68 465 -45 409 -42 L411 -13 C473 -12 524 -3 568 13 L568 13 Z " />
<glyph glyph-name="Egrave" unicode="&#xc8;" horiz-adv-x="565" d="M425 804 L233 909 L178 830 L392 754 L425 804 Z M185 78 L185 321 L481 321 L481 400 L185 400 L185 623 L503 623 L503 700 L96 700 L96 0 L513 0 L513 78 L185 78 Z " />
<glyph glyph-name="Eacute" unicode="&#xc9;" horiz-adv-x="565" d="M425 830 L371 909 L178 804 L211 754 L425 830 Z M185 78 L185 321 L481 321 L481 400 L185 400 L185 623 L503 623 L503 700 L96 700 L96 0 L513 0 L513 78 L185 78 Z " />
<glyph glyph-name="Ecircumflex" unicode="&#xca;" horiz-adv-x="565" d="M306 825 L410 738 L458 774 L307 930 L156 774 L203 738 L306 825 Z M185 78 L185 321 L481 321 L481 400 L185 400 L185 623 L503 623 L503 700 L96 700 L96 0 L513 0 L513 78 L185 78 Z " />
<glyph glyph-name="Edieresis" unicode="&#xcb;" horiz-adv-x="565" d="M201 790 C235 790 258 813 258 845 C258 877 235 900 201 900 C167 900 144 877 144 845 C144 813 167 790 201 790 L201 790 Z M413 790 C447 790 470 813 470 845 C470 877 447 900 413 900 C379 900 355 877 355 845 C355 813 379 790 413 790 L413 790 Z M185 78 L185 321 L481 321 L481 400 L185 400 L185 623 L503 623 L503 700 L96 700 L96 0 L513 0 L513 78 L185 78 Z " />
<glyph glyph-name="Igrave" unicode="&#xcc;" horiz-adv-x="281" d="M226 754 L259 804 L66 909 L12 830 L226 754 Z M96 0 L185 0 L185 700 L96 700 L96 0 Z " />
<glyph glyph-name="Iacute" unicode="&#xcd;" horiz-adv-x="281" d="M45 754 L259 830 L205 909 L12 804 L45 754 Z M96 0 L185 0 L185 700 L96 700 L96 0 Z " />
<glyph glyph-name="Icircumflex" unicode="&#xce;" horiz-adv-x="281" d="M140 930 L-11 774 L37 738 L140 825 L243 738 L292 774 L140 930 Z M96 0 L185 0 L185 700 L96 700 L96 0 Z " />
<glyph glyph-name="Idieresis" unicode="&#xcf;" horiz-adv-x="281" d="M35 790 C69 790 92 813 92 845 C92 877 69 900 35 900 C0 900 -23 877 -23 845 C-23 813 0 790 35 790 L35 790 Z M246 790 C280 790 303 813 303 845 C303 877 280 900 246 900 C213 900 189 877 189 845 C189 813 213 790 246 790 L246 790 Z M96 0 L185 0 L185 700 L96 700 L96 0 Z " />
<glyph glyph-name="Eth" unicode="&#xd0;" horiz-adv-x="740" d="M328 700 L110 700 L110 386 L19 386 L19 315 L110 315 L110 0 L332 0 C550 0 686 122 686 352 C686 583 550 700 328 700 L328 700 Z M332 76 L200 76 L199 315 L332 315 L332 386 L198 386 L197 624 L325 624 C494 624 593 532 593 352 C593 166 498 76 332 76 L332 76 Z " />
<glyph glyph-name="Ntilde" unicode="&#xd1;" horiz-adv-x="726" d="M302 829 C343 829 380 785 433 785 C486 785 523 819 534 887 L473 904 C468 869 454 856 432 856 C392 856 355 901 299 901 C246 901 207 863 198 800 L259 783 C263 815 280 829 302 829 L302 829 Z M548 700 L548 191 L550 147 L170 700 L96 700 L96 0 L178 0 L178 509 L176 552 L557 0 L630 0 L630 700 L548 700 Z " />
<glyph glyph-name="Ograve" unicode="&#xd2;" horiz-adv-x="766" d="M466 754 L499 804 L306 909 L252 830 L466 754 Z M382 -13 C577 -13 713 116 713 352 C713 590 583 715 385 715 C189 715 54 586 54 352 C54 113 183 -13 382 -13 L382 -13 Z M383 62 C239 62 147 157 147 352 C147 542 237 640 383 640 C527 640 619 542 619 352 C619 157 528 62 383 62 L383 62 Z " />
<glyph glyph-name="Oacute" unicode="&#xd3;" horiz-adv-x="766" d="M285 754 L499 830 L445 909 L252 804 L285 754 Z M382 -13 C577 -13 713 116 713 352 C713 590 583 715 385 715 C189 715 54 586 54 352 C54 113 183 -13 382 -13 L382 -13 Z M383 62 C239 62 147 157 147 352 C147 542 237 640 383 640 C527 640 619 542 619 352 C619 157 528 62 383 62 L383 62 Z " />
<glyph glyph-name="Ocircumflex" unicode="&#xd4;" horiz-adv-x="766" d="M380 825 L483 738 L532 774 L380 930 L229 774 L277 738 L380 825 Z M385 715 C189 715 54 586 54 352 C54 113 183 -13 382 -13 C577 -13 713 116 713 352 C713 590 583 715 385 715 L385 715 Z M383 62 C239 62 147 157 147 352 C147 542 237 640 383 640 C527 640 619 542 619 352 C619 157 528 62 383 62 L383 62 Z " />
<glyph glyph-name="Otilde" unicode="&#xd5;" horiz-adv-x="766" d="M447 785 C501 785 538 819 548 887 L488 904 C483 869 469 856 447 856 C407 856 370 901 314 901 C261 901 222 863 213 800 L273 783 C278 815 295 829 317 829 C358 829 395 785 447 785 L447 785 Z M382 -13 C577 -13 713 116 713 352 C713 590 583 715 385 715 C189 715 54 586 54 352 C54 113 183 -13 382 -13 L382 -13 Z M383 62 C239 62 147 157 147 352 C147 542 237 640 383 640 C527 640 619 542 619 352 C619 157 528 62 383 62 L383 62 Z " />
<glyph glyph-name="Odieresis" unicode="&#xd6;" horiz-adv-x="766" d="M275 790 C309 790 332 813 332 845 C332 877 309 900 275 900 C240 900 217 877 217 845 C217 813 240 790 275 790 L275 790 Z M486 790 C520 790 543 813 543 845 C543 877 520 900 486 900 C453 900 429 877 429 845 C429 813 453 790 486 790 L486 790 Z M382 -13 C577 -13 713 116 713 352 C713 590 583 715 385 715 C189 715 54 586 54 352 C54 113 183 -13 382 -13 L382 -13 Z M383 62 C239 62 147 157 147 352 C147 542 237 640 383 640 C527 640 619 542 619 352 C619 157 528 62 383 62 L383 62 Z " />
<glyph glyph-name="multiply" unicode="&#xd7;" horiz-adv-x="610" d="M504 100 L363 242 L503 382 L445 439 L305 299 L165 439 L106 381 L247 241 L106 100 L163 42 L304 183 L446 41 L504 100 Z " />
<glyph glyph-name="Oslash" unicode="&#xd8;" horiz-adv-x="773" d="M716 715 L627 715 L584 660 C531 696 465 715 388 715 C192 715 57 586 57 352 C57 238 86 150 139 89 L57 -16 L146 -16 L191 41 C243 5 309 -13 385 -13 C581 -13 716 116 716 352 C716 464 687 552 636 612 L716 715 Z M151 352 C151 542 240 640 387 640 C445 640 494 624 532 593 L195 161 C167 208 151 271 151 352 L151 352 Z M623 352 C623 157 532 62 387 62 C330 62 281 77 242 107 L579 539 C607 493 623 430 623 352 L623 352 Z " />
<glyph glyph-name="Ugrave" unicode="&#xd9;" horiz-adv-x="713" d="M475 804 L283 909 L228 830 L443 754 L475 804 Z M539 700 L539 266 C539 121 465 66 358 66 C250 66 178 128 178 266 L178 700 L88 700 L88 266 C88 70 200 -13 358 -13 C510 -13 625 68 625 266 L625 700 L539 700 Z " />
<glyph glyph-name="Uacute" unicode="&#xda;" horiz-adv-x="713" d="M475 830 L421 909 L229 804 L261 754 L475 830 Z M539 700 L539 266 C539 121 465 66 358 66 C250 66 178 128 178 266 L178 700 L88 700 L88 266 C88 70 200 -13 358 -13 C510 -13 625 68 625 266 L625 700 L539 700 Z " />
<glyph glyph-name="Ucircumflex" unicode="&#xdb;" horiz-adv-x="713" d="M356 825 L460 738 L508 774 L357 930 L206 774 L253 738 L356 825 Z M539 700 L539 266 C539 121 465 66 358 66 C250 66 178 128 178 266 L178 700 L88 700 L88 266 C88 70 200 -13 358 -13 C510 -13 625 68 625 266 L625 700 L539 700 Z " />
<glyph glyph-name="Udieresis" unicode="&#xdc;" horiz-adv-x="713" d="M252 790 C285 790 309 813 309 845 C309 877 285 900 252 900 C217 900 194 877 194 845 C194 813 217 790 252 790 L252 790 Z M463 790 C497 790 520 813 520 845 C520 877 497 900 463 900 C429 900 405 877 405 845 C405 813 429 790 463 790 L463 790 Z M539 700 L539 266 C539 121 465 66 358 66 C250 66 178 128 178 266 L178 700 L88 700 L88 266 C88 70 200 -13 358 -13 C510 -13 625 68 625 266 L625 700 L539 700 Z " />
<glyph glyph-name="Yacute" unicode="&#xdd;" horiz-adv-x="617" d="M425 830 L370 909 L178 804 L210 754 L425 830 Z M601 700 L500 700 L311 379 L122 700 L16 700 L265 298 L265 0 L354 0 L354 304 L601 700 Z " />
<glyph glyph-name="Thorn" unicode="&#xde;" horiz-adv-x="590" d="M289 567 L185 567 L185 700 L96 700 L96 0 L185 0 L185 138 L285 138 C461 138 544 226 544 352 C544 485 465 567 289 567 L289 567 Z M285 214 L185 214 L185 490 L286 490 C410 490 456 434 456 352 C456 272 409 214 285 214 L285 214 Z " />
<glyph glyph-name="germandbls" unicode="&#xdf;" horiz-adv-x="626" d="M474 291 C408 317 371 329 371 371 C371 451 520 452 519 595 C519 686 457 759 313 759 C179 759 77 683 77 513 L77 0 L165 0 L165 512 C165 644 229 683 315 683 C384 683 435 652 435 588 C435 486 283 492 283 360 C283 275 352 251 413 227 C480 202 513 185 513 134 C513 85 471 58 398 58 C327 58 278 77 246 96 L246 18 C285 -1 337 -12 396 -12 C507 -12 594 29 594 142 C594 232 538 266 474 291 L474 291 Z " />
<glyph glyph-name="agrave" unicode="&#xe0;" horiz-adv-x="509" d="M332 588 L163 740 L91 673 L286 543 L332 588 Z M452 68 C437 68 426 76 426 98 L427 302 C427 431 361 491 233 491 C170 491 113 476 72 454 L72 380 C114 404 164 417 218 417 C303 417 340 377 340 302 L340 266 C308 272 275 274 240 274 C105 274 40 215 40 125 C40 40 98 -12 186 -12 C260 -12 315 19 348 71 C349 22 374 -3 429 -3 C449 -3 466 1 484 7 L484 74 C473 70 461 68 452 68 L452 68 Z M207 55 C159 55 124 79 124 130 C124 184 165 214 245 214 C276 214 308 212 340 208 L340 176 C338 125 290 55 207 55 L207 55 Z " />
<glyph glyph-name="aacute" unicode="&#xe1;" horiz-adv-x="509" d="M362 673 L291 739 L122 587 L167 542 L362 673 Z M452 68 C437 68 426 76 426 98 L427 302 C427 431 361 491 233 491 C170 491 113 476 72 454 L72 380 C114 404 164 417 218 417 C303 417 340 377 340 302 L340 266 C308 272 275 274 240 274 C105 274 40 215 40 125 C40 40 98 -12 186 -12 C260 -12 315 19 348 71 C349 22 374 -3 429 -3 C449 -3 466 1 484 7 L484 74 C473 70 461 68 452 68 L452 68 Z M207 55 C159 55 124 79 124 130 C124 184 165 214 245 214 C276 214 308 212 340 208 L340 176 C338 125 290 55 207 55 L207 55 Z " />
<glyph glyph-name="acircumflex" unicode="&#xe2;" horiz-adv-x="509" d="M236 632 L340 542 L388 578 L236 739 L85 578 L131 542 L236 632 Z M452 68 C437 68 426 76 426 98 L427 302 C427 431 361 491 233 491 C170 491 113 476 72 454 L72 380 C114 404 164 417 218 417 C303 417 340 377 340 302 L340 266 C308 272 275 274 240 274 C105 274 40 215 40 125 C40 40 98 -12 186 -12 C260 -12 315 19 348 71 C349 22 374 -3 429 -3 C449 -3 466 1 484 7 L484 74 C473 70 461 68 452 68 L452 68 Z M207 55 C159 55 124 79 124 130 C124 184 165 214 245 214 C276 214 308 212 340 208 L340 176 C338 125 290 55 207 55 L207 55 Z " />
<glyph glyph-name="atilde" unicode="&#xe3;" horiz-adv-x="509" d="M185 628 C221 628 241 587 299 587 C344 587 389 620 396 689 L329 709 C324 673 310 663 288 663 C251 663 229 704 173 704 C125 704 82 667 75 606 L142 585 C145 614 162 628 185 628 L185 628 Z M452 68 C437 68 426 76 426 98 L427 302 C427 431 361 491 233 491 C170 491 113 476 72 454 L72 380 C114 404 164 417 218 417 C303 417 340 377 340 302 L340 266 C308 272 275 274 240 274 C105 274 40 215 40 125 C40 40 98 -12 186 -12 C260 -12 315 19 348 71 C349 22 374 -3 429 -3 C449 -3 466 1 484 7 L484 74 C473 70 461 68 452 68 L452 68 Z M207 55 C159 55 124 79 124 130 C124 184 165 214 245 214 C276 214 308 212 340 208 L340 176 C338 125 290 55 207 55 L207 55 Z " />
<glyph glyph-name="adieresis" unicode="&#xe4;" horiz-adv-x="509" d="M130 590 C166 590 189 613 189 646 C189 679 166 702 130 702 C95 702 71 679 71 646 C71 613 95 590 130 590 L130 590 Z M341 590 C376 590 399 613 399 646 C399 679 376 702 341 702 C306 702 282 679 282 646 C282 613 306 590 341 590 L341 590 Z M452 68 C437 68 426 76 426 98 L427 302 C427 431 361 491 233 491 C170 491 113 476 72 454 L72 380 C114 404 164 417 218 417 C303 417 340 377 340 302 L340 266 C308 272 275 274 240 274 C105 274 40 215 40 125 C40 40 98 -12 186 -12 C260 -12 315 19 348 71 C349 22 374 -3 429 -3 C449 -3 466 1 484 7 L484 74 C473 70 461 68 452 68 L452 68 Z M207 55 C159 55 124 79 124 130 C124 184 165 214 245 214 C276 214 308 212 340 208 L340 176 C338 125 290 55 207 55 L207 55 Z " />
<glyph glyph-name="aring" unicode="&#xe5;" horiz-adv-x="509" d="M236 539 C294 539 341 581 341 641 C341 701 294 743 236 743 C177 743 130 701 130 641 C130 581 177 539 236 539 L236 539 Z M237 690 C262 690 280 670 280 641 C280 611 262 592 237 592 C210 592 191 611 191 641 C191 670 210 690 237 690 L237 690 Z M452 68 C437 68 426 76 426 98 L427 302 C427 431 361 491 233 491 C170 491 113 476 72 454 L72 380 C114 404 164 417 218 417 C303 417 340 377 340 302 L340 266 C308 272 275 274 240 274 C105 274 40 215 40 125 C40 40 98 -12 186 -12 C260 -12 315 19 348 71 C349 22 374 -3 429 -3 C449 -3 466 1 484 7 L484 74 C473 70 461 68 452 68 L452 68 Z M207 55 C159 55 124 79 124 130 C124 184 165 214 245 214 C276 214 308 212 340 208 L340 176 C338 125 290 55 207 55 L207 55 Z " />
<glyph glyph-name="ae" unicode="&#xe6;" horiz-adv-x="794" d="M748 265 C748 414 675 491 555 491 C488 491 433 461 396 406 C369 464 313 491 229 491 C168 491 112 476 73 454 L73 380 C113 404 162 417 214 417 C299 417 336 377 336 302 L336 279 L237 279 C105 279 40 216 40 127 C40 41 99 -12 194 -12 C282 -12 348 37 374 102 C408 25 477 -12 575 -12 C627 -12 689 1 730 23 L730 95 C678 71 637 61 580 61 C485 61 430 110 424 219 L746 219 C748 234 748 245 748 265 L748 265 Z M554 422 C623 422 659 374 663 280 L426 280 C436 376 481 422 554 422 L554 422 Z M208 55 C160 55 124 80 124 131 C124 184 164 219 241 219 L336 219 L336 185 C335 113 281 55 208 55 L208 55 Z " />
<glyph glyph-name="ccedilla" unicode="&#xe7;" horiz-adv-x="454" d="M414 23 L414 102 C378 77 343 64 291 64 C197 64 137 120 137 235 C137 359 205 416 295 416 C341 416 367 409 404 391 L404 470 C375 485 333 491 289 491 C150 491 47 403 47 232 C47 88 120 5 235 -10 L222 -85 C282 -85 296 -98 296 -125 C296 -155 271 -165 204 -165 L216 -219 C318 -219 373 -189 373 -121 C373 -68 342 -45 286 -42 L288 -12 C341 -10 379 2 414 23 L414 23 Z " />
<glyph glyph-name="egrave" unicode="&#xe8;" horiz-adv-x="507" d="M366 588 L196 740 L125 673 L320 543 L366 588 Z M463 290 C463 418 390 491 269 491 C139 491 48 397 48 231 C48 67 136 -12 291 -12 C347 -12 405 1 446 23 L446 95 C395 70 354 61 299 61 C207 61 151 103 139 194 L461 259 C462 270 463 284 463 290 L463 290 Z M269 422 C340 422 374 378 379 308 L137 259 C142 369 190 422 269 422 L269 422 Z " />
<glyph glyph-name="eacute" unicode="&#xe9;" horiz-adv-x="507" d="M390 673 L320 739 L150 587 L196 542 L390 673 Z M463 290 C463 418 390 491 269 491 C139 491 48 397 48 231 C48 67 136 -12 291 -12 C347 -12 405 1 446 23 L446 95 C395 70 354 61 299 61 C207 61 151 103 139 194 L461 259 C462 270 463 284 463 290 L463 290 Z M269 422 C340 422 374 378 379 308 L137 259 C142 369 190 422 269 422 L269 422 Z " />
<glyph glyph-name="ecircumflex" unicode="&#xea;" horiz-adv-x="507" d="M264 632 L369 542 L416 578 L265 739 L114 578 L160 542 L264 632 Z M463 290 C463 418 390 491 269 491 C139 491 48 397 48 231 C48 67 136 -12 291 -12 C347 -12 405 1 446 23 L446 95 C395 70 354 61 299 61 C207 61 151 103 139 194 L461 259 C462 270 463 284 463 290 L463 290 Z M269 422 C340 422 374 378 379 308 L137 259 C142 369 190 422 269 422 L269 422 Z " />
<glyph glyph-name="edieresis" unicode="&#xeb;" horiz-adv-x="507" d="M160 590 C195 590 218 613 218 646 C218 679 195 702 160 702 C124 702 101 679 101 646 C101 613 124 590 160 590 L160 590 Z M371 590 C405 590 429 613 429 646 C429 679 405 702 371 702 C335 702 312 679 312 646 C312 613 335 590 371 590 L371 590 Z M463 290 C463 418 390 491 269 491 C139 491 48 397 48 231 C48 67 136 -12 291 -12 C347 -12 405 1 446 23 L446 95 C395 70 354 61 299 61 C207 61 151 103 139 194 L461 259 C462 270 463 284 463 290 L463 290 Z M269 422 C340 422 374 378 379 308 L137 259 C142 369 190 422 269 422 L269 422 Z " />
<glyph glyph-name="igrave" unicode="&#xec;" horiz-adv-x="244" d="M172 543 L218 588 L49 740 L-22 673 L172 543 Z M78 0 L166 0 L166 480 L78 480 L78 0 Z " />
<glyph glyph-name="iacute" unicode="&#xed;" horiz-adv-x="244" d="M53 542 L248 673 L177 739 L8 587 L53 542 Z M78 0 L166 0 L166 480 L78 480 L78 0 Z " />
<glyph glyph-name="icircumflex" unicode="&#xee;" horiz-adv-x="244" d="M122 739 L-29 578 L18 542 L122 632 L226 542 L274 578 L122 739 Z M78 0 L166 0 L166 480 L78 480 L78 0 Z " />
<glyph glyph-name="idieresis" unicode="&#xef;" horiz-adv-x="244" d="M17 590 C52 590 75 613 75 646 C75 679 52 702 17 702 C-19 702 -42 679 -42 646 C-42 613 -19 590 17 590 L17 590 Z M228 590 C262 590 285 613 285 646 C285 679 262 702 228 702 C192 702 169 679 169 646 C169 613 192 590 228 590 L228 590 Z M78 0 L166 0 L166 480 L78 480 L78 0 Z " />
<glyph glyph-name="eth" unicode="&#xf0;" horiz-adv-x="559" d="M399 612 L465 639 L465 716 L354 670 C339 688 323 704 306 720 L202 720 C233 693 259 666 282 639 L205 607 L205 531 L326 581 C350 544 369 507 382 469 C351 484 316 491 276 491 C140 491 48 402 48 237 C48 68 139 -13 271 -13 C411 -13 501 79 501 261 C501 410 459 523 399 612 L399 612 Z M276 58 C190 58 138 120 138 239 C138 357 190 421 281 421 C331 421 371 406 404 378 C411 336 414 291 414 243 C414 124 362 58 276 58 L276 58 Z " />
<glyph glyph-name="ntilde" unicode="&#xf1;" horiz-adv-x="558" d="M239 628 C274 628 295 587 353 587 C398 587 443 620 449 689 L383 709 C378 673 363 663 342 663 C305 663 282 704 227 704 C178 704 136 667 129 606 L195 585 C199 614 216 628 239 628 L239 628 Z M323 491 C248 491 194 455 161 406 L154 480 L77 480 L77 0 L165 0 L165 269 C165 350 222 413 301 413 C361 413 399 380 399 298 L399 0 L486 0 L486 310 C486 431 430 491 323 491 L323 491 Z " />
<glyph glyph-name="ograve" unicode="&#xf2;" horiz-adv-x="552" d="M328 543 L374 588 L204 740 L133 673 L328 543 Z M276 -13 C412 -13 505 77 505 242 C505 411 413 491 276 491 C140 491 48 400 48 236 C48 67 139 -13 276 -13 L276 -13 Z M277 58 C190 58 138 119 138 239 C138 357 188 421 276 421 C361 421 415 358 415 239 C415 119 363 58 277 58 L277 58 Z " />
<glyph glyph-name="oacute" unicode="&#xf3;" horiz-adv-x="552" d="M209 542 L404 673 L333 739 L163 587 L209 542 Z M276 -13 C412 -13 505 77 505 242 C505 411 413 491 276 491 C140 491 48 400 48 236 C48 67 139 -13 276 -13 L276 -13 Z M277 58 C190 58 138 119 138 239 C138 357 188 421 276 421 C361 421 415 358 415 239 C415 119 363 58 277 58 L277 58 Z " />
<glyph glyph-name="ocircumflex" unicode="&#xf4;" horiz-adv-x="552" d="M277 632 L382 542 L429 578 L278 739 L127 578 L173 542 L277 632 Z M276 491 C140 491 48 400 48 236 C48 67 139 -13 276 -13 C412 -13 505 77 505 242 C505 411 413 491 276 491 L276 491 Z M277 58 C190 58 138 119 138 239 C138 357 188 421 276 421 C361 421 415 358 415 239 C415 119 363 58 277 58 L277 58 Z " />
<glyph glyph-name="otilde" unicode="&#xf5;" horiz-adv-x="552" d="M341 587 C386 587 431 620 437 689 L371 709 C366 673 351 663 330 663 C293 663 270 704 215 704 C167 704 124 667 117 606 L183 585 C187 614 204 628 227 628 C263 628 283 587 341 587 L341 587 Z M276 -13 C412 -13 505 77 505 242 C505 411 413 491 276 491 C140 491 48 400 48 236 C48 67 139 -13 276 -13 L276 -13 Z M277 58 C190 58 138 119 138 239 C138 357 188 421 276 421 C361 421 415 358 415 239 C415 119 363 58 277 58 L277 58 Z " />
<glyph glyph-name="odieresis" unicode="&#xf6;" horiz-adv-x="552" d="M172 590 C208 590 231 613 231 646 C231 679 208 702 172 702 C137 702 113 679 113 646 C113 613 137 590 172 590 L172 590 Z M383 590 C418 590 441 613 441 646 C441 679 418 702 383 702 C348 702 324 679 324 646 C324 613 348 590 383 590 L383 590 Z M276 -13 C412 -13 505 77 505 242 C505 411 413 491 276 491 C140 491 48 400 48 236 C48 67 139 -13 276 -13 L276 -13 Z M277 58 C190 58 138 119 138 239 C138 357 188 421 276 421 C361 421 415 358 415 239 C415 119 363 58 277 58 L277 58 Z " />
<glyph glyph-name="divide" unicode="&#xf7;" horiz-adv-x="610" d="M306 354 C342 354 371 384 371 420 C371 456 342 486 306 486 C269 486 239 456 239 420 C239 384 269 354 306 354 L306 354 Z M65 201 L545 201 L545 281 L65 281 L65 201 Z M306 -4 C342 -4 371 26 371 62 C371 98 342 128 306 128 C269 128 239 98 239 62 C239 26 269 -4 306 -4 L306 -4 Z " />
<glyph glyph-name="oslash" unicode="&#xf8;" horiz-adv-x="557" d="M508 496 L427 496 L402 462 C368 482 326 491 279 491 C143 491 50 400 50 236 C50 158 69 99 104 58 L49 -16 L129 -16 L153 17 C188 -3 231 -13 279 -13 C414 -13 507 77 507 242 C507 321 487 380 452 421 L508 496 Z M140 239 C140 357 191 421 278 421 C308 421 334 413 355 398 L159 133 C147 161 140 196 140 239 L140 239 Z M417 239 C417 119 365 58 279 58 C248 58 222 66 201 81 L397 346 C410 318 417 282 417 239 L417 239 Z " />
<glyph glyph-name="ugrave" unicode="&#xf9;" horiz-adv-x="555" d="M374 588 L205 740 L134 673 L328 543 L374 588 Z M391 480 L391 215 C391 128 334 67 258 67 C195 67 160 100 160 182 L160 480 L72 480 L72 169 C72 48 130 -11 235 -11 C308 -11 363 26 394 75 L401 0 L478 0 L478 480 L391 480 Z " />
<glyph glyph-name="uacute" unicode="&#xfa;" horiz-adv-x="555" d="M404 673 L333 739 L164 587 L209 542 L404 673 Z M391 480 L391 215 C391 128 334 67 258 67 C195 67 160 100 160 182 L160 480 L72 480 L72 169 C72 48 130 -11 235 -11 C308 -11 363 26 394 75 L401 0 L478 0 L478 480 L391 480 Z " />
<glyph glyph-name="ucircumflex" unicode="&#xfb;" horiz-adv-x="555" d="M278 632 L382 542 L430 578 L278 739 L127 578 L174 542 L278 632 Z M391 480 L391 215 C391 128 334 67 258 67 C195 67 160 100 160 182 L160 480 L72 480 L72 169 C72 48 130 -11 235 -11 C308 -11 363 26 394 75 L401 0 L478 0 L478 480 L391 480 Z " />
<glyph glyph-name="udieresis" unicode="&#xfc;" horiz-adv-x="555" d="M172 590 C208 590 231 613 231 646 C231 679 208 702 172 702 C137 702 113 679 113 646 C113 613 137 590 172 590 L172 590 Z M383 590 C418 590 441 613 441 646 C441 679 418 702 383 702 C348 702 324 679 324 646 C324 613 348 590 383 590 L383 590 Z M391 480 L391 215 C391 128 334 67 258 67 C195 67 160 100 160 182 L160 480 L72 480 L72 169 C72 48 130 -11 235 -11 C308 -11 363 26 394 75 L401 0 L478 0 L478 480 L391 480 Z " />
<glyph glyph-name="yacute" unicode="&#xfd;" horiz-adv-x="490" d="M377 673 L306 739 L137 587 L182 542 L377 673 Z M380 480 L250 89 L116 480 L20 480 L199 0 L220 0 L203 -51 C187 -101 156 -117 117 -117 C92 -117 80 -114 71 -111 L71 -185 C80 -187 93 -190 122 -190 C188 -190 242 -163 269 -85 L470 480 L380 480 Z " />
<glyph glyph-name="thorn" unicode="&#xfe;" horiz-adv-x="554" d="M314 491 C247 491 196 465 164 418 L165 438 L165 720 L77 720 L77 -180 L165 -180 L165 12 C195 -3 234 -12 283 -12 C411 -12 506 74 506 261 C506 409 430 491 314 491 L314 491 Z M273 61 C223 61 190 73 165 91 L165 269 C165 353 210 415 291 415 C375 415 416 356 416 249 C416 120 363 61 273 61 L273 61 Z " />
<glyph glyph-name="ydieresis" unicode="&#xff;" horiz-adv-x="490" d="M145 590 C181 590 204 613 204 646 C204 679 181 702 145 702 C110 702 86 679 86 646 C86 613 110 590 145 590 L145 590 Z M356 590 C391 590 414 613 414 646 C414 679 391 702 356 702 C321 702 297 679 297 646 C297 613 321 590 356 590 L356 590 Z M380 480 L250 89 L116 480 L20 480 L199 0 L220 0 L203 -51 C187 -101 156 -117 117 -117 C92 -117 80 -114 71 -111 L71 -185 C80 -187 93 -190 122 -190 C188 -190 242 -163 269 -85 L470 480 L380 480 Z " />
<glyph glyph-name="Amacron" unicode="&#x100;" horiz-adv-x="643" d="M480 879 L164 879 L164 800 L480 800 L480 879 Z M532 0 L628 0 L371 700 L272 700 L15 0 L109 0 L178 200 L464 200 L532 0 Z M203 273 L321 617 L439 273 L203 273 Z " />
<glyph glyph-name="amacron" unicode="&#x101;" horiz-adv-x="509" d="M379 673 L92 673 L92 596 L379 596 L379 673 Z M452 68 C437 68 426 76 426 98 L427 302 C427 431 361 491 233 491 C170 491 113 476 72 454 L72 380 C114 404 164 417 218 417 C303 417 340 377 340 302 L340 266 C308 272 275 274 240 274 C105 274 40 215 40 125 C40 40 98 -12 186 -12 C260 -12 315 19 348 71 C349 22 374 -3 429 -3 C449 -3 466 1 484 7 L484 74 C473 70 461 68 452 68 L452 68 Z M207 55 C159 55 124 79 124 130 C124 184 165 214 245 214 C276 214 308 212 340 208 L340 176 C338 125 290 55 207 55 L207 55 Z " />
<glyph glyph-name="Abreve" unicode="&#x102;" horiz-adv-x="643" d="M324 758 C427 758 472 831 473 898 L419 912 C414 870 385 831 325 831 C268 831 240 861 231 912 L172 896 C175 822 221 758 324 758 L324 758 Z M532 0 L628 0 L371 700 L272 700 L15 0 L109 0 L178 200 L464 200 L532 0 Z M203 273 L321 617 L439 273 L203 273 Z " />
<glyph glyph-name="abreve" unicode="&#x103;" horiz-adv-x="509" d="M237 560 C341 560 385 634 386 705 L333 719 C328 674 298 632 238 632 C181 632 152 663 143 719 L85 703 C88 626 134 560 237 560 L237 560 Z M452 68 C437 68 426 76 426 98 L427 302 C427 431 361 491 233 491 C170 491 113 476 72 454 L72 380 C114 404 164 417 218 417 C303 417 340 377 340 302 L340 266 C308 272 275 274 240 274 C105 274 40 215 40 125 C40 40 98 -12 186 -12 C260 -12 315 19 348 71 C349 22 374 -3 429 -3 C449 -3 466 1 484 7 L484 74 C473 70 461 68 452 68 L452 68 Z M207 55 C159 55 124 79 124 130 C124 184 165 214 245 214 C276 214 308 212 340 208 L340 176 C338 125 290 55 207 55 L207 55 Z " />
<glyph glyph-name="Aogonek" unicode="&#x104;" horiz-adv-x="643" d="M538 -101 C538 -71 556 -35 619 0 L628 0 L371 700 L272 700 L15 0 L109 0 L178 200 L464 200 L532 0 L537 0 C486 -33 454 -78 454 -124 C454 -179 494 -207 554 -207 C579 -207 605 -201 621 -192 L621 -128 C606 -137 593 -142 577 -142 C553 -142 538 -129 538 -101 L538 -101 Z M203 273 L321 617 L439 273 L203 273 Z " />
<glyph glyph-name="aogonek" unicode="&#x105;" horiz-adv-x="509" d="M442 -135 C418 -135 403 -121 403 -94 C403 -64 421 -28 484 7 L484 74 C473 70 461 68 452 68 C437 68 426 76 426 98 L427 302 C427 431 361 491 233 491 C170 491 113 476 72 454 L72 380 C114 404 164 417 218 417 C303 417 340 377 340 302 L340 266 C308 272 275 274 240 274 C105 274 40 215 40 125 C40 40 98 -12 186 -12 C260 -12 315 19 348 71 C349 34 363 11 394 2 C348 -31 320 -73 320 -116 C320 -172 359 -200 419 -200 C445 -200 470 -193 486 -184 L486 -121 C471 -130 459 -135 442 -135 L442 -135 Z M207 55 C159 55 124 79 124 130 C124 184 165 214 245 214 C276 214 308 212 340 208 L340 176 C338 125 290 55 207 55 L207 55 Z " />
<glyph glyph-name="Cacute" unicode="&#x106;" horiz-adv-x="605" d="M282 754 L496 830 L442 909 L249 804 L282 754 Z M401 -13 C468 -13 522 -4 568 13 L568 94 C523 74 471 66 408 66 C246 66 148 147 148 352 C148 536 241 639 411 639 C472 639 516 632 560 616 L560 697 C516 709 470 715 403 715 C194 715 54 587 54 349 C54 103 182 -13 401 -13 L401 -13 Z " />
<glyph glyph-name="cacute" unicode="&#x107;" horiz-adv-x="454" d="M203 542 L398 673 L327 739 L158 587 L203 542 Z M275 -12 C335 -12 376 0 414 23 L414 102 C378 77 343 64 291 64 C197 64 137 120 137 235 C137 359 205 416 295 416 C341 416 367 409 404 391 L404 470 C375 485 333 491 289 491 C150 491 47 403 47 232 C47 72 137 -12 275 -12 L275 -12 Z " />
<glyph glyph-name="Cdotaccent" unicode="&#x10a;" horiz-adv-x="605" d="M378 782 C414 782 439 807 439 841 C439 875 414 899 378 899 C341 899 316 875 316 841 C316 807 341 782 378 782 L378 782 Z M401 -13 C468 -13 522 -4 568 13 L568 94 C523 74 471 66 408 66 C246 66 148 147 148 352 C148 536 241 639 411 639 C472 639 516 632 560 616 L560 697 C516 709 470 715 403 715 C194 715 54 587 54 349 C54 103 182 -13 401 -13 L401 -13 Z " />
<glyph glyph-name="cdotaccent" unicode="&#x10b;" horiz-adv-x="454" d="M272 585 C308 585 333 611 333 646 C333 680 308 705 272 705 C235 705 209 680 209 646 C209 611 235 585 272 585 L272 585 Z M275 -12 C335 -12 376 0 414 23 L414 102 C378 77 343 64 291 64 C197 64 137 120 137 235 C137 359 205 416 295 416 C341 416 367 409 404 391 L404 470 C375 485 333 491 289 491 C150 491 47 403 47 232 C47 72 137 -12 275 -12 L275 -12 Z " />
<glyph glyph-name="Ccaron" unicode="&#x10c;" horiz-adv-x="605" d="M529 899 L482 934 L379 847 L275 934 L226 899 L378 742 L529 899 Z M408 66 C246 66 148 147 148 352 C148 536 241 639 411 639 C472 639 516 632 560 616 L560 697 C516 709 470 715 403 715 C194 715 54 587 54 349 C54 103 182 -13 401 -13 C468 -13 522 -4 568 13 L568 94 C523 74 471 66 408 66 L408 66 Z " />
<glyph glyph-name="ccaron" unicode="&#x10d;" horiz-adv-x="454" d="M424 704 L377 740 L273 650 L168 740 L121 704 L273 543 L424 704 Z M137 235 C137 359 205 416 295 416 C341 416 367 409 404 391 L404 470 C375 485 333 491 289 491 C150 491 47 403 47 232 C47 72 137 -12 275 -12 C335 -12 376 0 414 23 L414 102 C378 77 343 64 291 64 C197 64 137 120 137 235 L137 235 Z " />
<glyph glyph-name="Dcaron" unicode="&#x10e;" horiz-adv-x="726" d="M495 899 L448 934 L345 847 L241 934 L193 899 L345 742 L495 899 Z M313 700 L96 700 L96 0 L318 0 C536 0 672 122 672 352 C672 583 536 700 313 700 L313 700 Z M318 76 L186 76 L183 624 L311 624 C480 624 579 532 579 352 C579 166 484 76 318 76 L318 76 Z " />
<glyph glyph-name="dcaron" unicode="&#x10f;" horiz-adv-x="577" d="M532 714 L554 510 L607 523 L618 726 L532 714 Z M388 474 C361 484 328 491 289 491 C150 491 48 400 48 222 C48 67 129 -11 241 -11 C315 -11 363 19 392 67 L399 0 L476 0 L476 720 L388 720 L388 474 Z M261 64 C180 64 138 126 138 231 C138 358 202 418 290 418 C330 418 359 411 388 396 L388 211 C388 118 338 64 261 64 L261 64 Z " />
<glyph glyph-name="Dcroat" unicode="&#x110;" horiz-adv-x="740" d="M328 700 L110 700 L110 386 L19 386 L19 315 L110 315 L110 0 L332 0 C550 0 686 122 686 352 C686 583 550 700 328 700 L328 700 Z M332 76 L200 76 L199 315 L332 315 L332 386 L198 386 L197 624 L325 624 C494 624 593 532 593 352 C593 166 498 76 332 76 L332 76 Z " />
<glyph glyph-name="dcroat" unicode="&#x111;" horiz-adv-x="553" d="M572 656 L476 656 L476 720 L388 720 L388 656 L259 656 L259 585 L388 585 L388 474 C361 484 328 491 289 491 C150 491 48 400 48 222 C48 67 129 -11 241 -11 C315 -11 363 19 392 67 L399 0 L476 0 L476 585 L572 585 L572 656 Z M261 64 C180 64 138 126 138 231 C138 358 202 418 290 418 C330 418 359 411 388 396 L388 211 C388 118 338 64 261 64 L261 64 Z " />
<glyph glyph-name="Emacron" unicode="&#x112;" horiz-adv-x="565" d="M465 879 L149 879 L149 800 L465 800 L465 879 Z M185 78 L185 321 L481 321 L481 400 L185 400 L185 623 L503 623 L503 700 L96 700 L96 0 L513 0 L513 78 L185 78 Z " />
<glyph glyph-name="emacron" unicode="&#x113;" horiz-adv-x="507" d="M408 673 L121 673 L121 596 L408 596 L408 673 Z M463 290 C463 418 390 491 269 491 C139 491 48 397 48 231 C48 67 136 -12 291 -12 C347 -12 405 1 446 23 L446 95 C395 70 354 61 299 61 C207 61 151 103 139 194 L461 259 C462 270 463 284 463 290 L463 290 Z M269 422 C340 422 374 378 379 308 L137 259 C142 369 190 422 269 422 L269 422 Z " />
<glyph glyph-name="Edotaccent" unicode="&#x116;" horiz-adv-x="565" d="M308 782 C343 782 368 807 368 841 C368 875 343 899 308 899 C271 899 246 875 246 841 C246 807 271 782 308 782 L308 782 Z M185 78 L185 321 L481 321 L481 400 L185 400 L185 623 L503 623 L503 700 L96 700 L96 0 L513 0 L513 78 L185 78 Z " />
<glyph glyph-name="edotaccent" unicode="&#x117;" horiz-adv-x="507" d="M265 585 C301 585 326 611 326 646 C326 680 301 705 265 705 C227 705 201 680 201 646 C201 611 227 585 265 585 L265 585 Z M463 290 C463 418 390 491 269 491 C139 491 48 397 48 231 C48 67 136 -12 291 -12 C347 -12 405 1 446 23 L446 95 C395 70 354 61 299 61 C207 61 151 103 139 194 L461 259 C462 270 463 284 463 290 L463 290 Z M269 422 C340 422 374 378 379 308 L137 259 C142 369 190 422 269 422 L269 422 Z " />
<glyph glyph-name="Eogonek" unicode="&#x118;" horiz-adv-x="565" d="M471 -142 C447 -142 432 -129 432 -101 C432 -71 450 -35 513 0 L513 78 L185 78 L185 321 L481 321 L481 400 L185 400 L185 623 L503 623 L503 700 L96 700 L96 0 L431 0 C380 -33 348 -78 348 -124 C348 -179 388 -207 448 -207 C473 -207 499 -201 515 -192 L515 -128 C500 -137 487 -142 471 -142 L471 -142 Z " />
<glyph glyph-name="eogonek" unicode="&#x119;" horiz-adv-x="507" d="M463 290 C463 418 390 491 269 491 C139 491 48 397 48 231 C48 67 136 -12 291 -12 L307 -12 C272 -42 253 -77 253 -114 C253 -169 293 -197 352 -197 C378 -197 404 -191 420 -182 L420 -118 C404 -127 392 -132 376 -132 C352 -132 336 -119 336 -91 C336 -61 355 -25 417 10 C427 14 437 18 446 23 L446 95 C395 70 354 61 299 61 C207 61 151 103 139 194 L461 259 C462 270 463 284 463 290 L463 290 Z M269 422 C340 422 374 378 379 308 L137 259 C142 369 190 422 269 422 L269 422 Z " />
<glyph glyph-name="Ecaron" unicode="&#x11a;" horiz-adv-x="565" d="M458 899 L411 934 L308 847 L204 934 L156 899 L308 742 L458 899 Z M185 78 L185 321 L481 321 L481 400 L185 400 L185 623 L503 623 L503 700 L96 700 L96 0 L513 0 L513 78 L185 78 Z " />
<glyph glyph-name="ecaron" unicode="&#x11b;" horiz-adv-x="507" d="M416 704 L370 740 L266 650 L161 740 L114 704 L265 543 L416 704 Z M463 290 C463 418 390 491 269 491 C139 491 48 397 48 231 C48 67 136 -12 291 -12 C347 -12 405 1 446 23 L446 95 C395 70 354 61 299 61 C207 61 151 103 139 194 L461 259 C462 270 463 284 463 290 L463 290 Z M269 422 C340 422 374 378 379 308 L137 259 C142 369 190 422 269 422 L269 422 Z " />
<glyph glyph-name="Gbreve" unicode="&#x11e;" horiz-adv-x="687" d="M392 758 C495 758 540 831 541 898 L487 912 C482 870 453 831 393 831 C337 831 308 861 299 912 L240 896 C243 822 290 758 392 758 L392 758 Z M380 363 L380 285 L540 285 L540 76 C500 68 457 63 406 63 C242 63 146 160 146 351 C146 535 250 639 429 639 C508 639 553 631 605 614 L605 696 C550 709 502 715 434 715 C203 715 53 580 53 345 C53 105 195 -13 397 -13 C492 -13 559 -1 623 19 L623 363 L380 363 Z " />
<glyph glyph-name="gbreve" unicode="&#x11f;" horiz-adv-x="519" d="M256 560 C361 560 405 634 406 705 L352 719 C347 674 318 632 257 632 C200 632 171 663 162 719 L104 703 C107 626 154 560 256 560 L256 560 Z M328 92 L194 92 C155 92 135 104 135 128 C135 152 160 167 210 167 L251 167 C368 167 444 226 444 327 C444 371 427 403 400 428 L484 427 L484 502 L327 481 C306 488 279 491 251 491 C137 491 59 430 59 329 C59 266 85 222 129 196 C83 182 56 156 56 112 C56 70 80 45 117 32 C70 13 38 -22 38 -72 C38 -155 110 -191 247 -191 C400 -191 491 -135 491 -35 C491 54 433 92 328 92 L328 92 Z M251 425 C318 425 359 389 359 329 C359 268 318 232 251 232 C184 232 143 268 143 329 C143 389 184 425 251 425 L251 425 Z M253 -127 C161 -127 119 -107 119 -55 C119 -9 159 19 230 19 L325 19 C381 19 408 -4 408 -44 C408 -94 366 -127 253 -127 L253 -127 Z " />
<glyph glyph-name="Gdotaccent" unicode="&#x120;" horiz-adv-x="687" d="M391 782 C427 782 452 807 452 841 C452 875 427 899 391 899 C355 899 329 875 329 841 C329 807 355 782 391 782 L391 782 Z M380 363 L380 285 L540 285 L540 76 C500 68 457 63 406 63 C242 63 146 160 146 351 C146 535 250 639 429 639 C508 639 553 631 605 614 L605 696 C550 709 502 715 434 715 C203 715 53 580 53 345 C53 105 195 -13 397 -13 C492 -13 559 -1 623 19 L623 363 L380 363 Z " />
<glyph glyph-name="gdotaccent" unicode="&#x121;" horiz-adv-x="519" d="M255 585 C291 585 317 611 317 646 C317 680 291 705 255 705 C218 705 192 680 192 646 C192 611 218 585 255 585 L255 585 Z M328 92 L194 92 C155 92 135 104 135 128 C135 152 160 167 210 167 L251 167 C368 167 444 226 444 327 C444 371 427 403 400 428 L484 427 L484 502 L327 481 C306 488 279 491 251 491 C137 491 59 430 59 329 C59 266 85 222 129 196 C83 182 56 156 56 112 C56 70 80 45 117 32 C70 13 38 -22 38 -72 C38 -155 110 -191 247 -191 C400 -191 491 -135 491 -35 C491 54 433 92 328 92 L328 92 Z M251 425 C318 425 359 389 359 329 C359 268 318 232 251 232 C184 232 143 268 143 329 C143 389 184 425 251 425 L251 425 Z M253 -127 C161 -127 119 -107 119 -55 C119 -9 159 19 230 19 L325 19 C381 19 408 -4 408 -44 C408 -94 366 -127 253 -127 L253 -127 Z " />
<glyph glyph-name="uni0122" unicode="&#x122;" horiz-adv-x="687" d="M380 363 L380 285 L540 285 L540 76 C500 68 457 63 406 63 C242 63 146 160 146 351 C146 535 250 639 429 639 C508 639 553 631 605 614 L605 696 C550 709 502 715 434 715 C203 715 53 580 53 345 C53 105 195 -13 397 -13 C492 -13 559 -1 623 19 L623 363 L380 363 Z M398 -44 C370 -44 348 -64 348 -91 C348 -128 376 -131 376 -168 C376 -191 364 -207 347 -222 L375 -249 C426 -212 455 -153 455 -106 C455 -61 431 -44 398 -44 L398 -44 Z " />
<glyph glyph-name="uni0123" unicode="&#x123;" horiz-adv-x="519" d="M245 541 C274 541 296 560 296 588 C296 624 268 629 268 664 C268 687 280 704 297 719 L268 746 C217 709 188 650 188 603 C188 559 212 541 245 541 L245 541 Z M328 92 L194 92 C155 92 135 104 135 128 C135 152 160 167 210 167 L251 167 C368 167 444 226 444 327 C444 371 427 403 400 428 L484 427 L484 502 L327 481 C306 488 279 491 251 491 C137 491 59 430 59 329 C59 266 85 222 129 196 C83 182 56 156 56 112 C56 70 80 45 117 32 C70 13 38 -22 38 -72 C38 -155 110 -191 247 -191 C400 -191 491 -135 491 -35 C491 54 433 92 328 92 L328 92 Z M251 425 C318 425 359 389 359 329 C359 268 318 232 251 232 C184 232 143 268 143 329 C143 389 184 425 251 425 L251 425 Z M253 -127 C161 -127 119 -107 119 -55 C119 -9 159 19 230 19 L325 19 C381 19 408 -4 408 -44 C408 -94 366 -127 253 -127 L253 -127 Z " />
<glyph glyph-name="Hbar" unicode="&#x126;" horiz-adv-x="791" d="M773 569 L668 569 L668 700 L578 700 L578 569 L212 569 L212 700 L123 700 L123 569 L18 569 L18 506 L123 506 L123 0 L212 0 L212 314 L578 314 L578 0 L668 0 L668 506 L773 506 L773 569 Z M578 393 L212 393 L212 506 L578 506 L578 393 Z " />
<glyph glyph-name="hbar" unicode="&#x127;" horiz-adv-x="558" d="M322 491 C250 491 196 457 164 410 L165 436 L165 585 L302 585 L302 656 L165 656 L165 720 L77 720 L77 656 L-11 656 L-11 585 L77 585 L77 0 L165 0 L165 265 C165 352 222 413 299 413 C363 413 399 377 399 297 L399 0 L486 0 L486 309 C486 432 429 491 322 491 L322 491 Z " />
<glyph glyph-name="Itilde" unicode="&#x128;" horiz-adv-x="281" d="M207 785 C261 785 298 819 309 887 L248 904 C243 869 229 856 207 856 C167 856 130 901 74 901 C21 901 -18 863 -27 800 L33 783 C38 815 55 829 77 829 C118 829 155 785 207 785 L207 785 Z M96 0 L185 0 L185 700 L96 700 L96 0 Z " />
<glyph glyph-name="itilde" unicode="&#x129;" horiz-adv-x="244" d="M185 587 C231 587 275 620 282 689 L215 709 C210 673 196 663 174 663 C138 663 115 704 59 704 C11 704 -32 667 -39 606 L28 585 C31 614 49 628 71 628 C107 628 127 587 185 587 L185 587 Z M78 0 L166 0 L166 480 L78 480 L78 0 Z " />
<glyph glyph-name="Imacron" unicode="&#x12a;" horiz-adv-x="281" d="M10 800 L270 800 L270 879 L10 879 L10 800 Z M96 0 L185 0 L185 700 L96 700 L96 0 Z " />
<glyph glyph-name="imacron" unicode="&#x12b;" horiz-adv-x="244" d="M-13 596 L259 596 L259 673 L-13 673 L-13 596 Z M78 0 L166 0 L166 480 L78 480 L78 0 Z " />
<glyph glyph-name="Iogonek" unicode="&#x12e;" horiz-adv-x="281" d="M181 0 L185 0 L185 700 L96 700 L96 0 L100 0 C48 -33 17 -78 17 -124 C17 -179 57 -207 116 -207 C142 -207 168 -201 184 -192 L184 -128 C168 -137 156 -142 140 -142 C116 -142 100 -129 100 -101 C100 -71 119 -35 181 0 L181 0 Z " />
<glyph glyph-name="iogonek" unicode="&#x12f;" horiz-adv-x="244" d="M122 705 C85 705 59 680 59 646 C59 611 85 585 122 585 C159 585 184 611 184 646 C184 680 159 705 122 705 L122 705 Z M79 0 L81 0 C30 -33 -1 -78 -1 -124 C-1 -179 38 -207 98 -207 C124 -207 149 -201 165 -192 L165 -128 C150 -137 137 -142 121 -142 C97 -142 82 -129 82 -101 C82 -71 100 -35 163 0 L166 0 L166 480 L79 480 L79 0 Z " />
<glyph glyph-name="Idotaccent" unicode="&#x130;" horiz-adv-x="281" d="M141 782 C177 782 202 807 202 841 C202 875 177 899 141 899 C104 899 79 875 79 841 C79 807 104 782 141 782 L141 782 Z M96 0 L185 0 L185 700 L96 700 L96 0 Z " />
<glyph glyph-name="dotlessi" unicode="&#x131;" horiz-adv-x="244" d="M78 0 L166 0 L166 480 L78 480 L78 0 Z " />
<glyph glyph-name="IJ" unicode="&#x132;" horiz-adv-x="630" d="M96 0 L185 0 L185 700 L96 700 L96 0 Z M304 -13 C439 -13 541 35 541 211 L541 700 L452 700 L452 211 C452 102 396 65 304 65 L304 -13 Z " />
<glyph glyph-name="ij" unicode="&#x133;" horiz-adv-x="496" d="M122 585 C158 585 184 611 184 646 C184 680 158 705 122 705 C85 705 59 680 59 646 C59 611 85 585 122 585 L122 585 Z M375 585 C411 585 437 611 437 646 C437 680 411 705 375 705 C338 705 312 680 312 646 C312 611 338 585 375 585 L375 585 Z M78 0 L166 0 L166 480 L78 480 L78 0 Z M286 -185 C354 -185 418 -157 418 -33 L418 480 L330 480 L330 -31 C330 -98 305 -112 267 -112 C249 -112 235 -109 215 -100 L215 -171 C237 -182 255 -185 286 -185 L286 -185 Z " />
<glyph glyph-name="uni0136" unicode="&#x136;" horiz-adv-x="643" d="M96 0 L185 0 L185 700 L96 700 L96 0 Z M304 361 L625 700 L520 700 L194 354 L525 0 L637 0 L304 361 Z M343 -44 C314 -44 293 -64 293 -91 C293 -128 321 -131 321 -168 C321 -191 308 -207 292 -222 L320 -249 C371 -212 400 -153 400 -106 C400 -61 376 -44 343 -44 L343 -44 Z " />
<glyph glyph-name="uni0137" unicode="&#x137;" horiz-adv-x="503" d="M77 0 L165 0 L165 720 L77 720 L77 0 Z M384 0 L495 0 L279 255 L474 480 L370 480 L176 247 L384 0 Z M227 -249 C279 -212 308 -153 308 -106 C308 -61 284 -44 251 -44 C222 -44 200 -64 200 -91 C200 -128 229 -131 229 -168 C229 -191 216 -207 200 -222 L227 -249 Z " />
<glyph glyph-name="kgreenlandic" unicode="&#x138;" horiz-adv-x="503" d="M77 0 L165 0 L165 480 L77 480 L77 0 Z M384 0 L495 0 L279 255 L474 480 L370 480 L176 247 L384 0 Z " />
<glyph glyph-name="Lacute" unicode="&#x139;" horiz-adv-x="517" d="M247 909 L55 804 L87 754 L301 830 L247 909 Z M185 78 L185 700 L96 700 L96 0 L503 0 L503 78 L185 78 Z " />
<glyph glyph-name="lacute" unicode="&#x13a;" horiz-adv-x="244" d="M26 754 L240 830 L186 909 L-7 804 L26 754 Z M78 0 L166 0 L166 720 L78 720 L78 0 Z " />
<glyph glyph-name="uni013B" unicode="&#x13b;" horiz-adv-x="517" d="M185 78 L185 700 L96 700 L96 0 L503 0 L503 78 L185 78 Z M318 -44 C290 -44 268 -64 268 -91 C268 -128 296 -131 296 -168 C296 -191 284 -207 267 -222 L295 -249 C346 -212 375 -153 375 -106 C375 -61 351 -44 318 -44 L318 -44 Z " />
<glyph glyph-name="uni013C" unicode="&#x13c;" horiz-adv-x="244" d="M78 0 L166 0 L166 720 L78 720 L78 0 Z M99 -249 C150 -212 179 -153 179 -106 C179 -61 155 -44 122 -44 C93 -44 72 -64 72 -91 C72 -128 100 -131 100 -168 C100 -191 87 -207 71 -222 L99 -249 Z " />
<glyph glyph-name="Lcaron" unicode="&#x13d;" horiz-adv-x="520" d="M406 513 L417 716 L331 704 L353 500 L406 513 Z M185 78 L185 700 L96 700 L96 0 L503 0 L503 78 L185 78 Z " />
<glyph glyph-name="lcaron" unicode="&#x13e;" horiz-adv-x="267" d="M244 510 L297 523 L307 726 L221 714 L244 510 Z M78 0 L166 0 L166 720 L78 720 L78 0 Z " />
<glyph glyph-name="Ldot" unicode="&#x13f;" horiz-adv-x="528" d="M185 78 L185 700 L96 700 L96 0 L503 0 L503 78 L185 78 Z M410 333 C444 333 471 361 471 395 C471 430 444 457 410 457 C376 457 348 430 348 395 C348 361 376 333 410 333 L410 333 Z " />
<glyph glyph-name="ldot" unicode="&#x140;" horiz-adv-x="356" d="M78 0 L166 0 L166 720 L78 720 L78 0 Z M300 298 C335 298 361 326 361 360 C361 395 335 422 300 422 C267 422 238 395 238 360 C238 326 267 298 300 298 L300 298 Z " />
<glyph glyph-name="Lslash" unicode="&#x141;" horiz-adv-x="529" d="M196 78 L196 326 L291 367 L291 444 L196 404 L196 700 L108 700 L108 367 L31 334 L31 256 L108 289 L108 0 L515 0 L515 78 L196 78 Z " />
<glyph glyph-name="lslash" unicode="&#x142;" horiz-adv-x="322" d="M293 459 L208 423 L208 720 L121 720 L121 386 L33 349 L33 271 L121 309 L121 0 L208 0 L208 346 L293 382 L293 459 Z " />
<glyph glyph-name="Nacute" unicode="&#x143;" horiz-adv-x="726" d="M484 830 L430 909 L237 804 L270 754 L484 830 Z M548 700 L548 191 L550 147 L170 700 L96 700 L96 0 L178 0 L178 509 L176 552 L557 0 L630 0 L630 700 L548 700 Z " />
<glyph glyph-name="nacute" unicode="&#x144;" horiz-adv-x="558" d="M416 673 L345 739 L175 587 L221 542 L416 673 Z M323 491 C248 491 194 455 161 406 L154 480 L77 480 L77 0 L165 0 L165 269 C165 350 222 413 301 413 C361 413 399 380 399 298 L399 0 L486 0 L486 310 C486 431 430 491 323 491 L323 491 Z " />
<glyph glyph-name="uni0145" unicode="&#x145;" horiz-adv-x="726" d="M548 700 L548 191 L550 147 L170 700 L96 700 L96 0 L178 0 L178 509 L176 552 L557 0 L630 0 L630 700 L548 700 Z M366 -44 C337 -44 315 -64 315 -91 C315 -128 343 -131 343 -168 C343 -191 331 -207 315 -222 L342 -249 C394 -212 422 -153 422 -106 C422 -61 399 -44 366 -44 L366 -44 Z " />
<glyph glyph-name="uni0146" unicode="&#x146;" horiz-adv-x="558" d="M323 491 C248 491 194 455 161 406 L154 480 L77 480 L77 0 L165 0 L165 269 C165 350 222 413 301 413 C361 413 399 380 399 298 L399 0 L486 0 L486 310 C486 431 430 491 323 491 L323 491 Z M280 -44 C252 -44 230 -64 230 -91 C230 -128 258 -131 258 -168 C258 -191 246 -207 229 -222 L257 -249 C308 -212 337 -153 337 -106 C337 -61 313 -44 280 -44 L280 -44 Z " />
<glyph glyph-name="Ncaron" unicode="&#x147;" horiz-adv-x="726" d="M517 899 L470 934 L367 847 L263 934 L214 899 L366 742 L517 899 Z M548 700 L548 191 L550 147 L170 700 L96 700 L96 0 L178 0 L178 509 L176 552 L557 0 L630 0 L630 700 L548 700 Z " />
<glyph glyph-name="ncaron" unicode="&#x148;" horiz-adv-x="558" d="M441 704 L395 740 L291 650 L186 740 L139 704 L291 543 L441 704 Z M323 491 C248 491 194 455 161 406 L154 480 L77 480 L77 0 L165 0 L165 269 C165 350 222 413 301 413 C361 413 399 380 399 298 L399 0 L486 0 L486 310 C486 431 430 491 323 491 L323 491 Z " />
<glyph glyph-name="napostrophe" unicode="&#x149;" horiz-adv-x="586" d="M30 727 C2 727 -21 707 -21 677 C-21 637 13 633 13 589 C13 566 0 544 -19 527 L9 500 C60 544 88 598 88 651 C88 703 64 727 30 727 L30 727 Z M351 491 C276 491 221 455 189 406 L182 480 L105 480 L105 0 L192 0 L192 269 C192 350 250 413 329 413 C389 413 426 380 426 298 L426 0 L514 0 L514 310 C514 431 458 491 351 491 L351 491 Z " />
<glyph glyph-name="Eng" unicode="&#x14a;" horiz-adv-x="726" d="M548 700 L548 191 L550 147 L170 700 L96 700 L96 0 L178 0 L178 509 L176 552 L542 22 L542 -31 C542 -97 519 -114 486 -114 C473 -114 464 -112 452 -108 L452 -179 C468 -184 485 -186 506 -186 C569 -186 630 -156 630 -33 L630 700 L548 700 Z " />
<glyph glyph-name="eng" unicode="&#x14b;" horiz-adv-x="558" d="M323 491 C248 491 194 455 161 406 L154 480 L77 480 L77 0 L165 0 L165 269 C165 350 222 413 301 413 C361 413 399 380 399 298 L399 -31 C399 -97 375 -114 343 -114 C329 -114 321 -112 309 -108 L309 -179 C324 -184 341 -186 362 -186 C425 -186 486 -156 486 -33 L486 310 C486 431 430 491 323 491 L323 491 Z " />
<glyph glyph-name="Omacron" unicode="&#x14c;" horiz-adv-x="766" d="M223 800 L538 800 L538 879 L223 879 L223 800 Z M382 -13 C577 -13 713 116 713 352 C713 590 583 715 385 715 C189 715 54 586 54 352 C54 113 183 -13 382 -13 L382 -13 Z M383 62 C239 62 147 157 147 352 C147 542 237 640 383 640 C527 640 619 542 619 352 C619 157 528 62 383 62 L383 62 Z " />
<glyph glyph-name="omacron" unicode="&#x14d;" horiz-adv-x="552" d="M134 596 L421 596 L421 673 L134 673 L134 596 Z M276 -13 C412 -13 505 77 505 242 C505 411 413 491 276 491 C140 491 48 400 48 236 C48 67 139 -13 276 -13 L276 -13 Z M277 58 C190 58 138 119 138 239 C138 357 188 421 276 421 C361 421 415 358 415 239 C415 119 363 58 277 58 L277 58 Z " />
<glyph glyph-name="Ohungarumlaut" unicode="&#x150;" horiz-adv-x="766" d="M281 741 L415 922 L331 955 L231 766 L281 741 Z M466 741 L599 922 L515 955 L415 766 L466 741 Z M382 -13 C577 -13 713 116 713 352 C713 590 583 715 385 715 C189 715 54 586 54 352 C54 113 183 -13 382 -13 L382 -13 Z M383 62 C239 62 147 157 147 352 C147 542 237 640 383 640 C527 640 619 542 619 352 C619 157 528 62 383 62 L383 62 Z " />
<glyph glyph-name="ohungarumlaut" unicode="&#x151;" horiz-adv-x="552" d="M188 538 L303 728 L217 751 L135 557 L188 538 Z M363 538 L479 728 L393 751 L311 557 L363 538 Z M276 -13 C412 -13 505 77 505 242 C505 411 413 491 276 491 C140 491 48 400 48 236 C48 67 139 -13 276 -13 L276 -13 Z M277 58 C190 58 138 119 138 239 C138 357 188 421 276 421 C361 421 415 358 415 239 C415 119 363 58 277 58 L277 58 Z " />
<glyph glyph-name="OE" unicode="&#x152;" horiz-adv-x="1092" d="M712 78 L712 318 L712 321 L1008 321 L1008 400 L712 400 L712 623 L1030 623 L1030 700 L623 700 L623 623 C566 684 484 715 385 715 C189 715 54 586 54 352 C54 113 183 -13 382 -13 C481 -13 565 20 623 84 L623 0 L1040 0 L1040 78 L712 78 Z M383 62 C239 62 147 157 147 352 C147 542 237 640 383 640 C527 640 619 542 619 352 C619 157 528 62 383 62 L383 62 Z " />
<glyph glyph-name="oe" unicode="&#x153;" horiz-adv-x="878" d="M827 224 C829 243 829 255 829 276 C829 414 757 491 637 491 C563 491 502 460 462 405 C423 463 357 491 276 491 C140 491 48 400 48 236 C48 67 139 -13 276 -13 C354 -13 418 17 458 73 C499 16 568 -12 661 -12 C714 -12 772 1 814 22 L814 93 C762 70 727 61 672 61 C561 61 509 110 504 220 L505 224 L827 224 Z M637 422 C707 422 746 376 746 286 L507 286 C518 379 565 422 637 422 L637 422 Z M277 58 C190 58 138 119 138 239 C138 357 188 421 276 421 C361 421 415 358 415 239 C415 119 363 58 277 58 L277 58 Z " />
<glyph glyph-name="Racute" unicode="&#x154;" horiz-adv-x="602" d="M418 830 L363 909 L171 804 L203 754 L418 830 Z M569 0 L393 299 C482 329 535 400 535 495 C535 620 458 700 285 700 L96 700 L96 0 L185 0 L185 283 L287 283 L304 283 L469 0 L569 0 Z M286 358 L185 358 L185 624 L288 624 C398 624 444 571 444 492 C444 414 397 358 286 358 L286 358 Z " />
<glyph glyph-name="racute" unicode="&#x155;" horiz-adv-x="365" d="M341 673 L271 739 L101 587 L146 542 L341 673 Z M313 491 C245 491 192 458 161 404 L154 480 L77 480 L77 0 L165 0 L165 233 C165 346 225 407 305 407 C322 407 336 405 348 402 L348 487 C338 490 326 491 313 491 L313 491 Z " />
<glyph glyph-name="uni0156" unicode="&#x156;" horiz-adv-x="602" d="M393 299 C482 329 535 400 535 495 C535 620 458 700 285 700 L96 700 L96 0 L185 0 L185 283 L287 283 L304 283 L469 0 L569 0 L393 299 Z M286 358 L185 358 L185 624 L288 624 C398 624 444 571 444 492 C444 414 397 358 286 358 L286 358 Z M312 -44 C283 -44 261 -64 261 -91 C261 -128 290 -131 290 -168 C290 -191 277 -207 261 -222 L288 -249 C340 -212 369 -153 369 -106 C369 -61 345 -44 312 -44 L312 -44 Z " />
<glyph glyph-name="uni0157" unicode="&#x157;" horiz-adv-x="365" d="M313 491 C245 491 192 458 161 404 L154 480 L77 480 L77 0 L165 0 L165 233 C165 346 225 407 305 407 C322 407 336 405 348 402 L348 487 C338 490 326 491 313 491 L313 491 Z M117 -44 C88 -44 67 -64 67 -91 C67 -128 95 -131 95 -168 C95 -191 82 -207 66 -222 L93 -249 C145 -212 174 -153 174 -106 C174 -61 150 -44 117 -44 L117 -44 Z " />
<glyph glyph-name="Rcaron" unicode="&#x158;" horiz-adv-x="602" d="M451 899 L403 934 L300 847 L196 934 L148 899 L300 742 L451 899 Z M569 0 L393 299 C482 329 535 400 535 495 C535 620 458 700 285 700 L96 700 L96 0 L185 0 L185 283 L287 283 L304 283 L469 0 L569 0 Z M286 358 L185 358 L185 624 L288 624 C398 624 444 571 444 492 C444 414 397 358 286 358 L286 358 Z " />
<glyph glyph-name="rcaron" unicode="&#x159;" horiz-adv-x="365" d="M367 704 L320 740 L216 650 L112 740 L64 704 L216 543 L367 704 Z M161 404 L154 480 L77 480 L77 0 L165 0 L165 233 C165 346 225 407 305 407 C322 407 336 405 348 402 L348 487 C338 490 326 491 313 491 C245 491 192 458 161 404 L161 404 Z " />
<glyph glyph-name="Sacute" unicode="&#x15a;" horiz-adv-x="551" d="M190 751 L404 827 L350 905 L157 801 L190 751 Z M249 -13 C426 -13 506 80 506 201 C506 333 413 381 298 411 C197 437 146 461 146 534 C146 593 190 639 297 639 C362 639 425 623 473 597 L473 680 C427 702 371 715 296 715 C135 715 57 632 57 526 C57 407 150 358 258 332 C359 307 418 273 418 191 C418 104 349 63 245 63 C175 63 105 84 54 116 L54 29 C102 2 162 -13 249 -13 L249 -13 Z " />
<glyph glyph-name="sacute" unicode="&#x15b;" horiz-adv-x="448" d="M159 542 L353 673 L283 739 L113 587 L159 542 Z M206 -12 C342 -12 405 47 405 137 C405 225 351 264 252 284 C150 306 130 316 130 357 C130 399 167 421 239 421 C287 421 337 411 381 387 L381 463 C341 481 295 491 233 491 C113 491 51 434 51 353 C51 267 105 234 205 215 C297 197 325 177 325 130 C325 82 284 58 203 58 C149 58 93 73 49 96 L49 18 C90 -2 142 -12 206 -12 L206 -12 Z " />
<glyph glyph-name="Scedilla" unicode="&#x15e;" horiz-adv-x="551" d="M506 201 C506 333 413 381 298 411 C197 437 146 461 146 534 C146 593 190 639 297 639 C362 639 425 623 473 597 L473 680 C427 702 371 715 296 715 C135 715 57 632 57 526 C57 407 150 358 258 332 C359 307 418 273 418 191 C418 104 349 63 245 63 C175 63 105 84 54 116 L54 29 C101 3 159 -12 243 -13 L230 -85 C290 -85 304 -98 304 -125 C304 -155 279 -165 212 -165 L224 -219 C326 -219 381 -189 381 -121 C381 -68 351 -45 294 -42 L297 -11 C441 5 506 92 506 201 L506 201 Z " />
<glyph glyph-name="scedilla" unicode="&#x15f;" horiz-adv-x="448" d="M405 137 C405 225 351 264 252 284 C150 306 130 316 130 357 C130 399 167 421 239 421 C287 421 337 411 381 387 L381 463 C341 481 295 491 233 491 C113 491 51 434 51 353 C51 267 105 234 205 215 C297 197 325 177 325 130 C325 82 284 58 203 58 C149 58 93 73 49 96 L49 18 C87 0 134 -10 191 -12 L178 -85 C238 -85 252 -98 252 -125 C252 -155 227 -165 161 -165 L172 -219 C274 -219 330 -189 330 -121 C330 -68 299 -45 242 -42 L245 -10 C354 0 405 56 405 137 L405 137 Z " />
<glyph glyph-name="Scaron" unicode="&#x160;" horiz-adv-x="551" d="M437 895 L390 931 L287 843 L183 931 L134 895 L286 739 L437 895 Z M298 411 C197 437 146 461 146 534 C146 593 190 639 297 639 C362 639 425 623 473 597 L473 680 C427 702 371 715 296 715 C135 715 57 632 57 526 C57 407 150 358 258 332 C359 307 418 273 418 191 C418 104 349 63 245 63 C175 63 105 84 54 116 L54 29 C102 2 162 -13 249 -13 C426 -13 506 80 506 201 C506 333 413 381 298 411 L298 411 Z " />
<glyph glyph-name="scaron" unicode="&#x161;" horiz-adv-x="448" d="M379 704 L333 740 L229 650 L124 740 L76 704 L228 543 L379 704 Z M252 284 C150 306 130 316 130 357 C130 399 167 421 239 421 C287 421 337 411 381 387 L381 463 C341 481 295 491 233 491 C113 491 51 434 51 353 C51 267 105 234 205 215 C297 197 325 177 325 130 C325 82 284 58 203 58 C149 58 93 73 49 96 L49 18 C90 -2 142 -12 206 -12 C342 -12 405 47 405 137 C405 225 351 264 252 284 L252 284 Z " />
<glyph glyph-name="uni0162" unicode="&#x162;" horiz-adv-x="564" d="M326 0 L326 620 L549 620 L549 700 L15 700 L15 620 L237 620 L237 0 L256 0 L241 -85 C301 -85 315 -98 315 -125 C315 -155 290 -165 223 -165 L235 -219 C337 -219 392 -189 392 -121 C392 -68 361 -45 305 -42 L308 0 L326 0 Z " />
<glyph glyph-name="uni0163" unicode="&#x163;" horiz-adv-x="389" d="M285 -9 C320 -9 346 -5 364 4 L364 75 C340 66 325 64 296 64 C248 64 211 82 211 155 L211 408 L357 408 L357 480 L211 480 L211 599 L126 599 L126 480 L19 480 L19 408 L124 408 L124 143 C124 53 168 12 226 -2 L211 -85 C271 -85 285 -98 285 -125 C285 -155 260 -165 193 -165 L205 -219 C307 -219 362 -189 362 -121 C362 -68 331 -45 275 -42 L277 -9 L285 -9 Z " />
<glyph glyph-name="Tcaron" unicode="&#x164;" horiz-adv-x="564" d="M434 899 L386 934 L283 847 L179 934 L131 899 L283 742 L434 899 Z M549 700 L15 700 L15 620 L237 620 L237 0 L326 0 L326 620 L549 620 L549 700 Z " />
<glyph glyph-name="tcaron" unicode="&#x165;" horiz-adv-x="389" d="M354 543 L365 746 L279 734 L301 530 L354 543 Z M211 155 L211 408 L357 408 L357 480 L211 480 L211 599 L126 599 L126 480 L19 480 L19 408 L124 408 L124 143 C124 23 202 -9 285 -9 C320 -9 346 -5 364 4 L364 75 C340 66 325 64 296 64 C248 64 211 82 211 155 L211 155 Z " />
<glyph glyph-name="Tbar" unicode="&#x166;" horiz-adv-x="573" d="M553 620 L553 700 L20 700 L20 620 L242 620 L242 386 L130 386 L130 315 L242 315 L242 0 L331 0 L331 315 L443 315 L443 386 L331 386 L331 620 L553 620 Z " />
<glyph glyph-name="tbar" unicode="&#x167;" horiz-adv-x="399" d="M302 64 C254 64 217 82 217 155 L217 205 L356 205 L356 276 L217 276 L217 408 L363 408 L363 480 L217 480 L217 599 L132 599 L132 480 L25 480 L25 408 L130 408 L130 276 L43 276 L43 205 L130 205 L130 143 C130 23 208 -9 291 -9 C326 -9 352 -5 370 4 L370 75 C346 66 331 64 302 64 L302 64 Z " />
<glyph glyph-name="Utilde" unicode="&#x168;" horiz-adv-x="713" d="M293 829 C334 829 372 785 424 785 C478 785 515 819 525 887 L464 904 C460 869 446 856 423 856 C384 856 347 901 291 901 C237 901 198 863 189 800 L250 783 C255 815 272 829 293 829 L293 829 Z M539 700 L539 266 C539 121 465 66 358 66 C250 66 178 128 178 266 L178 700 L88 700 L88 266 C88 70 200 -13 358 -13 C510 -13 625 68 625 266 L625 700 L539 700 Z " />
<glyph glyph-name="utilde" unicode="&#x169;" horiz-adv-x="555" d="M227 628 C263 628 283 587 341 587 C387 587 431 620 438 689 L371 709 C366 673 352 663 330 663 C293 663 271 704 215 704 C167 704 124 667 117 606 L184 585 C187 614 205 628 227 628 L227 628 Z M391 480 L391 215 C391 128 334 67 258 67 C195 67 160 100 160 182 L160 480 L72 480 L72 169 C72 48 130 -11 235 -11 C308 -11 363 26 394 75 L401 0 L478 0 L478 480 L391 480 Z " />
<glyph glyph-name="Umacron" unicode="&#x16a;" horiz-adv-x="713" d="M515 879 L199 879 L199 800 L515 800 L515 879 Z M539 700 L539 266 C539 121 465 66 358 66 C250 66 178 128 178 266 L178 700 L88 700 L88 266 C88 70 200 -13 358 -13 C510 -13 625 68 625 266 L625 700 L539 700 Z " />
<glyph glyph-name="umacron" unicode="&#x16b;" horiz-adv-x="555" d="M421 673 L134 673 L134 596 L421 596 L421 673 Z M391 480 L391 215 C391 128 334 67 258 67 C195 67 160 100 160 182 L160 480 L72 480 L72 169 C72 48 130 -11 235 -11 C308 -11 363 26 394 75 L401 0 L478 0 L478 480 L391 480 Z " />
<glyph glyph-name="Uring" unicode="&#x16e;" horiz-adv-x="713" d="M358 734 C415 734 462 776 462 837 C462 897 415 939 358 939 C299 939 252 897 252 837 C252 776 299 734 358 734 L358 734 Z M358 885 C383 885 401 866 401 836 C401 806 383 787 358 787 C332 787 313 806 313 836 C313 866 332 885 358 885 L358 885 Z M539 700 L539 266 C539 121 465 66 358 66 C250 66 178 128 178 266 L178 700 L88 700 L88 266 C88 70 200 -13 358 -13 C510 -13 625 68 625 266 L625 700 L539 700 Z " />
<glyph glyph-name="uring" unicode="&#x16f;" horiz-adv-x="555" d="M278 539 C336 539 383 581 383 641 C383 701 336 743 278 743 C219 743 172 701 172 641 C172 581 219 539 278 539 L278 539 Z M279 690 C304 690 322 670 322 641 C322 611 304 592 279 592 C253 592 234 611 234 641 C234 670 253 690 279 690 L279 690 Z M391 480 L391 215 C391 128 334 67 258 67 C195 67 160 100 160 182 L160 480 L72 480 L72 169 C72 48 130 -11 235 -11 C308 -11 363 26 394 75 L401 0 L478 0 L478 480 L391 480 Z " />
<glyph glyph-name="Uhungarumlaut" unicode="&#x170;" horiz-adv-x="713" d="M391 922 L307 955 L207 766 L258 741 L391 922 Z M576 922 L492 955 L392 766 L442 741 L576 922 Z M539 700 L539 266 C539 121 465 66 358 66 C250 66 178 128 178 266 L178 700 L88 700 L88 266 C88 70 200 -13 358 -13 C510 -13 625 68 625 266 L625 700 L539 700 Z " />
<glyph glyph-name="uhungarumlaut" unicode="&#x171;" horiz-adv-x="555" d="M303 728 L218 751 L135 557 L188 538 L303 728 Z M479 728 L393 751 L311 557 L364 538 L479 728 Z M391 215 C391 128 334 67 258 67 C195 67 160 100 160 182 L160 480 L72 480 L72 169 C72 48 130 -11 235 -11 C308 -11 363 26 394 75 L401 0 L478 0 L478 480 L391 480 L391 215 Z " />
<glyph glyph-name="Uogonek" unicode="&#x172;" horiz-adv-x="713" d="M539 700 L539 266 C539 121 465 66 358 66 C250 66 178 128 178 266 L178 700 L88 700 L88 266 C88 72 198 -12 354 -13 C321 -43 302 -78 302 -114 C302 -169 341 -197 401 -197 C427 -197 452 -191 469 -182 L469 -118 C453 -127 441 -132 424 -132 C401 -132 385 -119 385 -91 C385 -65 400 -34 445 -3 C552 25 625 108 625 266 L625 700 L539 700 Z " />
<glyph glyph-name="uogonek" unicode="&#x173;" horiz-adv-x="555" d="M436 -142 C413 -142 397 -129 397 -101 C397 -71 416 -35 478 0 L478 480 L391 480 L391 215 C391 128 334 67 258 67 C195 67 160 100 160 182 L160 480 L72 480 L72 169 C72 48 130 -11 235 -11 C308 -11 363 26 394 75 L401 3 C346 -31 314 -77 314 -124 C314 -179 353 -207 413 -207 C439 -207 464 -201 481 -192 L481 -128 C465 -137 453 -142 436 -142 L436 -142 Z " />
<glyph glyph-name="Wcircumflex" unicode="&#x174;" horiz-adv-x="917" d="M447 825 L551 738 L599 774 L447 930 L296 774 L344 738 L447 825 Z M806 700 L652 144 L641 89 L630 144 L478 700 L389 700 L424 578 L300 144 L289 87 L278 144 L116 700 L18 700 L240 0 L334 0 L462 445 L590 0 L684 0 L899 700 L806 700 Z " />
<glyph glyph-name="wcircumflex" unicode="&#x175;" horiz-adv-x="742" d="M375 632 L480 542 L527 578 L375 739 L224 578 L271 542 L375 632 Z M632 480 L528 105 L523 78 L517 105 L418 480 L332 480 L229 106 L224 79 L218 106 L117 480 L20 480 L174 0 L273 0 L355 281 L374 364 L393 281 L473 0 L569 0 L722 480 L632 480 Z " />
<glyph glyph-name="Ycircumflex" unicode="&#x176;" horiz-adv-x="617" d="M306 825 L409 738 L458 774 L306 930 L155 774 L202 738 L306 825 Z M601 700 L500 700 L311 379 L122 700 L16 700 L265 298 L265 0 L354 0 L354 304 L601 700 Z " />
<glyph glyph-name="ycircumflex" unicode="&#x177;" horiz-adv-x="490" d="M251 632 L355 542 L403 578 L251 739 L100 578 L147 542 L251 632 Z M380 480 L250 89 L116 480 L20 480 L199 0 L220 0 L203 -51 C187 -101 156 -117 117 -117 C92 -117 80 -114 71 -111 L71 -185 C80 -187 93 -190 122 -190 C188 -190 242 -163 269 -85 L470 480 L380 480 Z " />
<glyph glyph-name="Ydieresis" unicode="&#x178;" horiz-adv-x="617" d="M201 790 C234 790 258 813 258 845 C258 877 234 900 201 900 C166 900 143 877 143 845 C143 813 166 790 201 790 L201 790 Z M412 790 C446 790 469 813 469 845 C469 877 446 900 412 900 C378 900 354 877 354 845 C354 813 378 790 412 790 L412 790 Z M601 700 L500 700 L311 379 L122 700 L16 700 L265 298 L265 0 L354 0 L354 304 L601 700 Z " />
<glyph glyph-name="Zacute" unicode="&#x179;" horiz-adv-x="609" d="M422 830 L367 909 L175 804 L208 754 L422 830 Z M143 76 L557 631 L557 700 L46 700 L46 624 L454 624 L40 70 L40 0 L574 0 L574 76 L143 76 Z " />
<glyph glyph-name="zacute" unicode="&#x17a;" horiz-adv-x="476" d="M363 673 L292 739 L123 587 L168 542 L363 673 Z M147 71 L424 420 L424 480 L45 480 L45 409 L317 409 L41 59 L41 0 L438 0 L438 71 L147 71 Z " />
<glyph glyph-name="Zdotaccent" unicode="&#x17b;" horiz-adv-x="609" d="M304 782 C340 782 364 807 364 841 C364 875 340 899 304 899 C267 899 242 875 242 841 C242 807 267 782 304 782 L304 782 Z M143 76 L557 631 L557 700 L46 700 L46 624 L454 624 L40 70 L40 0 L574 0 L574 76 L143 76 Z " />
<glyph glyph-name="zdotaccent" unicode="&#x17c;" horiz-adv-x="476" d="M237 585 C273 585 298 611 298 646 C298 680 273 705 237 705 C200 705 174 680 174 646 C174 611 200 585 237 585 L237 585 Z M147 71 L424 420 L424 480 L45 480 L45 409 L317 409 L41 59 L41 0 L438 0 L438 71 L147 71 Z " />
<glyph glyph-name="Zcaron" unicode="&#x17d;" horiz-adv-x="609" d="M455 899 L407 934 L304 847 L200 934 L152 899 L304 742 L455 899 Z M143 76 L557 631 L557 700 L46 700 L46 624 L454 624 L40 70 L40 0 L574 0 L574 76 L143 76 Z " />
<glyph glyph-name="zcaron" unicode="&#x17e;" horiz-adv-x="476" d="M389 704 L342 740 L238 650 L133 740 L86 704 L238 543 L389 704 Z M147 71 L424 420 L424 480 L45 480 L45 409 L317 409 L41 59 L41 0 L438 0 L438 71 L147 71 Z " />
<glyph glyph-name="uni01EA" unicode="&#x1ea;" horiz-adv-x="766" d="M481 0 C622 37 713 159 713 352 C713 590 583 715 385 715 C189 715 54 586 54 352 C54 113 183 -13 382 -13 L385 -13 C347 -44 325 -82 325 -120 C325 -175 364 -204 424 -204 C450 -204 475 -197 491 -188 L491 -125 C476 -134 464 -139 447 -139 C423 -139 408 -125 408 -98 C408 -68 425 -35 481 0 L481 0 Z M147 352 C147 542 237 640 383 640 C527 640 619 542 619 352 C619 157 528 62 383 62 C239 62 147 157 147 352 L147 352 Z " />
<glyph glyph-name="uni01EB" unicode="&#x1eb;" horiz-adv-x="552" d="M364 2 C450 33 505 116 505 242 C505 411 413 491 276 491 C140 491 48 400 48 236 C48 73 133 -8 263 -13 C225 -44 203 -81 203 -120 C203 -175 243 -203 303 -203 C328 -203 354 -196 370 -188 L370 -124 C355 -133 342 -138 326 -138 C302 -138 287 -125 287 -97 C287 -68 304 -33 364 2 L364 2 Z M138 239 C138 357 188 421 276 421 C361 421 415 358 415 239 C415 119 363 58 277 58 C190 58 138 119 138 239 L138 239 Z " />
<glyph glyph-name="AEacute" unicode="&#x1fc;" horiz-adv-x="856" d="M599 830 L545 909 L352 804 L385 754 L599 830 Z M515 78 L493 321 L759 321 L759 400 L486 400 L465 623 L764 623 L764 700 L370 700 L-10 0 L83 0 L177 182 L418 182 L435 0 L830 0 L830 78 L515 78 Z M215 255 L382 577 L412 255 L215 255 Z " />
<glyph glyph-name="aeacute" unicode="&#x1fd;" horiz-adv-x="794" d="M522 673 L451 739 L282 587 L327 542 L522 673 Z M748 265 C748 414 675 491 555 491 C488 491 433 461 396 406 C369 464 313 491 229 491 C168 491 112 476 73 454 L73 380 C113 404 162 417 214 417 C299 417 336 377 336 302 L336 279 L237 279 C105 279 40 216 40 127 C40 41 99 -12 194 -12 C282 -12 348 37 374 102 C408 25 477 -12 575 -12 C627 -12 689 1 730 23 L730 95 C678 71 637 61 580 61 C485 61 430 110 424 219 L746 219 C748 234 748 245 748 265 L748 265 Z M554 422 C623 422 659 374 663 280 L426 280 C436 376 481 422 554 422 L554 422 Z M208 55 C160 55 124 80 124 131 C124 184 164 219 241 219 L336 219 L336 185 C335 113 281 55 208 55 L208 55 Z " />
<glyph glyph-name="Oslashacute" unicode="&#x1fe;" horiz-adv-x="773" d="M502 830 L448 909 L255 804 L288 754 L502 830 Z M716 715 L627 715 L584 660 C531 696 465 715 388 715 C192 715 57 586 57 352 C57 238 86 150 139 89 L57 -16 L146 -16 L191 41 C243 5 309 -13 385 -13 C581 -13 716 116 716 352 C716 464 687 552 636 612 L716 715 Z M151 352 C151 542 240 640 387 640 C445 640 494 624 532 593 L195 161 C167 208 151 271 151 352 L151 352 Z M623 352 C623 157 532 62 387 62 C330 62 281 77 242 107 L579 539 C607 493 623 430 623 352 L623 352 Z " />
<glyph glyph-name="oslashacute" unicode="&#x1ff;" horiz-adv-x="557" d="M406 673 L336 739 L166 587 L211 542 L406 673 Z M508 496 L427 496 L402 462 C368 482 326 491 279 491 C143 491 50 400 50 236 C50 158 69 99 104 58 L49 -16 L129 -16 L153 17 C188 -3 231 -13 279 -13 C414 -13 507 77 507 242 C507 321 487 380 452 421 L508 496 Z M140 239 C140 357 191 421 278 421 C308 421 334 413 355 398 L159 133 C147 161 140 196 140 239 L140 239 Z M417 239 C417 119 365 58 279 58 C248 58 222 66 201 81 L397 346 C410 318 417 282 417 239 L417 239 Z " />
<glyph glyph-name="uni0218" unicode="&#x218;" horiz-adv-x="551" d="M249 -13 C426 -13 506 80 506 201 C506 333 413 381 298 411 C197 437 146 461 146 534 C146 593 190 639 297 639 C362 639 425 623 473 597 L473 680 C427 702 371 715 296 715 C135 715 57 632 57 526 C57 407 150 358 258 332 C359 307 418 273 418 191 C418 104 349 63 245 63 C175 63 105 84 54 116 L54 29 C102 2 162 -13 249 -13 L249 -13 Z M248 -249 C300 -212 329 -153 329 -106 C329 -61 305 -44 272 -44 C243 -44 221 -64 221 -91 C221 -128 250 -131 250 -168 C250 -191 237 -207 221 -222 L248 -249 Z " />
<glyph glyph-name="uni0219" unicode="&#x219;" horiz-adv-x="448" d="M206 -12 C342 -12 405 47 405 137 C405 225 351 264 252 284 C150 306 130 316 130 357 C130 399 167 421 239 421 C287 421 337 411 381 387 L381 463 C341 481 295 491 233 491 C113 491 51 434 51 353 C51 267 105 234 205 215 C297 197 325 177 325 130 C325 82 284 58 203 58 C149 58 93 73 49 96 L49 18 C90 -2 142 -12 206 -12 L206 -12 Z M196 -249 C248 -212 277 -153 277 -106 C277 -61 253 -44 220 -44 C191 -44 170 -64 170 -91 C170 -128 198 -131 198 -168 C198 -191 185 -207 169 -222 L196 -249 Z " />
<glyph glyph-name="uni021A" unicode="&#x21a;" horiz-adv-x="564" d="M15 700 L15 620 L237 620 L237 0 L326 0 L326 620 L549 620 L549 700 L15 700 Z M282 -44 C254 -44 232 -64 232 -91 C232 -128 260 -131 260 -168 C260 -191 248 -207 231 -222 L259 -249 C310 -212 339 -153 339 -106 C339 -61 315 -44 282 -44 L282 -44 Z " />
<glyph glyph-name="uni021B" unicode="&#x21b;" horiz-adv-x="389" d="M296 64 C248 64 211 82 211 155 L211 408 L357 408 L357 480 L211 480 L211 599 L126 599 L126 480 L19 480 L19 408 L124 408 L124 143 C124 23 202 -9 285 -9 C320 -9 346 -5 364 4 L364 75 C340 66 325 64 296 64 L296 64 Z M252 -44 C224 -44 202 -64 202 -91 C202 -128 230 -131 230 -168 C230 -191 218 -207 201 -222 L229 -249 C280 -212 309 -153 309 -106 C309 -61 285 -44 252 -44 L252 -44 Z " />
<glyph glyph-name="uni0237" unicode="&#x237;" horiz-adv-x="251" d="M41 -185 C109 -185 173 -157 173 -33 L173 480 L85 480 L85 -31 C85 -98 60 -112 22 -112 C3 -112 -11 -109 -31 -100 L-31 -171 C-8 -182 9 -185 41 -185 L41 -185 Z " />
<glyph glyph-name="circumflex" unicode="&#x2c6;" horiz-adv-x="334" d="M321 578 L169 739 L18 578 L65 542 L169 632 L273 542 L321 578 Z " />
<glyph glyph-name="caron" unicode="&#x2c7;" horiz-adv-x="334" d="M274 740 L170 650 L66 740 L18 704 L170 543 L321 704 L274 740 Z " />
<glyph glyph-name="breve" unicode="&#x2d8;" horiz-adv-x="333" d="M170 560 C275 560 319 634 320 705 L266 719 C261 674 231 632 171 632 C114 632 85 663 76 719 L18 703 C21 626 68 560 170 560 L170 560 Z " />
<glyph glyph-name="dotaccent" unicode="&#x2d9;" horiz-adv-x="223" d="M115 585 C151 585 176 611 176 646 C176 680 151 705 115 705 C78 705 52 680 52 646 C52 611 78 585 115 585 L115 585 Z " />
<glyph glyph-name="ring" unicode="&#x2da;" horiz-adv-x="241" d="M124 539 C181 539 228 581 228 641 C228 701 181 743 124 743 C65 743 18 701 18 641 C18 581 65 539 124 539 L124 539 Z M124 592 C98 592 79 611 79 641 C79 670 98 690 124 690 C149 690 168 670 168 641 C168 611 149 592 124 592 L124 592 Z " />
<glyph glyph-name="ogonek" unicode="&#x2db;" horiz-adv-x="198" d="M117 -197 C143 -197 168 -190 184 -181 L184 -118 C169 -127 157 -132 140 -132 C116 -132 101 -118 101 -91 C101 -61 120 -25 182 10 L114 18 C54 -16 18 -64 18 -113 C18 -169 57 -197 117 -197 L117 -197 Z " />
<glyph glyph-name="tilde" unicode="&#x2dc;" horiz-adv-x="356" d="M244 587 C289 587 334 620 341 689 L274 709 C269 673 255 663 233 663 C196 663 174 704 118 704 C70 704 27 667 20 606 L87 585 C90 614 107 628 130 628 C166 628 186 587 244 587 L244 587 Z " />
<glyph glyph-name="hungarumlaut" unicode="&#x2dd;" horiz-adv-x="373" d="M71 538 L186 728 L101 751 L18 557 L71 538 Z M247 538 L362 728 L276 751 L194 557 L247 538 Z " />
<glyph glyph-name="gravecomb" unicode="&#x300;" d="M-70 543 L-24 588 L-194 740 L-265 673 L-70 543 Z " />
<glyph glyph-name="acutecomb" unicode="&#x301;" d="M-206 543 L-11 673 L-82 740 L-251 588 L-206 543 Z " />
<glyph glyph-name="uni0302" unicode="&#x302;" d="M-25 578 L-177 739 L-328 578 L-281 542 L-177 632 L-72 542 L-25 578 Z " />
<glyph glyph-name="tildecomb" unicode="&#x303;" d="M-127 587 C-81 587 -37 620 -30 689 L-97 709 C-102 673 -116 663 -138 663 C-174 663 -197 704 -252 704 C-301 704 -344 667 -351 606 L-284 585 C-280 614 -263 628 -241 628 C-205 628 -185 587 -127 587 L-127 587 Z " />
<glyph glyph-name="uni0304" unicode="&#x304;" d="M-312 596 L-25 596 L-25 673 L-312 673 L-312 596 Z " />
<glyph glyph-name="uni0306" unicode="&#x306;" d="M-174 560 C-69 560 -25 634 -24 705 L-78 719 C-82 674 -112 632 -173 632 C-229 632 -259 663 -268 719 L-326 703 C-323 626 -276 560 -174 560 L-174 560 Z " />
<glyph glyph-name="uni0307" unicode="&#x307;" d="M-133 585 C-96 585 -71 611 -71 646 C-71 680 -96 705 -133 705 C-170 705 -196 680 -196 646 C-196 611 -170 585 -133 585 L-133 585 Z " />
<glyph glyph-name="uni0308" unicode="&#x308;" d="M-292 590 C-256 590 -233 613 -233 646 C-233 679 -256 702 -292 702 C-327 702 -350 679 -350 646 C-350 613 -327 590 -292 590 L-292 590 Z M-81 590 C-46 590 -23 613 -23 646 C-23 679 -46 702 -81 702 C-116 702 -140 679 -140 646 C-140 613 -116 590 -81 590 L-81 590 Z " />
<glyph glyph-name="uni030A" unicode="&#x30a;" d="M-128 539 C-71 539 -24 581 -24 641 C-24 701 -71 743 -128 743 C-187 743 -234 701 -234 641 C-234 581 -187 539 -128 539 L-128 539 Z M-128 592 C-154 592 -173 611 -173 641 C-173 670 -154 690 -128 690 C-103 690 -84 670 -84 641 C-84 611 -103 592 -128 592 L-128 592 Z " />
<glyph glyph-name="uni030B" unicode="&#x30b;" d="M-306 538 L-191 728 L-276 751 L-358 557 L-306 538 Z M-130 538 L-15 728 L-100 751 L-183 557 L-130 538 Z " />
<glyph glyph-name="uni030C" unicode="&#x30c;" d="M-71 740 L-175 650 L-280 740 L-328 704 L-176 543 L-25 704 L-71 740 Z " />
<glyph glyph-name="uni0312" unicode="&#x312;" d="M-26 719 L-54 746 C-105 709 -134 650 -134 603 C-134 559 -110 541 -77 541 C-49 541 -26 560 -26 588 C-26 624 -54 629 -54 664 C-54 687 -42 704 -26 719 L-26 719 Z " />
<glyph glyph-name="uni0326" unicode="&#x326;" d="M-101 -249 C-49 -212 -20 -153 -20 -106 C-20 -61 -44 -44 -77 -44 C-106 -44 -128 -64 -128 -91 C-128 -128 -100 -131 -100 -168 C-100 -191 -112 -207 -128 -222 L-101 -249 Z " />
<glyph glyph-name="uni0327" unicode="&#x327;" d="M-169 -85 C-108 -85 -94 -98 -94 -125 C-94 -155 -120 -165 -186 -165 L-175 -219 C-73 -219 -17 -189 -17 -121 C-17 -68 -48 -45 -104 -42 L-101 0 L-153 0 L-169 -85 Z " />
<glyph glyph-name="uni0328" unicode="&#x328;" d="M-92 -197 C-67 -197 -41 -190 -25 -181 L-25 -118 C-40 -127 -53 -132 -69 -132 C-93 -132 -108 -118 -108 -91 C-108 -61 -90 -25 -27 10 L-96 18 C-155 -16 -192 -64 -192 -113 C-192 -169 -152 -197 -92 -197 L-92 -197 Z " />
<glyph glyph-name="uni0335" unicode="&#x335;" d="M-343 225 L-30 225 L-30 296 L-343 296 L-343 225 Z " />
<glyph glyph-name="uni0336" unicode="&#x336;" d="M-780 474 L-25 474 L-25 538 L-780 538 L-780 474 Z " />
<glyph glyph-name="uni0337" unicode="&#x337;" d="M-289 274 L-29 385 L-29 462 L-289 352 L-289 274 Z " />
<glyph glyph-name="uni0338" unicode="&#x338;" d="M-402 -16 L-24 496 L-104 496 L-483 -16 L-402 -16 Z " />
<glyph glyph-name="Wgrave" unicode="&#x1e80;" horiz-adv-x="917" d="M566 804 L373 909 L319 830 L533 754 L566 804 Z M806 700 L652 144 L641 89 L630 144 L478 700 L389 700 L424 578 L300 144 L289 87 L278 144 L116 700 L18 700 L240 0 L334 0 L462 445 L590 0 L684 0 L899 700 L806 700 Z " />
<glyph glyph-name="wgrave" unicode="&#x1e81;" horiz-adv-x="742" d="M472 588 L302 740 L231 673 L426 543 L472 588 Z M632 480 L528 105 L523 78 L517 105 L418 480 L332 480 L229 106 L224 79 L218 106 L117 480 L20 480 L174 0 L273 0 L355 281 L374 364 L393 281 L473 0 L569 0 L722 480 L632 480 Z " />
<glyph glyph-name="Wacute" unicode="&#x1e82;" horiz-adv-x="917" d="M566 830 L512 909 L319 804 L352 754 L566 830 Z M806 700 L652 144 L641 89 L630 144 L478 700 L389 700 L424 578 L300 144 L289 87 L278 144 L116 700 L18 700 L240 0 L334 0 L462 445 L590 0 L684 0 L899 700 L806 700 Z " />
<glyph glyph-name="wacute" unicode="&#x1e83;" horiz-adv-x="742" d="M501 673 L431 739 L261 587 L307 542 L501 673 Z M632 480 L528 105 L523 78 L517 105 L418 480 L332 480 L229 106 L224 79 L218 106 L117 480 L20 480 L174 0 L273 0 L355 281 L374 364 L393 281 L473 0 L569 0 L722 480 L632 480 Z " />
<glyph glyph-name="Wdieresis" unicode="&#x1e84;" horiz-adv-x="917" d="M342 790 C376 790 399 813 399 845 C399 877 376 900 342 900 C307 900 284 877 284 845 C284 813 307 790 342 790 L342 790 Z M553 790 C587 790 610 813 610 845 C610 877 587 900 553 900 C520 900 496 877 496 845 C496 813 520 790 553 790 L553 790 Z M806 700 L652 144 L641 89 L630 144 L478 700 L389 700 L424 578 L300 144 L289 87 L278 144 L116 700 L18 700 L240 0 L334 0 L462 445 L590 0 L684 0 L899 700 L806 700 Z " />
<glyph glyph-name="wdieresis" unicode="&#x1e85;" horiz-adv-x="742" d="M270 590 C305 590 328 613 328 646 C328 679 305 702 270 702 C235 702 211 679 211 646 C211 613 235 590 270 590 L270 590 Z M481 590 C515 590 539 613 539 646 C539 679 515 702 481 702 C445 702 422 679 422 646 C422 613 445 590 481 590 L481 590 Z M632 480 L528 105 L523 78 L517 105 L418 480 L332 480 L229 106 L224 79 L218 106 L117 480 L20 480 L174 0 L273 0 L355 281 L374 364 L393 281 L473 0 L569 0 L722 480 L632 480 Z " />
<glyph glyph-name="uni1E9E" unicode="&#x1e9e;" horiz-adv-x="709" d="M423 389 L414 389 L602 589 L602 671 C542 701 469 715 378 715 C190 715 89 617 89 475 L89 0 L178 0 L178 478 C178 571 237 637 377 637 C430 637 479 632 526 619 L304 378 L306 307 C320 310 361 315 403 315 C489 315 579 295 579 188 C579 100 514 63 424 63 C360 63 303 85 261 116 L261 29 C302 3 352 -13 433 -13 C596 -13 668 74 668 193 C668 346 549 389 423 389 L423 389 Z " />
<glyph glyph-name="Ygrave" unicode="&#x1ef2;" horiz-adv-x="617" d="M424 804 L232 909 L178 830 L392 754 L424 804 Z M601 700 L500 700 L311 379 L122 700 L16 700 L265 298 L265 0 L354 0 L354 304 L601 700 Z " />
<glyph glyph-name="ygrave" unicode="&#x1ef3;" horiz-adv-x="490" d="M347 588 L178 740 L107 673 L301 543 L347 588 Z M380 480 L250 89 L116 480 L20 480 L199 0 L220 0 L203 -51 C187 -101 156 -117 117 -117 C92 -117 80 -114 71 -111 L71 -185 C80 -187 93 -190 122 -190 C188 -190 242 -163 269 -85 L470 480 L380 480 Z " />
<glyph glyph-name="uni1EF8" unicode="&#x1ef8;" horiz-adv-x="617" d="M243 829 C283 829 321 785 373 785 C427 785 464 819 474 887 L413 904 C409 869 395 856 373 856 C333 856 296 901 240 901 C187 901 148 863 138 800 L199 783 C204 815 221 829 243 829 L243 829 Z M601 700 L500 700 L311 379 L122 700 L16 700 L265 298 L265 0 L354 0 L354 304 L601 700 Z " />
<glyph glyph-name="uni1EF9" unicode="&#x1ef9;" horiz-adv-x="490" d="M200 628 C236 628 256 587 314 587 C359 587 404 620 411 689 L344 709 C339 673 325 663 303 663 C266 663 244 704 188 704 C140 704 97 667 90 606 L157 585 C160 614 178 628 200 628 L200 628 Z M380 480 L250 89 L116 480 L20 480 L199 0 L220 0 L203 -51 C187 -101 156 -117 117 -117 C92 -117 80 -114 71 -111 L71 -185 C80 -187 93 -190 122 -190 C188 -190 242 -163 269 -85 L470 480 L380 480 Z " />
<glyph glyph-name="endash" unicode="&#x2013;" horiz-adv-x="615" d="M66 275 L549 275 L549 353 L66 353 L66 275 Z " />
<glyph glyph-name="emdash" unicode="&#x2014;" horiz-adv-x="915" d="M66 275 L849 275 L849 352 L66 352 L66 275 Z " />
<glyph glyph-name="quoteleft" unicode="&#x2018;" horiz-adv-x="216" d="M130 724 C80 680 51 626 51 573 C51 520 75 497 109 497 C137 497 160 517 160 547 C160 587 126 591 126 635 C126 658 139 680 158 697 L130 724 Z " />
<glyph glyph-name="quoteright" unicode="&#x2019;" horiz-adv-x="211" d="M86 500 C137 544 166 598 166 651 C166 703 141 727 108 727 C79 727 56 707 56 677 C56 637 91 633 91 589 C91 566 77 544 59 527 L86 500 Z " />
<glyph glyph-name="quotesinglbase" unicode="&#x201a;" horiz-adv-x="231" d="M90 -99 C141 -56 170 -1 170 52 C170 104 146 128 112 128 C84 128 60 108 60 78 C60 38 95 34 95 -10 C95 -33 81 -55 63 -72 L90 -99 Z " />
<glyph glyph-name="quotedblleft" unicode="&#x201c;" horiz-adv-x="368" d="M130 724 C80 680 51 626 51 573 C51 520 75 497 109 497 C137 497 160 517 160 547 C160 587 126 591 126 635 C126 658 139 680 158 697 L130 724 Z M283 724 C232 680 203 626 203 573 C203 520 228 497 261 497 C289 497 313 517 313 547 C313 587 278 591 278 635 C278 658 292 680 310 697 L283 724 Z " />
<glyph glyph-name="quotedblright" unicode="&#x201d;" horiz-adv-x="363" d="M86 500 C137 544 166 598 166 651 C166 703 141 727 108 727 C79 727 56 707 56 677 C56 637 91 633 91 589 C91 566 77 544 59 527 L86 500 Z M238 500 C289 544 318 598 318 651 C318 703 293 727 260 727 C232 727 208 707 208 677 C208 637 243 633 243 589 C243 566 229 544 211 527 L238 500 Z " />
<glyph glyph-name="quotedblbase" unicode="&#x201e;" horiz-adv-x="384" d="M90 -99 C141 -56 170 -1 170 52 C170 104 146 128 112 128 C84 128 60 108 60 78 C60 38 95 34 95 -10 C95 -33 81 -55 63 -72 L90 -99 Z M243 -99 C294 -56 322 -1 322 52 C322 104 298 128 264 128 C236 128 213 108 213 78 C213 38 247 34 247 -10 C247 -33 234 -55 215 -72 L243 -99 Z " />
<glyph glyph-name="dagger" unicode="&#x2020;" horiz-adv-x="465" d="M409 558 L274 558 L274 700 L191 700 L191 558 L56 558 L56 475 L191 475 L191 0 L274 0 L274 475 L409 475 L409 558 Z " />
<glyph glyph-name="daggerdbl" unicode="&#x2021;" horiz-adv-x="465" d="M409 475 L409 558 L274 558 L274 700 L191 700 L191 558 L56 558 L56 475 L191 475 L191 225 L56 225 L56 142 L191 142 L191 0 L274 0 L274 142 L409 142 L409 225 L274 225 L274 475 L409 475 Z " />
<glyph glyph-name="bullet" unicode="&#x2022;" horiz-adv-x="441" d="M220 132 C301 132 365 197 365 277 C365 356 301 421 220 421 C141 421 76 356 76 277 C76 197 141 132 220 132 L220 132 Z " />
<glyph glyph-name="ellipsis" unicode="&#x2026;" horiz-adv-x="653" d="M119 -11 C154 -11 181 18 181 52 C181 87 154 113 119 113 C85 113 57 87 57 52 C57 18 85 -11 119 -11 L119 -11 Z M327 -11 C362 -11 389 18 389 52 C389 87 362 113 327 113 C293 113 265 87 265 52 C265 18 293 -11 327 -11 L327 -11 Z M535 -11 C570 -11 597 18 597 52 C597 87 570 113 535 113 C501 113 473 87 473 52 C473 18 501 -11 535 -11 L535 -11 Z " />
<glyph glyph-name="perthousand" unicode="&#x2030;" horiz-adv-x="1255" d="M174 0 L263 0 L698 700 L610 700 L174 0 Z M210 316 C315 316 382 390 382 501 C382 618 315 690 210 690 C102 690 36 612 36 495 C36 384 102 316 210 316 L210 316 Z M211 380 C147 380 111 428 111 499 C111 575 147 626 211 626 C271 626 307 575 307 499 C307 428 271 380 211 380 L211 380 Z M659 4 C765 4 831 79 831 190 C831 307 765 379 659 379 C552 379 485 301 485 184 C485 73 552 4 659 4 L659 4 Z M1049 4 C1154 4 1221 79 1221 190 C1221 307 1154 379 1049 379 C941 379 875 301 875 184 C875 73 941 4 1049 4 L1049 4 Z M660 69 C596 69 560 117 560 187 C560 263 596 315 660 315 C720 315 756 263 756 187 C756 117 720 69 660 69 L660 69 Z M1050 69 C986 69 950 117 950 187 C950 263 986 315 1050 315 C1110 315 1146 263 1146 187 C1146 117 1110 69 1050 69 L1050 69 Z " />
<glyph glyph-name="guilsinglleft" unicode="&#x2039;" horiz-adv-x="299" d="M182 72 L244 119 L135 260 L243 398 L184 445 L39 257 L182 72 Z " />
<glyph glyph-name="guilsinglright" unicode="&#x203a;" horiz-adv-x="300" d="M118 445 L56 397 L165 256 L57 118 L116 72 L261 259 L118 445 Z " />
<glyph glyph-name="fraction" unicode="&#x2044;" horiz-adv-x="504" d="M-15 0 L81 0 L517 700 L421 700 L-15 0 Z " />
<glyph glyph-name="Euro" unicode="&#x20ac;" horiz-adv-x="610" d="M438 65 C329 65 237 114 205 241 L441 241 L457 303 L194 303 C193 318 192 335 192 352 C192 373 193 393 196 412 L441 412 L457 474 L209 474 C242 583 326 639 444 639 C506 639 551 630 581 618 L581 696 C541 709 496 715 439 715 C283 715 159 632 117 474 L33 474 L17 412 L106 412 C103 392 102 371 102 349 C102 333 103 318 104 303 L33 303 L17 241 L112 241 C147 69 271 -13 432 -13 C492 -13 541 -5 584 9 L584 87 C541 70 492 65 438 65 L438 65 Z " />
<glyph glyph-name="trademark" unicode="&#x2122;" horiz-adv-x="856" d="M33 640 L147 640 L147 350 L217 350 L217 640 L332 640 L332 700 L33 700 L33 640 Z M765 700 L692 700 L609 509 L592 463 L575 509 L490 700 L408 700 L392 350 L460 350 L467 563 L466 608 L560 391 L619 391 L709 606 L706 548 L714 350 L782 350 L765 700 Z " />
<glyph glyph-name="minus" unicode="&#x2212;" horiz-adv-x="610" d="M65 201 L545 200 L545 281 L65 281 L65 201 Z " />
<glyph glyph-name="approxequal" unicode="&#x2248;" horiz-adv-x="610" d="M397 268 C462 268 510 303 516 373 L448 389 C444 354 421 346 399 346 C346 346 269 389 209 389 C144 389 100 349 94 285 L157 270 C161 299 179 310 207 310 C268 310 341 268 397 268 L397 268 Z M397 67 C462 67 510 102 516 172 L448 188 C444 153 421 145 399 145 C346 145 269 188 209 188 C144 188 100 148 94 84 L157 69 C161 98 179 110 207 110 C268 110 341 67 397 67 L397 67 Z " />
<glyph glyph-name="notequal" unicode="&#x2260;" horiz-adv-x="610" d="M545 302 L545 377 L395 377 L419 453 L354 470 L325 377 L65 377 L65 302 L301 302 L259 167 L65 167 L65 92 L235 92 L210 13 L275 -5 L305 92 L545 92 L545 167 L329 167 L372 302 L545 302 Z " />
<glyph glyph-name="uniF8FF" unicode="&#xf8ff;" horiz-adv-x="1456" d="M754 522 C789 522 816 549 816 583 C816 618 789 645 754 645 C720 645 693 618 693 583 C693 549 720 522 754 522 L754 522 Z M102 270 L221 270 C221 425 213 544 211 584 L111 584 C109 544 102 423 102 270 L102 270 Z M606 264 C635 264 664 268 674 279 L674 353 C670 349 662 348 656 348 C649 348 643 350 641 352 L638 417 L699 417 C697 380 696 332 696 270 L814 270 C814 351 811 464 804 509 L626 509 L625 526 L506 496 L506 417 L528 417 C528 411 524 351 524 330 C524 287 552 264 606 264 L606 264 Z M330 265 C378 265 397 290 405 331 L413 270 L496 270 L496 397 C496 471 457 514 372 514 C280 514 238 464 238 379 C238 301 273 265 330 265 L330 265 Z M836 270 L950 270 C950 316 947 343 947 363 C947 380 949 392 965 392 C978 392 980 383 980 363 C980 343 978 316 978 270 L1092 270 L1089 408 C1087 479 1071 514 1012 514 C946 514 934 450 932 433 C932 453 929 487 926 509 L846 509 C839 464 836 351 836 270 L836 270 Z M1230 265 C1315 265 1353 312 1353 391 C1353 454 1329 514 1232 514 C1134 514 1108 453 1108 389 C1108 313 1145 265 1230 265 L1230 265 Z M368 345 C353 345 346 356 346 375 C346 394 353 401 368 401 C383 401 392 394 392 375 C392 356 383 345 368 345 L368 345 Z M1230 345 C1216 345 1209 356 1209 375 C1209 394 1216 401 1230 401 C1244 401 1253 394 1253 375 C1253 356 1244 345 1230 345 L1230 345 Z M392 -50 C507 -50 544 -6 544 100 C544 153 538 217 534 238 L430 238 L430 119 C430 99 426 92 414 92 C402 92 399 98 399 119 L399 238 L222 238 L223 256 L106 227 L106 147 L124 147 C123 133 121 81 121 66 C121 18 141 -5 202 -5 C252 -5 265 6 270 10 L270 83 C268 81 263 78 252 78 C244 78 240 80 237 82 L234 147 L289 147 L289 134 C289 77 320 51 379 51 C409 51 422 58 428 62 C428 56 420 34 374 34 C331 34 310 46 304 50 L304 -33 C312 -38 339 -50 392 -50 L392 -50 Z M560 -44 L679 -44 C679 -37 679 -20 678 -5 C770 -5 815 40 815 130 C815 204 784 243 735 243 C672 243 658 176 655 162 C655 180 650 226 648 238 L570 238 C568 210 560 126 560 -44 L560 -44 Z M972 -5 C1015 -5 1040 4 1050 11 L1050 86 C1036 78 1014 74 995 74 C964 74 950 84 945 92 L1069 92 C1071 101 1072 116 1072 127 C1072 202 1029 243 956 243 C876 243 831 195 831 117 C831 38 877 -5 972 -5 L972 -5 Z M940 109 C940 127 949 136 963 136 C976 136 982 127 980 109 L940 109 Z M672 72 C671 75 667 85 667 101 C667 123 675 132 689 132 C701 132 709 125 709 109 C709 78 679 72 672 72 L672 72 Z M1100 -10 C1114 -10 1124 -1 1124 13 C1124 27 1114 36 1100 36 C1086 36 1076 27 1076 13 C1076 -1 1086 -10 1100 -10 L1100 -10 Z M1100 -5 C1089 -5 1082 1 1082 13 C1082 25 1089 31 1100 31 C1111 31 1118 25 1118 13 C1118 1 1111 -5 1100 -5 L1100 -5 Z M1090 2 L1095 2 L1095 11 L1100 11 L1104 2 L1110 2 L1104 11 C1107 11 1111 13 1111 18 C1111 22 1108 25 1101 25 L1090 25 L1090 2 Z M1095 15 L1095 21 L1102 21 C1105 21 1106 20 1106 18 C1106 16 1105 15 1102 15 L1095 15 Z " />
<glyph glyph-name="fi" unicode="&#xfb01;" horiz-adv-x="553" d="M475 480 L193 479 L193 547 C193 632 232 655 285 655 C305 655 318 652 339 644 L339 716 C323 724 299 728 273 728 C189 728 105 689 105 536 L105 479 L28 479 L28 408 L105 408 L105 0 L193 0 L193 408 L388 408 L388 0 L475 0 L475 480 Z M432 704 C395 704 370 679 370 646 C370 611 395 586 432 586 C467 586 492 611 492 646 C492 679 467 704 432 704 L432 704 Z " />
<glyph glyph-name="fl" unicode="&#xfb02;" horiz-adv-x="569" d="M506 76 C487 76 473 83 473 114 L473 714 L386 714 C362 723 334 728 296 728 C202 728 105 679 105 521 L105 480 L28 480 L28 408 L105 408 L105 0 L193 0 L193 408 L309 408 L309 480 L193 480 L193 532 C193 622 242 655 304 655 C337 655 359 650 386 640 L386 89 C386 24 417 -3 478 -3 C500 -3 518 0 536 7 L536 82 C526 78 517 76 506 76 L506 76 Z " />
</font>
</svg>
