<?xml version="1.0" encoding="utf-8"?>
<!-- Generator: Adobe Illustrator 21.0.2, SVG Export Plug-In . SVG Version: 6.00 Build 0)  -->
<svg version="1.1" id="Layer_1" xmlns="http://www.w3.org/2000/svg" xmlns:xlink="http://www.w3.org/1999/xlink" x="0px" y="0px"
	 viewBox="0 0 98.7 158.8" style="enable-background:new 0 0 98.7 158.8;" xml:space="preserve">
<style type="text/css">
	.st0{fill:#D17028;fill-opacity:0.49;}
</style>
<g id="trk6_underlay">
	<path id="trk6:polygon_fill" class="st0" d="M46.7,31.7l1.8,11.1l0,0l0.4,2.1l5.9-1.1l0.2,0.9l0.4,1.3l0.3,1.3l0.7,1.7l0.7,1.6
		l0.6,1.2l1.8,3.7l1.2,2.5l2,4.5l1.4,1.9l2.7,4.7l1.2,2.3l0.9,2.2l3.7,5.7l1.8,2.4L71,84l2.5,3l4,5.5l1.5,2.2l1.2,1.7l1.4,5.6
		l-2.5-0.4h-0.3l-0.5-0.1l-2.3-0.3l-1.1-0.1l-1.3-0.2l0.8,2.2l1.2,2.9l3.3,7.7l2.6,6l2.8,6.5l14.1,32l-21.6,0.7l-1.3-0.4l-4.9-0.9
		l-2-3.3l-5.9-6.8l-2.7-2.1l-3.2-1.4l-5.6-2.3l-9.3-4.5l-17.8-11.3l-6.2-5.2l0,0l-8.4-9.1l-0.9-1l0,0l0,0l-1-1.4l-3.4-4.5l-0.1-0.2
		l-0.9-1.7l-0.7-1.4l-0.4-0.8l-2.3-6.3L0,93.9v-0.2l0.3-3.9V89v-1v-2.1l0.4-1.6l0.5-1.9l0.4-1.7l0.8-3.2l0,0V76l2.1-6.9l0.1-0.2
		l0.3-1L5,67.2L5.4,66l1-3.1l0.2-0.7l0,0L8,58l0.4-1.3l0.1-0.3l1.4-5.2L10,51l0.3-1.2l0.5-1.9l0.3-1.1l0.9-5.1l0.4-2.3l0.2-1.3
		l-0.2-4l0.3-4.2l0.3-3.5l0.6-1.9l0.4-1.2l0.9-2.2l0.2-0.4l0,0l0.2-0.7l1-3.6v-0.1L20,2l3.9-0.6l4.5-0.1l1.8-0.1L32.6,1l10.1-0.7
		L45.2,0l0.5,3.6l-0.5,5v1.6l0.3,0.6l0.8,1.6l0.2,0.7l-0.5,7l-0.3,4.1L46.7,31.7"/>
</g>
</svg>
