<?xml version="1.0" encoding="utf-8"?>
<!-- Generator: Adobe Illustrator 21.0.2, SVG Export Plug-In . SVG Version: 6.00 Build 0)  -->
<svg version="1.1" id="Layer_1" xmlns="http://www.w3.org/2000/svg" xmlns:xlink="http://www.w3.org/1999/xlink" x="0px" y="0px"
	 viewBox="0 0 202.3 201.1" style="enable-background:new 0 0 202.3 201.1;" xml:space="preserve">
<style type="text/css">
	.st0{fill:#7D8384;fill-opacity:0.49;}
</style>
<g id="trk7_underlay">
	<path id="trk7:polygon_fill" class="st0" d="M12.8,12.3l-1,10.6l7.3-1.1l2.3-0.4l6.8-1.1l1-0.2l0,0l5.5-1l0,0l2.9-0.3l4.6-0.1
		l12.4-0.4l0,0l0,0l0.6,5.9l0,0.4l0,0l5.8-0.6l0,0l4.8-0.5l7.7-0.8l1.3-0.1l0,0l6.6-0.4l0,0l5.4-0.6l0,0l0.5,1l0,0l1.7,3.9l0,0
		l3.1,7l0,0l0.1,0.2l0,0l4,9.5l3.7,8.6l2.3,5.4l0.2,0.9l0.5,3l0,0l0,0l-0.5,1.5l0,0.1l-4.1,1l-3.6,0.8l-0.5,0.1l0,0l0,0l0.1,4.3
		l0.1,5.6l0.1,3.6l0.1,2.5l0,0.3l0,3.1L94.5,87l-0.3,5l-0.5,5.5l-0.5,5.4l0,0.1l0.6,4.7l-9.5,1l-4.9,0.7l-9.3,0.9l-7,0.7l-3.1,0.3
		l-2,0.1l-2.3,0.1l-7.4,0.4l-1.9,1.2l-3.8-5.5l-3.2-4.4l-6.7,2.1l-1.8-2.4l-3.7-5.7l-0.9-2.2L25,92.9l-2.7-4.7l-1.4-1.9l-2-4.5
		l-1.2-2.5l-1.8-3.7l-0.6-1.2l-0.7-1.6L13.9,71l-0.3-1.3l-0.4-1.3L13,67.5l-5.9,1.1l-0.4-2.1l0,0L5,55.4l-1.1-7.5l0.3-4.1l0.6-7.1
		L4.6,36l-0.8-1.6l-0.3-0.6l0-1.6l0.5-5l-0.5-3.6l-0.3-1.8L0,15.5L8.8,6l1.7-1.8l3.8-3.6L15.2,0l-1.6,9.2L12.8,12.3"/>
</g>
<g id="trk12_underlay">
	<path id="trk12:polygon_fill" class="st0" d="M202,12.5L200,33.3l-1.6,4.6l-0.3,3.3l0.6,5.7l-3.9,5.6l-2.7,4.5l-3.4,4.6l-6.6,7.1
		l-10.5,9.8l-2.3-0.6l-6.8-0.2l-1.6-0.9l-0.1,0l-2.4-0.6l-0.2,0.5l-1,3.5l-8.8,0l-8.2-0.1l-4.9,0.1l-7.6,0l-5.7,0.6l-10.3,1.1
		L103,83l-8.3,1l0-3.1l0-0.3l-0.1-2.5l-0.1-3.6L94.4,69l-0.1-4.3l0,0l0,0l0.5-0.1l3.6-0.8l4.1-1l0-0.1l0.5-1.5l0,0l0,0l-0.5-3
		l-0.2-0.9l-2.3-5.4l-3.7-8.6l-4-9.5l0,0l-0.1-0.2l0,0l5.3-1.3l4.3-1.1l4.1-1l2.8-0.7l0.5-0.1l1-0.2l8.1-2l2.3-0.6l7.6-2l7.3-2
		l0.4-0.1l1.5-0.4l4.6-1.2l0.1,0l2.7-0.6l0.2,0l2,8.5l0.5,2.3l0,0.1l1.1-2.8l0.3-0.4l0-0.1l0.2-0.6l2.2-2.5l0.4-0.3l0.3-0.3l0.9-0.7
		l0.4-0.3l0.8-0.6l0.9-0.5l0.8-0.5l1.8-1.1l3.9-1.7l0.3-0.1l1.3-0.4l2.8-1.3l3.4-0.5l0.4-0.1l1.1-0.9l3.2-2.9l0.2,0l0,0l25.6-3.6
		l0.4-0.1l1.9-0.5L202,12.5"/>
</g>
<g id="trk21_underlay">
	<path id="trk21:polygon_fill" class="st0" d="M158.6,76.2l2.4,0.6l0.1,0l1.6,0.9l6.8,0.2l2.3,0.6l-3.4,3.2l-9.5,12.7l-16,29.2
		l-2.6,2.8l-3.9,8.7l-2.9,7.1l-2.9,6.3l-1.1,2.7l0.3,1.3l-6.3,2.8l-5.2,0.9l-2.2,1.3l-1.9,1.4l-3.1,1l-2.1,0.7l-2.6,2.1l-1,1.4
		l-2.6-0.7h-2.6l-1,3.5l-5.2,26.4l-3.2-0.9l-15.6,5.6l-8.6,3.1L57,181.8l-14.1-32l-2.8-6.5l-2.6-6l-3.3-7.7l-1.2-2.9l-0.8-2.2
		l1.3,0.2l1.1,0.1l2.3,0.3l0.5,0.1l0.3,0l2.5,0.4l-1.4-5.6l-1.2-1.7l-1.5-2.2l-4-5.5l-2.5-3l3.3-2.4l6.7-2.1l3.2,4.4l3.8,5.5
		l1.9-1.2l7.4-0.4l2.3-0.1l2-0.1L63,111l7-0.7l9.3-0.9l4.9-0.7l9.5-1l-0.6-4.7l0-0.1l0.5-5.4l0.5-5.5l0.3-5l0.2-2.9l8.3-1l8.9-1.1
		l10.3-1.1l5.7-0.6l7.6,0l4.9-0.1l8.2,0.1l8.8,0l1-3.5L158.6,76.2"/>
</g>
</svg>
