<?xml version="1.0" encoding="utf-8"?>
<!-- Generator: Adobe Illustrator 21.0.2, SVG Export Plug-In . SVG Version: 6.00 Build 0)  -->
<svg version="1.1" id="Layer_1" xmlns="http://www.w3.org/2000/svg" xmlns:xlink="http://www.w3.org/1999/xlink" x="0px" y="0px"
	 viewBox="0 0 381.9 79.3" style="enable-background:new 0 0 381.9 79.3;" xml:space="preserve">
<style type="text/css">
	.st0{fill:#809181;}
</style>
<g>
	<path class="st0" d="M11.8,54.1h6V15.7H25v18c1.6,0.5,3.2,0.8,4.9,0.9c1.7,0.1,3.3,0.2,4.8,0.2c4.7,0,8.1-0.9,10.2-2.8
		c2.2-1.8,3.2-4.6,3.2-8.2c0-4.1-1.7-7.2-5-9.2c-3.3-2-8.2-3-14.7-3c-7.3,0-12.8,0.8-16.5,2.3c-3.7,1.6-5.5,3.9-5.5,7.1
		c0,1.9,0.5,3.3,1.6,4.2c1.1,0.9,2.4,1.4,4,1.4c1.3,0,2.2-0.2,2.9-0.6l1.2,5.2c-0.6,0.4-1.4,0.7-2.4,0.8c-1,0.2-1.9,0.3-2.8,0.3
		c-1.4,0-2.8-0.2-4.1-0.7c-1.3-0.5-2.4-1.1-3.4-2c-1-0.9-1.8-2-2.4-3.4C0.3,24.8,0,23.2,0,21.4c0-2.6,0.6-4.9,1.9-6.9
		c1.3-2,3.2-3.6,5.6-4.9c2.4-1.3,5.4-2.3,8.9-3c3.5-0.7,7.5-1,11.9-1c9.2,0,16,1.5,20.4,4.5c4.4,3,6.6,7.5,6.6,13.5
		c0,5.6-1.8,9.9-5.4,12.8c-3.6,2.9-8.9,4.4-15.8,4.4c-1.3,0-2.8-0.1-4.4-0.2c-1.6-0.1-3.2-0.4-4.8-0.9v14.4h6.2v6H11.8V54.1z"/>
	<path class="st0" d="M112.1,7.1V13h-5.8L88.6,60.1h-7.8L63,13h-5.4V7.1H77V13h-6.4L85,53l14.4-40h-6.7V7.1H112.1z"/>
	<path class="st0" d="M115.6,54.1h6.3v-41h-6.3v-6h20.3c9.6,0,17,2.3,22.1,6.8c5.2,4.5,7.7,11.1,7.7,19.8c0,4.1-0.6,7.8-1.9,11.1
		c-1.3,3.3-3.1,6-5.5,8.3c-2.4,2.3-5.4,4-8.9,5.2c-3.5,1.2-7.6,1.8-12.1,1.8h-21.7V54.1z M138,54.1c6.5,0,11.6-1.8,15.1-5.3
		c3.6-3.5,5.3-8.5,5.3-14.9c0-6.9-1.9-12.1-5.8-15.6c-3.9-3.5-9.4-5.3-16.7-5.3h-6.8v41H138z"/>
	<path class="st0" d="M173.4,57.3h5.5V9.8h-5.8V7.1h14.6v2.7h-5.6v47.4h26.4v-9.4h3v9.9c0,0.9-0.2,1.5-0.5,1.8
		c-0.4,0.4-0.9,0.5-1.8,0.5h-35.9V57.3z"/>
	<path class="st0" d="M306.9,71.9c-2.2,2.4-4.6,4.2-7.3,5.5c-2.7,1.3-6,1.9-9.8,1.9c-2.4,0-5-0.5-7.9-1.5c-2.9-1-5.8-2.4-8.8-4.2
		c-3-1.8-6.1-3.9-9.2-6.3c-3.1-2.4-6.2-5-9.2-7.9c-2.1,1.6-4.4,2.8-7.1,3.6c-2.6,0.8-5.6,1.3-9,1.3c-6.4,0-11.5-1.4-15.2-4.2
		c-3.7-2.8-5.5-7-5.5-12.5c0-4.2,1.1-7.9,3.4-11c2.3-3.1,5.4-5.6,9.5-7.4c-1.4-2.7-2.5-5.2-3.2-7.7c-0.8-2.4-1.1-4.7-1.1-6.7
		c0-4.5,1.3-8.2,3.9-10.9c2.6-2.7,6.4-4.1,11.3-4.1c4.4,0,7.8,1,10.1,3.1c2.3,2.1,3.4,5.1,3.4,9.2c0,1.2-0.1,2.3-0.3,3.3
		c-0.2,1-0.4,2-0.7,2.9h-3.4c0.6-1.8,0.9-3.8,0.9-5.8c0-6.2-3.4-9.2-10.2-9.2c-3.9,0-6.7,1-8.7,3.1c-1.9,2-2.9,4.8-2.9,8.3
		c0,2.5,0.7,5.4,2,8.6c1.3,3.2,3.1,6.6,5.4,10.1c2.3,3.5,4.9,7.1,7.9,10.8c3,3.6,6.2,7.1,9.6,10.5c2.5-2.5,4.2-5.7,5.3-9.7
		c1.1-3.9,1.6-8.4,1.6-13.4h3.4c0,5.4-0.6,10.2-1.9,14.5c-1.3,4.3-3.3,7.9-6,10.8c2.9,2.7,5.8,5.2,8.7,7.5c2.9,2.3,5.8,4.3,8.7,6
		c2.8,1.7,5.5,3,8.1,4c2.6,1,5,1.4,7.2,1.4c3.2,0,6-0.5,8.3-1.6c2.3-1,4.5-2.7,6.5-4.9L306.9,71.9z M238.7,60.9c2.7,0,5.2-0.3,7.4-1
		c2.2-0.6,4.2-1.6,5.8-2.7c-4-3.9-7.7-8-11.1-12.3c-3.4-4.3-6.3-8.5-8.7-12.6c-3.3,1.5-5.9,3.5-7.8,6c-1.9,2.5-2.8,5.5-2.8,9.1
		c0,4.4,1.5,7.7,4.6,10C229.3,59.7,233.4,60.9,238.7,60.9z"/>
	<path class="st0" d="M327,7.1v2.8h-5.3v50.2H320c-0.6,0-1-0.1-1.3-0.3c-0.3-0.2-0.6-0.5-1-1l-31.9-46.3v44.7h5.5v2.8h-14.2v-2.8
		h5.4V9.9h-5.4V7.1h7.4c0.4,0,0.7,0,0.9,0.1c0.2,0.1,0.4,0.3,0.7,0.6l32.4,46.8V9.9h-5.6V7.1H327z"/>
	<path class="st0" d="M335.1,57.1h5.8V10h-5.8v-3h16.6c9.7,0,17.1,2.3,22.3,6.8s7.8,11.1,7.8,19.8c0,8.5-2.5,15-7.6,19.5
		c-5.1,4.5-12.4,6.8-21.9,6.8h-17.2V57.1z M352.4,57.1c8.5,0,15-2,19.4-6c4.4-4,6.7-9.8,6.7-17.4c0-7.8-2.3-13.6-6.9-17.7
		c-4.6-4-11.2-6-19.8-6h-7.6v47.1H352.4z"/>
</g>
</svg>
