<?xml version="1.0" encoding="utf-8"?>
<!-- Generator: Adobe Illustrator 21.0.2, SVG Export Plug-In . SVG Version: 6.00 Build 0)  -->
<svg version="1.1" id="Layer_1" xmlns="http://www.w3.org/2000/svg" xmlns:xlink="http://www.w3.org/1999/xlink" x="0px" y="0px"
	 viewBox="0 0 256.9 59.5" style="enable-background:new 0 0 256.9 59.5;" xml:space="preserve">
<style type="text/css">
	.st0{fill:#809181;}
</style>
<g>
	<path class="st0" d="M24.9,59.5c-3.9,0-7.4-0.6-10.5-1.9c-3.1-1.3-5.7-3.2-7.8-5.7c-2.1-2.5-3.8-5.6-4.9-9.3C0.6,39,0,34.8,0,30
		c0-4.6,0.6-8.7,1.7-12.4c1.2-3.7,2.8-6.9,5-9.5c2.2-2.6,4.8-4.6,7.8-6C17.6,0.7,21.1,0,24.9,0c3.3,0,6.1,0.4,8.6,1.3
		c2.4,0.8,4.5,2,6.2,3.6c1.7,1.5,2.9,3.4,3.7,5.5c0.8,2.2,1.3,4.6,1.3,7.2c0,1.5-0.1,2.9-0.3,4c-0.2,1.1-0.4,2.1-0.6,2.8h-6.7
		c0.2-1.1,0.4-2.1,0.5-3.1c0.1-0.9,0.1-1.9,0.1-2.8c0-3.7-1.1-6.6-3.2-8.8c-2.1-2.2-5.4-3.2-9.7-3.2c-5.5,0-9.8,2-12.9,6.1
		c-3,4.1-4.6,9.9-4.6,17.4c0,3.7,0.4,7,1.3,9.9c0.9,2.9,2.1,5.2,3.7,7.2c1.6,1.9,3.5,3.4,5.7,4.4c2.2,1,4.7,1.5,7.3,1.5
		c1.7,0,3.3-0.1,4.7-0.4c1.4-0.2,2.7-0.7,3.9-1.4c1.2-0.7,2.4-1.6,3.5-2.7s2.2-2.7,3.3-4.5l5,3.3c-2.3,4.4-5.2,7.6-8.7,9.4
		C33.6,58.5,29.5,59.5,24.9,59.5z"/>
	<path class="st0" d="M77,16.8c0.6,0,1.1,0,1.5,0.1c0.5,0,0.8,0.1,1.1,0.2v7.1c-0.6-0.2-1.4-0.4-2.4-0.4c-1.6,0-3,0.4-4.3,1.2
		c-1.3,0.8-2.5,1.9-3.5,3.3c-1.1,1.4-2,3.2-2.8,5.2c-0.8,2-1.5,4.3-2.2,6.9V48h7v6H51.3v-6h5.9V23.8h-5.9v-6.3h7.9
		c1.5,0,2.7,0.4,3.5,1.3c0.8,0.9,1.3,2,1.3,3.4v8.4c0.9-4.1,2.4-7.5,4.6-10C70.7,18.1,73.5,16.8,77,16.8z"/>
	<path class="st0" d="M117.1,48.2c-2,2.3-4.3,4-6.9,5.1s-5.5,1.7-8.4,1.7c-6,0-10.6-1.6-13.7-4.9c-3.1-3.2-4.7-7.9-4.7-13.9
		c0-2.9,0.5-5.5,1.4-8c0.9-2.4,2.2-4.5,3.9-6.3c1.7-1.8,3.7-3.1,6-4.1s5-1.5,7.9-1.5c4.5,0,8,1.1,10.3,3.2c2.4,2.1,3.6,4.9,3.6,8.2
		c0,3.6-1.2,6.4-3.5,8.5c-2.3,2.1-6,3.1-11.2,3.1c-1.4,0-3.1-0.1-5-0.3c-1.9-0.2-4-0.6-6.2-1.3c0.3,3.5,1.4,6.2,3.4,8
		s4.6,2.8,7.9,2.8c2.1,0,4-0.4,5.8-1.1c1.8-0.7,3.5-2,4.9-3.9L117.1,48.2z M102.1,22.3c-3,0-5.5,0.9-7.5,2.6c-2,1.8-3.2,4.1-3.8,7.2
		c1.6,0.6,3.4,1,5.3,1.3c1.9,0.3,3.7,0.4,5.6,0.4c2.3,0,4.1-0.4,5.6-1.2c1.5-0.8,2.2-2.3,2.2-4.3c0-1.7-0.6-3.1-1.8-4.2
		C106.5,22.9,104.6,22.3,102.1,22.3z"/>
	<path class="st0" d="M167.5,46.4c0,2.6-0.6,4.7-1.7,6.2s-3.2,2.3-6,2.3c-2.7,0-4.8-0.7-6.2-2.1c-1.4-1.4-2.1-3.2-2.1-5.4v-4.1
		c-1.1,3.6-2.9,6.4-5.4,8.5s-5.4,3.1-8.6,3.1c-2.3,0-4.3-0.4-6.1-1.3c-1.8-0.8-3.3-2-4.6-3.6c-1.3-1.6-2.2-3.5-2.9-5.7
		c-0.7-2.2-1-4.7-1-7.5c0-3,0.5-5.7,1.4-8.2c0.9-2.5,2.2-4.7,3.9-6.5c1.7-1.8,3.6-3.3,5.9-4.3c2.3-1,4.8-1.5,7.5-1.5
		c2,0,3.8,0.2,5.3,0.6c1.5,0.4,2.9,1.1,4.3,2.1V7.3h-5.6V1h8c1.6,0,2.8,0.4,3.6,1.2c0.8,0.8,1.2,2,1.2,3.7v40.8
		c0,1.5,0.7,2.3,2.1,2.3s2.1-0.8,2.1-2.5H167.5z M138.8,48.2c3,0,5.6-1.3,7.7-3.9c2.2-2.6,3.7-6.2,4.5-10.8v-7.4
		c-2.2-2.2-5.2-3.3-9-3.3c-3.6,0-6.5,1.2-8.7,3.7c-2.2,2.5-3.3,5.9-3.3,10.3c0,3.6,0.8,6.4,2.3,8.4
		C133.9,47.2,136.1,48.2,138.8,48.2z"/>
	<path class="st0" d="M170,48h5.7V23.8H170v-6.3h8.3c1.4,0,2.6,0.4,3.4,1.2c0.8,0.8,1.2,1.9,1.2,3.3v26h5.8v6H170V48z M177.9,12.1
		c-1.5,0-2.9-0.6-4-1.7c-1.1-1.1-1.7-2.5-1.7-4.2c0-1.7,0.6-3.1,1.7-4.1c1.1-1.1,2.4-1.6,4-1.6c1.5,0,2.9,0.5,4,1.6
		c1.1,1.1,1.7,2.5,1.7,4.1c0,1.7-0.6,3.1-1.7,4.2C180.8,11.5,179.4,12.1,177.9,12.1z"/>
	<path class="st0" d="M222.3,52c-1.1,1-2.5,1.8-4.2,2.3c-1.7,0.6-3.5,0.8-5.5,0.8c-4.4,0-7.7-1.1-10-3.3c-2.3-2.2-3.5-5.5-3.5-10
		V23.8h-8.4v-6.3h8.4V9.4l7.2-2.4v10.5h14v6.3h-14V41c0,2.8,0.6,4.8,1.9,6c1.2,1.2,3,1.8,5.3,1.8c1,0,2-0.2,3-0.5
		c1-0.3,1.8-0.9,2.7-1.7L222.3,52z"/>
	<path class="st0" d="M241.6,55.1c-8.2,0-13.7-2.7-16.7-8.2l5-3.8c1.3,2.2,2.9,3.7,4.8,4.7c1.8,1,4.2,1.4,7.3,1.4
		c2.6,0,4.6-0.4,6-1.2c1.4-0.8,2.1-1.9,2.1-3.5c0-0.7-0.1-1.4-0.4-1.9c-0.3-0.6-0.8-1-1.5-1.4c-0.7-0.4-1.8-0.8-3.1-1.1
		c-1.3-0.3-3-0.6-5.1-0.9c-4.6-0.7-7.9-1.9-10-3.7c-2.1-1.8-3.1-4.4-3.1-7.7c0-3.6,1.3-6.4,3.9-8.4c2.6-2,6.1-3,10.7-3
		c9.5,0,14.3,3.6,14.3,10.8c0,1.1-0.2,2.2-0.6,3.2h-6.4c0.3-0.8,0.4-1.7,0.4-2.7c0-1.9-0.6-3.3-1.9-4.2c-1.2-0.9-3.2-1.3-6-1.3
		c-2.4,0-4.3,0.4-5.6,1.3c-1.3,0.8-1.9,2.1-1.9,3.7c0,0.9,0.2,1.6,0.5,2.2c0.3,0.6,0.9,1.2,1.8,1.6c0.8,0.5,2,0.9,3.3,1.2
		c1.4,0.4,3.1,0.7,5.3,1c4.6,0.7,7.8,1.9,9.6,3.5c1.8,1.6,2.8,4,2.8,7.2c0,3.5-1.3,6.2-4,8.1C250.2,54.1,246.4,55.1,241.6,55.1z"/>
</g>
</svg>
