<?xml version="1.0" encoding="utf-8"?>
<!-- Generator: Adobe Illustrator 21.0.2, SVG Export Plug-In . SVG Version: 6.00 Build 0)  -->
<svg version="1.1" id="Layer_1" xmlns="http://www.w3.org/2000/svg" xmlns:xlink="http://www.w3.org/1999/xlink" x="0px" y="0px"
	 viewBox="0 0 545.7 108.9" style="enable-background:new 0 0 545.7 108.9;" xml:space="preserve">
<style type="text/css">
	.st0{fill:#FFFFFF;}
	.st1{fill:#7D8384;}
</style>
<g>
	<path class="st0" d="M0,70.6c0-8.6,5.4-14.3,13.9-14.3c4.7,0,7.8,1.4,10.4,4.2l-4,4c-1.4-1.7-3.3-2.6-6-2.6c-5.1,0-7.9,3.7-7.9,8.3
		c0,8,9.3,13,20.8,13c12.6,0,22.3-4.7,22.3-15.6c0-25.8-43.3-11.8-43.8-38.3c0-11.7,9-19,23.9-19c15.2,0,23.9,6,23.9,17.4
		c0,2-0.4,4.1-0.8,5.8H46c0.5-1.4,0.6-3.2,0.6-5c0-7.8-6.3-12-17.4-12c-10.7,0-16.6,4.5-16.6,12.3c0,19.8,43.8,7.5,43.8,38.2
		c0,15.3-12.7,22.6-29.2,22.6C11.1,89.5,0,82,0,70.6z"/>
	<path class="st0" d="M75,72.2h7.5V17.4H75v-5.9h48.1c2.7,0,4,1.2,4,4v12.4h-6.3V17.4H89.4v22.4h20v-5.3h5.9v16.9h-5.9v-5.8h-20
		v26.6h32.3V61.1h6.4V74c0,2.8-1.3,4-4.1,4H75V72.2z"/>
	<path class="st0" d="M146.5,72.2h7.5V17.4h-7.5v-5.9h48.1c2.7,0,4,1.2,4,4v12.4h-6.3V17.4h-31.3v22.4h20v-5.3h5.9v16.9H181v-5.8
		h-20v26.6h32.3V61.1h6.4V74c0,2.8-1.3,4-4.1,4h-49.1V72.2z"/>
	<path class="st1" d="M370.9,98.4c-5.4,5.9-12.4,10.5-24.2,10.5c-13.6,0-32.2-11.7-48.7-27.3c-5.4,3.5-12.2,5.4-20.6,5.4
		c-17.1,0-28.3-7.6-28.3-23c0-10.8,6.5-19.6,16.8-24.1c-3.4-6.9-5.4-13.4-5.4-18.8C260.4,8,268.1,0,281.9,0
		c12.6,0,19.5,6.1,19.5,17.4c0,3.4-0.7,7-1.7,9.5h-7.9c1-2.6,1.6-5.4,1.6-8.2c0-7.2-3.9-10.7-12-10.7c-8.8,0-13.1,4.8-13.1,12.7
		c0,12.7,13.5,33.4,30.2,50.6c5.6-6.4,8.1-16.6,8.1-29.1h7.8c0,14.4-3.3,26.5-10.6,34.4c15,14.2,31.6,25,43.1,25
		c9.1,0,14.2-2.9,18.9-8.3L370.9,98.4z M278.2,79.3c5.6,0,10.4-1.1,14.2-3.2c-9.2-9.5-17.5-20-23.3-30c-7.1,3.5-11.3,9.1-11.3,17
		C257.8,73.6,265.4,79.3,278.2,79.3z"/>
	<path class="st0" d="M402.4,72.1h7.7v-51h6.9v51h9c20.1,0,30.3-9.8,30.3-27.2c0-19.3-12.8-29.1-34.6-29.1c-18.9,0-28,4.4-28,12.8
		c0,4.8,3.2,7.7,7.7,7.7c1.9,0,3.3-0.5,4.5-1.4l1.4,5c-1.5,1.2-4.1,1.9-6.9,1.9c-7.2,0-12.7-4.8-12.7-12.7
		c0-12.5,11.9-19.1,34.4-19.1c27,0,41.4,12,41.4,34.7c0,20.9-13.3,33.2-37.4,33.2h-23.6V72.1z"/>
	<path class="st0" d="M481.9,44.5c0-21.4,12.6-34.5,32.1-34.5c20.3,0,31.7,13.2,31.7,34.7c0,21.2-12.4,34.4-31.8,34.4
		C493.5,79.1,481.9,66,481.9,44.5z M538.5,44.6c0-17.9-9-28.2-24.5-28.2c-15.6,0-24.8,10.5-24.8,28.2c0,17.9,9.3,28.1,24.8,28.1
		C529.5,72.7,538.5,62.5,538.5,44.6z"/>
</g>
</svg>
