<?xml version="1.0" encoding="utf-8"?>
<!-- Generator: Adobe Illustrator 21.0.2, SVG Export Plug-In . SVG Version: 6.00 Build 0)  -->
<svg version="1.1" id="Layer_1" xmlns="http://www.w3.org/2000/svg" xmlns:xlink="http://www.w3.org/1999/xlink" x="0px" y="0px"
	 viewBox="0 0 667.2 138.6" style="enable-background:new 0 0 667.2 138.6;" xml:space="preserve">
<style type="text/css">
	.st0{fill:#D17028;}
</style>
<g>
	<path class="st0" d="M20.6,94.5h10.4V27.5h12.6v31.5c2.8,0.8,5.6,1.4,8.6,1.6c2.9,0.2,5.7,0.3,8.4,0.3c8.1,0,14.1-1.6,17.9-4.8
		c3.8-3.2,5.7-8,5.7-14.4c0-7.2-2.9-12.6-8.7-16.1C69.6,22,61,20.2,49.7,20.2c-12.7,0-22.4,1.4-28.8,4.1c-6.5,2.7-9.7,6.9-9.7,12.4
		c0,3.4,0.9,5.8,2.8,7.4c1.8,1.6,4.1,2.4,6.9,2.4c2.3,0,3.9-0.4,5-1.1l2,9.1c-1.1,0.7-2.5,1.2-4.2,1.4c-1.7,0.3-3.3,0.4-4.8,0.4
		c-2.5,0-4.9-0.4-7.2-1.2c-2.3-0.8-4.2-2-6-3.5C4,50,2.6,48.1,1.6,45.7c-1-2.4-1.6-5.1-1.6-8.2c0-4.6,1.1-8.6,3.4-12.1
		c2.3-3.4,5.5-6.3,9.8-8.6c4.3-2.3,9.5-4,15.6-5.2c6.1-1.2,13.1-1.8,20.9-1.8c16.1,0,28,2.6,35.6,7.8c7.7,5.2,11.5,13.1,11.5,23.7
		c0,9.8-3.1,17.3-9.4,22.4c-6.3,5.1-15.5,7.7-27.6,7.7c-2.3,0-4.8-0.1-7.7-0.3c-2.8-0.2-5.6-0.7-8.4-1.6v25.2h10.8V105H20.6V94.5z"
		/>
	<path class="st0" d="M195.9,12.4v10.3h-10.1L154.7,105H141l-30.9-82.3h-9.4V12.4h34v10.3h-11.2l25.2,69.8l25.2-69.8H162V12.4H195.9
		z"/>
	<path class="st0" d="M202,94.5H213V22.8H202V12.4h35.5c16.8,0,29.7,4,38.7,11.9c9,7.9,13.5,19.4,13.5,34.5c0,7.2-1.1,13.7-3.3,19.4
		c-2.2,5.7-5.4,10.5-9.6,14.5c-4.2,4-9.4,7-15.5,9.1c-6.2,2.1-13.2,3.1-21.2,3.1h-38V94.5z M241,94.5c11.4,0,20.2-3.1,26.4-9.2
		c6.2-6.1,9.3-14.8,9.3-26c0-12.1-3.4-21.2-10.1-27.3c-6.8-6.1-16.5-9.2-29.1-9.2h-12v71.7H241z"/>
	<path class="st0" d="M303.1,100.2h9.7v-83h-10.1v-4.8h25.5v4.8h-9.8v82.9h46.2V83.6h5.2v17.2c0,1.5-0.3,2.6-0.9,3.2
		c-0.6,0.6-1.7,0.9-3.1,0.9h-62.6V100.2z"/>
	<path class="st0" d="M536.2,125.6c-3.8,4.2-8.1,7.4-12.8,9.6c-4.7,2.2-10.4,3.3-17.2,3.3c-4.2,0-8.8-0.9-13.8-2.6
		c-5-1.8-10.1-4.2-15.4-7.3c-5.3-3.1-10.7-6.7-16.1-10.9c-5.5-4.2-10.9-8.8-16.1-13.8c-3.6,2.7-7.7,4.8-12.3,6.3
		c-4.6,1.5-9.8,2.2-15.7,2.2c-11.3,0-20.1-2.4-26.5-7.3c-6.4-4.9-9.6-12.2-9.6-21.9c0-7.3,2-13.7,5.9-19.2c4-5.4,9.5-9.7,16.5-12.8
		c-2.4-4.7-4.3-9.2-5.6-13.4c-1.3-4.3-2-8.1-2-11.7c0-7.9,2.3-14.3,6.8-19C406.9,2.4,413.4,0,422,0c7.7,0,13.6,1.8,17.6,5.4
		c4,3.6,6,9,6,16c0,2.1-0.2,4-0.5,5.8c-0.3,1.8-0.8,3.5-1.2,5.1h-6c1.1-3.2,1.6-6.6,1.6-10.1c0-10.8-5.9-16.1-17.8-16.1
		c-6.8,0-11.8,1.8-15.1,5.4c-3.3,3.6-5,8.4-5,14.5c0,4.4,1.1,9.4,3.4,15c2.3,5.6,5.4,11.5,9.4,17.7c4,6.2,8.6,12.4,13.9,18.8
		c5.3,6.4,10.9,12.5,16.7,18.3c4.3-4.4,7.4-10,9.3-16.9c1.9-6.8,2.9-14.6,2.9-23.3h6c0,9.4-1.1,17.9-3.4,25.4
		c-2.3,7.5-5.8,13.8-10.6,18.9c5,4.7,10.1,9.1,15.2,13.1c5.1,4,10.2,7.5,15.1,10.5c4.9,3,9.7,5.3,14.2,7c4.6,1.7,8.7,2.5,12.5,2.5
		c5.7,0,10.5-0.9,14.5-2.7c4-1.8,7.8-4.7,11.3-8.6L536.2,125.6z M417.1,106.4c4.8,0,9.1-0.6,13-1.7c3.9-1.1,7.3-2.7,10.2-4.8
		c-6.9-6.8-13.4-14-19.4-21.5c-6-7.5-11-14.8-15.1-22.1c-5.8,2.6-10.3,6.2-13.6,10.6c-3.3,4.4-4.9,9.7-4.9,15.9
		c0,7.6,2.7,13.5,8,17.5C400.6,104.4,407.9,106.4,417.1,106.4z"/>
	<path class="st0" d="M571.3,12.4v4.9h-9.2V105h-3c-1,0-1.8-0.1-2.3-0.4c-0.5-0.3-1.1-0.9-1.7-1.7L499.4,22v78.1h9.7v4.9h-24.8v-4.9
		h9.4V17.3h-9.4v-4.9h12.9c0.7,0,1.2,0.1,1.5,0.3c0.3,0.2,0.7,0.5,1.2,1.1l56.6,81.8V17.3h-9.8v-4.9H571.3z"/>
	<path class="st0" d="M585.6,99.8h10.2V17.5h-10.2v-5.2h29.1c16.9,0,29.9,4,39,11.9s13.6,19.5,13.6,34.7c0,14.8-4.4,26.2-13.3,34.2
		C645,101,632.2,105,615.6,105h-30.1V99.8z M615.8,99.8c14.8,0,26.1-3.5,33.9-10.4c7.8-6.9,11.6-17.1,11.6-30.5
		c0-13.5-4-23.8-12-30.9c-8-7-19.6-10.5-34.7-10.5h-13.2v82.3H615.8z"/>
</g>
</svg>
