<?xml version="1.0" encoding="utf-8"?>
<!-- Generator: Adobe Illustrator 21.0.2, SVG Export Plug-In . SVG Version: 6.00 Build 0)  -->
<svg version="1.1" id="Layer_1" xmlns="http://www.w3.org/2000/svg" xmlns:xlink="http://www.w3.org/1999/xlink" x="0px" y="0px"
	 viewBox="0 0 654.6 113.6" style="enable-background:new 0 0 654.6 113.6;" xml:space="preserve">
<style type="text/css">
	.st0{fill:#FFFFFF;}
	.st1{fill:#82875D;}
</style>
<g>
	<path class="st0" d="M0,66.4C0,59,4.7,54.1,12.1,54.1c4.1,0,6.7,1.3,9,3.6l-3.4,3.4c-1.3-1.5-2.9-2.3-5.2-2.3C8,58.8,5.6,62,5.6,66
		c0,7,8.1,11.3,18,11.3c11,0,19.4-4.1,19.4-13.6c0-22.4-37.6-10.3-38-33.3c0-10.2,7.8-16.5,20.8-16.5c13.2,0,20.8,5.3,20.8,15.1
		c0,1.7-0.3,3.6-0.7,5H40c0.4-1.2,0.5-2.8,0.5-4.3c0-6.8-5.5-10.4-15.1-10.4C16.1,19.3,11,23.3,11,30c0,17.2,38,6.5,38,33.2
		c0,13.3-11.1,19.7-25.4,19.7C9.6,82.8,0,76.3,0,66.4z"/>
	<path class="st0" d="M77.9,67.7h6.3l0.1-47.5H68v9.2h-5.6l0.1-10.9c0-2.4,1-3.4,3.4-3.4h42.6c2.5,0,3.5,1,3.5,3.4v10.9h-5.5v-9.2
		H90.3v47.5h6.4v5.1H77.9V67.7z"/>
	<path class="st0" d="M178.1,67.8v5h-18.9v-5h6.6l-6.2-16h-24.5l-5.9,16h6.7v5h-18.8v-5h6.3l17.9-47.3H134v-5.4h14.1
		c2.7,0,3.6,1.1,4.4,3.1l19.8,49.6H178.1z M157.7,46.8l-9.4-24.2c-0.5-1.6-0.9-2.3-1.6-2.3l-9.7,26.5H157.7z"/>
	<path class="st0" d="M235.7,15.1v5H230l-18.9,31v16.7h6.6v5h-19.1v-5h6.5V51.1l-19-31h-5.6v-5h18.7v5h-6.5l15.5,26l15.5-26h-6.4v-5
		H235.7z"/>
	<path class="st1" d="M400.4,102.6c-5.6,6.1-12.9,10.9-25.3,10.9c-14.2,0-33.6-12.2-50.8-28.5c-5.6,3.6-12.7,5.6-21.5,5.6
		c-17.9,0-29.5-7.9-29.5-24c0-11.3,6.8-20.5,17.5-25.2c-3.5-7.2-5.6-14-5.6-19.6c0-13.6,8-22,22.5-22C320.8,0,328,6.3,328,18.1
		c0,3.5-0.7,7.3-1.8,9.9H318c1.1-2.7,1.6-5.6,1.6-8.6c0-7.5-4.1-11.2-12.5-11.2c-9.2,0-13.6,5.1-13.6,13.3
		c0,13.3,14.1,34.8,31.5,52.8c5.9-6.7,8.5-17.3,8.5-30.3h8.1c0,15-3.4,27.6-11.1,35.9c15.6,14.8,32.9,26.1,44.9,26.1
		c9.5,0,14.8-3.1,19.8-8.7L400.4,102.6z M303.8,82.6c5.9,0,10.8-1.2,14.8-3.3c-9.6-9.9-18.2-20.8-24.3-31.3
		c-7.4,3.6-11.8,9.5-11.8,17.8C282.5,76.8,290.4,82.6,303.8,82.6z"/>
	<path class="st0" d="M496.4,79.4c-2.7,4.4-7.6,7.4-14.9,7.4c-10.5,0-15.7-5.2-22.3-16.1l-13.2-21.9H446c-4.2,0-8.2-0.2-12.2-1.2
		v20.1h6.7v5h-18.8v-5h6.1V23.4h6v19.1c3.8,1,7.8,1.2,11.8,1.2c10,0,15.1-3.9,15.1-11.8c0-9.8-8.2-13.1-22.2-13.1
		c-16.7,0-24.9,3.8-24.9,11.1c0,4.4,2.8,6.7,6.7,6.7c1.6,0,3-0.4,3.9-1.2l1.2,4.3c-1.4,1.1-3.8,1.6-6,1.6c-6.2,0-11.2-3.9-11.2-11.1
		c0-10.9,10.8-16.5,30.3-16.5c18.3,0,28.3,4.6,28.3,18.2c0,9-5.1,14.6-14.3,16.3l10.6,17.3c7.8,12.6,11.1,16.1,18.8,16.1
		c5,0,8.3-1.9,10.7-5.6L496.4,79.4z"/>
	<path class="st0" d="M485,67.8h6.5V20.2H485v-5.1h41.8c2.4,0,3.5,1,3.5,3.4v10.7h-5.5v-9.1h-27.2v19.4h17.4V35h5.1v14.7h-5.1v-5
		h-17.4v23.1h28.1v-9.6h5.6v11.2c0,2.4-1.1,3.4-3.5,3.4H485V67.8z"/>
	<path class="st0" d="M545.8,60.4l5.2-3c3.8,7.9,9.2,11.1,19.1,11.1c9.7,0,15.4-3.4,15.4-10.3c0-6.7-4-9.4-17.2-11.8
		c-14.8-2.7-20.1-7.1-20.1-16.6c0-10,7.9-15.9,21.1-15.9c13.5,0,21,5.3,21,15.3c0,1.9-0.2,3.5-0.7,4.9h-5.8c0.4-1.1,0.5-2.6,0.5-4.2
		c0-7-5.6-10.5-15.3-10.5c-9.6,0-14.8,3.6-14.8,10c0,6.5,3.8,9.1,17.2,11.6c14.8,2.7,20.1,7.3,20.1,16.6c0,10.8-8,16.4-21.4,16.4
		C557.1,74,550,70,545.8,60.4z"/>
	<path class="st0" d="M620.4,67.7h6.3l0.1-47.5h-16.3v9.2h-5.6l0.1-10.9c0-2.4,1-3.4,3.4-3.4h42.6c2.5,0,3.5,1,3.5,3.4v10.9h-5.5
		v-9.2h-16.4v47.5h6.4v5.1h-18.8V67.7z"/>
</g>
</svg>
