<?xml version="1.0" encoding="utf-8"?>
<!-- Generator: Adobe Illustrator 21.0.2, SVG Export Plug-In . SVG Version: 6.00 Build 0)  -->
<svg version="1.1" id="Layer_1" xmlns="http://www.w3.org/2000/svg" xmlns:xlink="http://www.w3.org/1999/xlink" x="0px" y="0px"
	 viewBox="0 0 656.6 77.5" style="enable-background:new 0 0 656.6 77.5;" xml:space="preserve">
<style type="text/css">
	.st0{fill:#FFFFFF;}
	.st1{fill:#4C4C4C;}
</style>
<g>
	<path class="st0" d="M11.2,51.4h4.8V12.3C8.7,12.3,4.4,15,4.4,20c0,3.9,2.5,5.8,5.5,5.8c1.6,0,2.6-0.4,3.3-1l1,3.5
		c-1.1,0.8-3.1,1.3-4.9,1.3c-5.4,0-9.2-3.6-9.2-9.5C0,12.7,6.4,8.2,16.6,8.2h10v4.1H21v39h21.1v-8.6h4.4v9.8c0,2.1-0.8,2.9-2.9,2.9
		H11.2V51.4z"/>
	<path class="st0" d="M58.1,51.4h5.3v-39h-5.3V8.2h34.2c1.9,0,2.8,0.8,2.8,2.8v8.8h-4.5v-7.5H68.3v15.9h14.3v-3.8h4.2v12h-4.2v-4.1
		H68.3v18.9h23v-7.9h4.6v9.2c0,2-0.9,2.8-2.9,2.8H58.1V51.4z"/>
	<path class="st0" d="M156.6,51.4v4.1h-15.5v-4.1h5.4l-5.1-13.1h-20.1l-4.8,13.1h5.5v4.1h-15.4v-4.1h5.1l14.6-38.7h-6V8.2H132
		c2.2,0,3,0.9,3.6,2.5l16.2,40.7H156.6z M139.9,34.2l-7.7-19.8c-0.4-1.3-0.8-1.9-1.3-1.9l-8,21.7H139.9z"/>
	<path class="st0" d="M207.3,51.3v4.2h-6.4c-1.7,0-2.6-0.6-3.4-2l-11.2-18.6h-9.6v16.4h5.2v4.1h-15.3v-4.1h5.1v-39h-5.1V8.2h21.1
		c9.9,0,16.2,3.9,16.2,13.5c0,7.5-4.8,12.1-12.2,13l10.1,16.6H207.3z M176.7,30.9h12.1c5.7,0,10-2.8,10-9.2c0-6.7-4.5-9.3-11.6-9.3
		h-10.6V30.9z"/>
	<path class="st0" d="M265,8.2v4.1h-5.1v43.2H257c-1.5,0-2.2-0.4-3.1-1.8l-25.4-36.2v33.9h5.2v4.1h-15v-4.1h5.1v-39h-5.1V8.2h7.5
		c1,0,1.3,0.2,2,1.1l27,38.5V12.3h-5.3V8.2H265z"/>
	<path class="st1" d="M386.3,70.1c-3.9,4.2-8.8,7.5-17.3,7.5c-9.7,0-23-8.3-34.7-19.4c-3.9,2.5-8.7,3.9-14.7,3.9
		c-12.2,0-20.1-5.4-20.1-16.4c0-7.7,4.7-14,12-17.2c-2.4-4.9-3.9-9.6-3.9-13.4c0-9.3,5.5-15,15.3-15c9,0,13.9,4.3,13.9,12.4
		c0,2.4-0.5,5-1.2,6.7H330c0.7-1.8,1.1-3.9,1.1-5.9c0-5.1-2.8-7.6-8.5-7.6c-6.3,0-9.3,3.5-9.3,9.1c0,9.1,9.6,23.8,21.5,36
		c4-4.6,5.8-11.8,5.8-20.7h5.5c0,10.3-2.3,18.9-7.5,24.5c10.7,10.1,22.5,17.8,30.7,17.8c6.5,0,10.1-2.1,13.5-5.9L386.3,70.1z
		 M320.3,56.4c4,0,7.4-0.8,10.1-2.2c-6.6-6.7-12.4-14.2-16.6-21.4c-5.1,2.5-8,6.5-8,12.1C305.8,52.4,311.2,56.4,320.3,56.4z"/>
	<path class="st0" d="M395.4,50.3c0-6.1,3.9-10.1,9.9-10.1c3.3,0,5.5,1,7.4,3l-2.8,2.8c-1-1.2-2.4-1.9-4.2-1.9
		c-3.7,0-5.7,2.6-5.7,5.9c0,5.7,6.6,9.2,14.8,9.2c9,0,15.9-3.3,15.9-11.1c0-18.4-30.8-8.4-31.1-27.3c0-8.3,6.4-13.6,17-13.6
		c10.9,0,17,4.3,17,12.4c0,1.4-0.3,3-0.6,4.1h-4.8c0.3-1,0.4-2.3,0.4-3.5c0-5.6-4.5-8.5-12.4-8.5c-7.6,0-11.8,3.2-11.8,8.7
		c0,14.1,31.1,5.3,31.1,27.2c0,10.9-9.1,16.1-20.8,16.1C403.3,63.7,395.4,58.4,395.4,50.3z"/>
	<path class="st0" d="M448.8,51.4h5.3v-39h-5.3V8.2h15.5v4.1h-5.3v16.2h26.7V12.3h-5.3V8.2h15.6v4.1h-5.3v39h5.3v4.1h-15.6v-4.1h5.3
		V32.9h-26.7v18.5h5.3v4.1h-15.5V51.4z"/>
	<path class="st0" d="M556.9,51.4v4.1h-15.5v-4.1h5.4l-5.1-13.1h-20.1l-4.8,13.1h5.5v4.1h-15.4v-4.1h5.1l14.6-38.7h-6V8.2h11.6
		c2.2,0,3,0.9,3.6,2.5l16.2,40.7H556.9z M540.1,34.2l-7.7-19.8c-0.4-1.3-0.8-1.9-1.3-1.9l-8,21.7H540.1z"/>
	<path class="st0" d="M607.6,51.3v4.2h-6.4c-1.7,0-2.6-0.6-3.4-2l-11.2-18.6h-9.6v16.4h5.2v4.1h-15.3v-4.1h5.1v-39h-5.1V8.2h21.1
		c9.9,0,16.2,3.9,16.2,13.5c0,7.5-4.8,12.1-12.2,13L602,51.3H607.6z M576.9,30.9h12.1c5.7,0,10-2.8,10-9.2c0-6.7-4.5-9.3-11.6-9.3
		h-10.6V30.9z"/>
	<path class="st0" d="M618.8,51.4h5.3v-39h-5.3V8.2H653c1.9,0,2.8,0.8,2.8,2.8v8.8h-4.5v-7.5h-22.3v15.9h14.3v-3.8h4.2v12h-4.2v-4.1
		h-14.3v18.9h23v-7.9h4.6v9.2c0,2-0.9,2.8-2.9,2.8h-34.9V51.4z"/>
</g>
</svg>
