<?xml version="1.0" encoding="utf-8"?>
<!-- Generator: Adobe Illustrator 21.0.2, SVG Export Plug-In . SVG Version: 6.00 Build 0)  -->
<svg version="1.1" id="Layer_1" xmlns="http://www.w3.org/2000/svg" xmlns:xlink="http://www.w3.org/1999/xlink" x="0px" y="0px"
	 viewBox="0 0 288.3 323.3" style="enable-background:new 0 0 288.3 323.3;" xml:space="preserve">
<style type="text/css">
	.st0{fill:#7D8384;fill-opacity:0.49;}
</style>
<g id="trk1_underlay">
	<path id="trk1:polygon_fill" class="st0" d="M29.5,221.5l-3.8,5.6l-0.9-4.4l-2.3-11l-0.8-2.2l-2-4L18,202l-1.7-3.4l-1.9-4.6
		l-2.5-4.8l-1.7-3.4L7,179.2l-2.2-4.5l-2-4.5l-2.1-4l0,0l0,0l0.4-1.4l0.6-1.7l0.9-3.3l0.3-2.4l0.7-7.5l-1-2.7l-0.5-2l-0.5-2.6
		l-0.3-1.9l-0.8-4.5l-0.4-2L0,130.4v-1.5l0.3-2.2l0.8-5.3l1-3.7l0.4-2.1l1-4.2l1-4.3l0.7-3.9L6.1,99L7,94.7l0.9-4.2l0.4-2.1l0.2-2.1
		l0.3-3.8L9,82l0.3-3.3l0.1-1.1l0.3-2.7L10,73l0.2-2.2l0.7-2.4l0.7-2l1.8-3.3l0.4-0.8l2.1-4.1l2-4.2l2.9-6.1l1.6-2.9l0.9-1.8
		l1.7-2.4l0.1,2.2l0.6,3l0.7,3.8l1.6,7.5l1.1,5.3l0.7,3.6l0.4,2.2l0.9,3.9l0.2,0.6l1,4.4l0.9,4.3l0.3,1.1l0.8,3.3l0.2,1l0.7,2.9
		l0.5,2.3l0.4,1.7l0.7,2.9l0.3,1.3l0.7,2.9l0.5,2.5l0.6,2.9l0.2,0.8l0.9,3.9l0.6,2.7L41,117l0.7,3.2l1.3,2.3l1.5,2.7l0.4,0.7l2.8,3
		l4.2,4.6l2.8,3.1l3.6,3.9l3.7,3.9l2,2.1l2.8,3l3.3,3.6l9.2,10l4.7,5.1l1,1.1l1.4,1.6l1.2,1.3L76.8,179L65,186.7L51.7,195l-2.6,3
		l-1.5,1.7l-8,8.9l-2.3,2.8L36,213l-2.6,3.2l-1.5,2l-1.7,2.2L29.5,221.5"/>
</g>
<g id="trk4_underlay">
	<path id="trk4:polygon_fill" class="st0" d="M108.9,47.9l1.3,0.4l21.6-0.7l9.5,19.4l-12.6,4.3l-1.2,0.4l-9.1,3.2l-18.2,6l-8,2.6
		l0,0l-6.2,2l-4.7,1.4l-3.8,1.2l-1.6,0.6l-4.2,1.4l-1.9,0.5l-4.4,1.3L61,93.5l-8,2.6l-3.5,1L41,99.8l-3.5,1.1L36.8,98l-0.3-1.3
		l-0.7-2.9l-0.4-1.7l-0.5-2.3l-0.7-2.9l-0.2-1l-0.8-3.3l-0.3-1.1L32,77.2l-1-4.4l-0.2-0.6l-0.9-3.9l-0.4-2.2l-0.7-3.6l-1.1-5.3
		l-1.6-7.5l-0.7-3.8l-0.6-3l-0.1-2.2l0.9-2.8l1.7-4.3l1.8-4.3l1.5-3.6l-8.4-13.1L22,10.9l2.4-0.2L26,10l3.2-2l1.5-1l2.5-1.5l0.4-0.2
		l4.2-2.6l2-1.4L42.1,0L43,1l8.4,9.1l0,0l6.2,5.2l17.8,11.3l9.3,4.5l5.6,2.3l3.2,1.4l2.7,2.1l5.9,6.8l2,3.3L108.9,47.9"/>
</g>
<g id="trk13_underlay">
	<path id="trk13:polygon_fill" class="st0" d="M186.7,94.3l2.2,1.7l12.9,11.8l12.4,9.7l22.8,40.2l4.1,6.9l9.2,12.6l16.4,22.7
		l10.4,21.8l11,26.4l-7.4-1.4l-30.4-6.4L222,234l-12.2-3l-8.9-2.2l-3.2-0.9l-2.7-0.1h-2l-6.1-0.1l-5.5-0.2l-0.6-0.1l-3.1,0.2
		l-11,0.2l-2.5,0.1h-0.9l-31.9,1.6l-2.1,0.5l-0.1-0.4l-8.5,0.1l-5,0.1v-0.1l-7.5,0.1l-0.1-0.3l-1-2.1l-0.2-0.4l-0.3-0.7l-0.8-1.7
		l-0.5-1l-0.4-0.8l-0.6-1.3l-0.7-1.4l-0.1-0.3l-1,0.5l-0.8,0.3l-4.6,2.2l-0.1-0.4l-0.7-1.4l-0.8-1.7l-0.2-0.3l-0.7,0.3l-0.7,0.3
		l-1.3,0.7l-2.1,1l-2.1-0.7l-0.6-1.4l-1.5,0.6l-0.3-0.6l-0.7-1.4l-0.5,0.2l-0.7,0.3l-1.2,0.6l-0.9,0.4l-0.7,0.3l-0.1,0.1l-0.8,0.4
		l-0.9,0.4l-1.1,0.5l-1.4,0.7l-0.6-1.4l-0.4-0.7l-0.7-1.5l-0.7-1.3l-0.4-0.8l-0.4-0.9l-1.4-1.5l-1.2-1.3l-0.4-0.5l0.4-0.5l0.3-0.2
		l28.1-26.6l-0.8-0.9l-2.3-2.3l-3.2-3.5l-4.2-4.4l-1.7-1.8l5.9-4.1l17.2-12l1.4-0.9l26-16.1l1.3-1.2l46.1-42.2L186.7,94.3"/>
</g>
<g id="trk15_underlay">
	<path id="trk15:polygon_fill" class="st0" d="M115.6,230.2v0.4v1.9v1.7l0.2,0.5l1.3,3.3l4.9,12.3l-0.1,0.3l-0.1,0.2l-0.8,2.8
		l-0.3,1.1l-0.7,2.6l-0.2,0.9l-0.5,1.7L119,261l-0.5,1.9l-0.4,1.5v0.1l-0.3,0.5l-0.6,1l-2.4,3.8L114,271l-1.2,1.9l-0.3-0.1l-0.3,0.7
		l-0.6,1.4l-0.2,0.4l-1.8-0.7l-1.2-0.5l-0.6,0.1l-0.9,2.1l-0.1,0.2l-1.2,0.8l-0.5,0.4l-0.7,0.5l-0.2,0.1l-0.9,0.6l-1,0.7l-0.2,0.1
		l-1.1,0.8l-0.6,0.4l-0.8,0.6l-1,0.7l-1.2,0.8l-0.7,0.5l-1.3,0.9l-0.2,0.1l-0.7-0.2L93,284v0.1l-0.2,1l-0.2,1l-0.2,1l-0.2,1l-0.2,1
		l-0.2,1l-0.2,1l-0.2,1l-0.2,1l-0.2,1l-0.2,1l-0.2,0.8l-0.2,1.1l-0.2,0.9l-0.2,0.9l-0.2,0.9l-0.2,0.7l-0.2,1l-0.2,1l-0.2,1l-0.2,1
		l-0.2,1l-0.2,1l-0.2,1l-0.2,1l-0.2,1l-0.2,1l-0.2,0.8l-0.2,1l-0.2,1l-1,0.9l-1.4,1.3l-1.2,1.1l-1.2,1.1l-5.5,5l-1.9-0.9l-3.8-1.8
		l-0.1-0.1l-0.1-0.1l-0.1-0.1l-0.1-0.1l-0.1-0.1l-0.1-0.1h-0.1h-0.1h-0.1H70h-0.1h-0.1h-0.1h-0.1h-0.1h-0.1h-0.1h-0.1h-0.1H69h-0.1
		l-3.5-0.9h-0.1h-0.1h-0.1H65h-0.1h-0.1h-0.1h-0.1h-0.1h-0.1h-0.1h-0.1l-0.1-0.1l-0.1-0.1l-0.1-0.1l-0.1-0.1l-0.1-0.1l-0.1-0.1
		l-0.1-0.1l-0.1-0.1l-0.1-0.1l-0.1-0.1l-0.1-0.1l-0.1-0.1l0,0l-0.1-0.1l-0.1-0.1l-0.1-0.1l-0.1-0.1l-0.1-0.1l-0.1-0.1l-0.1-0.1
		l-0.1-0.1l-0.1-0.1l-0.1-0.1l-0.1-0.1l-0.1-0.1l-0.1-0.1l-0.1-0.1l-0.1-0.1l-0.1-0.1l-0.1-0.1l-0.1-0.1l-0.1-0.1l-0.1-0.1l-0.1-0.1
		l-0.1-0.1l-2.3-1.9l-1-0.9l-1.1-1l0,0l-0.9-0.8l-1-0.9l-0.7-0.6l-0.6-0.5l-0.8-0.7l0,0l-0.9-0.9l-1.1-1.1l-1.6-1.6l-0.3-0.3v-0.1
		l-0.1-0.1l-0.1-0.1l-0.1-0.1l-0.1-0.1l-0.1-0.1l-0.1-0.1l-0.1-0.1l-0.1-0.1l-0.1-0.1l-0.1-0.1l-0.1-0.1l-0.1-0.1l-0.1-0.1l-0.1-0.1
		l-0.1-0.1l-0.1-0.1l-0.1-0.1l-0.1-0.1l-0.1-0.1l-0.1-0.1l-0.1-0.1l-0.1-0.1l-0.1-0.1l-0.1-0.1l-0.1-0.1l-0.1-0.1l-0.1-0.1l-0.1-0.1
		l-0.1-0.1l-0.1-0.1l-0.1-0.1l-0.1-0.1l-0.1-0.1h-0.1l-0.2-0.1l-0.2-0.1l-0.2-0.1l-0.2-0.1l-0.2-0.1l-0.2-0.1l-0.2-0.1l-0.2-0.1l0,0
		l-0.1-0.1l-0.1-0.1l-0.1-0.1l-0.1-0.1l-0.1-0.1l-0.1-0.1l-0.1-0.1l-0.1-0.1l-0.1-0.1l-0.1-0.1l-0.1-0.1l-0.1-0.1l-0.1-0.1l-0.1-0.1
		l-0.1-0.1h-0.1h-0.1h-0.1h-0.1h-0.1h-0.1h-0.1h-0.1h-0.1H41h-0.1h-0.1h-0.1h-0.1h-0.1h-0.1h-0.1h-0.1l0.4-1.2v-0.7v-0.1l-7.9-2.2
		l-14.6-4l-0.2-0.1l7.2-26.4l0.4-1.4l2-7.2l0.3-0.9l0.3-0.9l0.3-1.1l0.2-0.7l0.2-0.7l0.4-1.5l0.2-0.7l0.2-0.7l0.2-0.7l0.2-0.7
		l0.2-0.7l0.2-0.7l0.2-0.7l0.2-0.7l0.2-0.7l0.2-0.7l0.2-0.7l0.3-1.1l0.3-1.1l0.6-2.2l0.3-1.1l0.5-1.9l0.6-2.2l0.7-2.5l-4.5-0.1h-1.6
		l0.2-0.8l0.4-0.8l3.8-5.6l0.7-1.1l1.7-2.2l1.5-2L36,213l1.3-1.6l2.3-2.8l8-8.9l1.5-1.7l2.6-3l13.2-8.2l11.8-7.7l10.8-6.8l1.7,1.8
		l4.2,4.4l3.2,3.5l2.3,2.3l0.8,0.9l-28.1,26.6l-0.3,0.2l-0.4,0.5l0.4,0.5l1.2,1.3l1.4,1.5l0.4,0.9l0.4,0.8l0.7,1.3l0.7,1.5l0.4,0.7
		l0.6,1.4l1.4-0.7l1.1-0.5l0.9-0.4l0.8-0.4l0.1-0.1l0.7-0.3l0.9-0.4l1.2-0.6l0.7-0.3l0.5-0.2l0.7,1.4l0.3,0.6l1.5-0.6l0.6,1.4
		l2.1,0.7l2.1-1l1.3-0.7l0.7-0.3l0.7-0.3l0.2,0.3l0.8,1.7l0.7,1.4l0.1,0.4l4.6-2.2l0.8-0.3l1-0.5l0.1,0.3l0.7,1.4l0.6,1.3l0.4,0.8
		l0.5,1l0.8,1.7l0.3,0.7l0.2,0.4l1,2.1l0.1,0.3L115.6,230.2L115.6,230.2"/>
</g>
<g id="trk22_underlay">
	<path id="trk22:polygon_fill" class="st0" d="M168.8,59.3l2.6,23.6l15.4,11.5l-1.3,1.6l-46.1,42.2l-1.3,1.2l-26,16.1l-1.4,0.9
		l-17.2,12l-5.9,4.1l-1.2-1.3l-1.4-1.6l-1-1.1l-4.7-5.1l-9.2-10l-3.3-3.6l-2.8-3l-2-2.1l-3.7-3.9l-3.6-3.9l-2.8-3.1l-4.2-4.6l-2.8-3
		l-0.4-0.7l-1.5-2.7l-1.3-2.3L41,117l-0.7-3.2l-0.6-2.7l-0.9-3.9l-0.2-0.8l-0.6-2.9l-0.5-2.5l3.5-1.1l8.5-2.7l3.5-1l8.1-2.6l4.4-1.4
		l4.4-1.3l1.9-0.5L76,89l1.6-0.6l3.8-1.2l4.7-1.4l6.2-2l0,0l8-2.6l18.2-6l9.1-3.2l1.2-0.4l12.6-4.3L150,64l15.6-5.6L168.8,59.3"/>
</g>
</svg>
